<?xml version="1.0" encoding="UTF-8" standalone="no"?>
<svg
   xmlns:dc="http://purl.org/dc/elements/1.1/"
   xmlns:cc="http://creativecommons.org/ns#"
   xmlns:rdf="http://www.w3.org/1999/02/22-rdf-syntax-ns#"
   xmlns:svg="http://www.w3.org/2000/svg"
   xmlns="http://www.w3.org/2000/svg"
   version="1.1"
   id="svg2"
   xml:space="preserve"
   width="5333.3335"
   height="5333.3335"
   viewBox="0 0 5333.3335 5333.3335"><metadata
     id="metadata8"><rdf:RDF><cc:Work
         rdf:about=""><dc:format>image/svg+xml</dc:format><dc:type
           rdf:resource="http://purl.org/dc/dcmitype/StillImage" /><dc:title></dc:title></cc:Work></rdf:RDF></metadata><defs
     id="defs6" /><g
     id="g10"
     transform="matrix(1.3333333,0,0,-1.3333333,0,5333.3333)"><g
       id="g12"
       transform="scale(0.1)"><g
         id="g18"
         transform="scale(1.59327)"><path
           d="m 15366.9,8122.29 -5553.5,-675.9 c -545.04,-66.35 -1040.62,321.72 -1106.97,866.77 l -575.79,4731.04 c -66.34,545 321.72,1040.6 866.77,1106.9 l 5553.39,676 c 545.1,66.3 1040.7,-321.8 1107.1,-866.8 l 575.8,-4730.98 c 66.3,-545.04 -321.8,-1040.69 -866.8,-1107.03"
           style="fill:#ffffff;fill-opacity:1;fill-rule:nonzero;stroke:none"
           id="path20" /></g><g
         id="g22"
         transform="scale(1.57944)"><path
           d="m 9155.7,7860.69 c -148.72,142.64 -243.06,330.62 -268.26,537.97 l -87.37,717.79 c 142.65,-228.75 373.68,-392.8 639.66,-450.22 3.35,-10.89 6.71,-21.72 10.19,-32.67 -58.82,-103.77 -203.43,-384.19 -294.22,-772.87 m 6821.8,658.21 c -80.6,201.33 -169.6,390.58 -266.6,550.76 6,63.06 18.3,200.64 27.6,380.77 206.8,114.28 366.4,298.52 451,517.21 l 81.6,-670.3 c 28.9,-237.94 -36.6,-472.89 -184.3,-661.63 -33.3,-42.48 -69.9,-81.55 -109.3,-116.81"
           style="fill:#b9afbe;fill-opacity:1;fill-rule:nonzero;stroke:none"
           id="path24" /></g><g
         id="g26"
         transform="scale(1.6004)"><path
           d="m 15298.4,8086.08 h 0.3 -0.3 m -691,6578.12 c -36.1,0 -72.5,-2.2 -108.8,-6.6 l -5528.74,-672.9 c -234.82,-28.6 -444.45,-146.9 -590.29,-333.2 -145.84,-186.2 -210.39,-418.1 -181.83,-652.9 l 573.29,-4709.95 c 28.56,-234.81 146.9,-444.45 333.1,-590.22 186.33,-145.84 418.08,-210.51 652.96,-181.9 l 5528.71,672.9 c 234.8,28.61 444.5,146.96 590.2,333.16 145.9,186.27 210.5,418.15 181.9,652.96 l -573.3,4709.95 c -28.5,234.8 -146.9,444.4 -333.1,590.3 -157.4,123.2 -347.4,188.4 -544.1,188.4 M 9647.87,7301.59 c -243.06,0 -477.69,80.6 -672.14,232.82 -230.07,180.14 -376.22,439.01 -411.46,729.12 l -573.23,4709.87 c -35.37,290.1 44.43,576.5 224.51,806.5 180.14,230.1 439.07,376.3 729.12,411.6 l 5528.73,672.9 c 289.7,35.2 576.4,-44.5 806.5,-224.7 230,-180 376.2,-439 411.5,-729 l 573.2,-4709.96 c 35.4,-290.06 -44.4,-576.48 -224.5,-806.55 -180.2,-230.01 -439.1,-376.16 -729.2,-411.46 L 9782.27,7309.84 c -44.92,-5.5 -89.79,-8.19 -134.4,-8.25"
           style="fill:#371a45;fill-opacity:1;fill-rule:nonzero;stroke:none"
           id="path28" /></g><g
         id="g30"
         transform="scale(1.75571)"><path
           d="m 16049.7,9772.14 c -47.9,-47.27 -94.9,-88.57 -141.6,-124.45 -266.8,-203.91 -537.4,-222.7 -1066.8,-46.42 -74,24.78 -142.4,46.42 -205.3,65.5 -467.3,143.53 -642.8,148.09 -642.8,148.09 152.4,-659 42.8,-1678.24 42.8,-1678.24 451.3,-719.94 719.9,-2209.09 719.9,-2209.09 0,0 312.7,-426.32 445.4,-885.97 113.3,-392.43 95.4,-809.07 -360,-1005.86 -988.5,-427.18 -1842.8,982.51 -1842.8,982.51 -805.7,869.74 -1348.8,1934.55 -1348.8,1934.55 -152.6,-36.45 -372.2,-48.7 -372.2,-48.7 -225.8,-384.46 -307.3,-1147.4 -307.3,-1147.4 0,0 844.4,-610.3 1003,-1196.1 158.7,-585.8 -1012.9,-2306.77 -2221.28,-1940.53 -418.07,126.73 -590.65,382.18 -637.35,662.13 -88.85,528.56 271.12,1144.27 271.12,1144.27 -1940.53,1488.86 -781.17,3328.86 -781.17,3328.86 -301.87,924.7 -250.04,1833.73 -250.04,1833.73 -555.34,-140.11 -1138.01,-433.16 -1138.01,-433.16 -449.1,-459.64 -985.93,-305.29 -1161.64,-236.37 -48.7,19.08 -99.1,33.61 -149.8,46.14 -585.23,141.82 -655.86,406.67 -587.51,629.09 29.05,94.26 82.59,181.12 132.72,247.48 60.37,80.31 115.33,131.28 115.33,131.28 -148.94,79.42 -201.06,171.42 -165.46,281.92 29.33,93.1 121.03,199.4 269.12,322.4 323.52,268.6 828.73,170.9 828.73,170.9 639.34,671.2 2216.49,1464.6 2216.49,1464.6 2036.75,305 3534.45,312.7 4629.45,150.1 442.6,-65.8 819.4,-159.2 1139.5,-272.2 519.1,-182.9 888.8,-416.7 1147.6,-666.2 121.6,-117 219,-237.5 295.6,-357.7 373.4,-584.6 260.3,-1160.17 123.1,-1295.16"
           style="fill:#ffffff;fill-opacity:1;fill-rule:nonzero;stroke:none"
           id="path32" /></g><g
         id="g34"
         transform="scale(1.75685)"><path
           d="m 8349.05,9599.81 c 3.93,0 7.74,-1.3 10.87,-3.87 4.16,-3.47 6.43,-8.71 6.15,-14.11 -0.51,-9.05 -48.1,-916.02 249.03,-1826.29 1.59,-4.83 0.96,-10.07 -1.77,-14.34 -2.9,-4.61 -288.36,-464.64 -334.41,-1099.01 -42.4,-584.52 115.89,-1441.62 1111.03,-2205.09 6.83,-5.3 8.71,-14.75 4.33,-22.15 -3.53,-6.08 -355.58,-616.21 -268.84,-1132.08 53.51,-320.63 263.83,-538.75 625.1,-648.2 652.46,-197.8 1221.66,230.8 1502.96,503.85 462.9,449.39 781.5,1097.19 695.5,1414.64 -155.1,572.96 -987.5,1179.9 -995.9,1185.93 -5,3.59 -7.6,9.56 -7,15.65 0.9,7.63 84.5,770.53 309.4,1153.49 2.9,4.9 8,8.03 13.7,8.37 2.2,0.11 219.7,12.58 369,48.21 7.7,1.93 15.6,-1.82 19.2,-8.82 5.4,-10.65 550.9,-1072.04 1345.2,-1929.43 0.7,-0.91 1.4,-1.82 2,-2.79 8.5,-13.94 857.5,-1391.13 1820.3,-975.04 374.3,161.77 492.1,493.1 350.1,984.84 -130.2,451.03 -439.3,875.77 -442.4,880.04 -1.6,2.1 -2.6,4.49 -3.1,7.05 -2.7,14.8 -273,1493.19 -717.1,2201.62 -2,3.24 -2.9,7.06 -2.5,10.87 1.1,10.13 107.5,1023.31 -42.3,1671.46 -1.2,5.18 0,10.53 3.3,14.63 3.4,4.1 8.8,6.15 13.7,6.26 7.2,-0.17 182.9,-6.2 646.9,-148.73 69.3,-21 136.5,-42.46 205.6,-65.57 517.1,-172.24 782.2,-161.14 1050.3,43.77 45.8,35.18 92.9,76.56 139.9,122.95 v 0 c 143.3,140.99 229,718.08 -125.3,1273.08 -79.4,124.4 -177.9,243.7 -292.9,354.3 -282.3,272 -666.1,494.7 -1140.8,661.9 -332.5,117.5 -714.5,208.7 -1135.5,271.3 -1205.5,179 -2759.5,128.7 -4618.78,-149.6 -70.46,-35.7 -1589.95,-810.1 -2207.93,-1459 -4.04,-4.2 -10.08,-6.1 -15.6,-4.9 -5.01,0.9 -500.84,92.8 -814.04,-167.2 -150.02,-124.6 -236.24,-227.4 -263.59,-314.2 -33.35,-103.5 16.57,-186.5 157.11,-261.57 4.87,-2.56 8.18,-7.34 8.87,-12.81 0.73,-5.52 -1.27,-10.98 -5.31,-14.68 -0.52,-0.51 -54.61,-51 -113.22,-128.98 -42.67,-56.52 -99.81,-144.35 -129.96,-242.08 -33.58,-109.29 -25.91,-208.1 22.79,-293.65 78.71,-138.32 264.45,-243.79 552.04,-313.46 60.11,-14.86 108.38,-29.71 151.98,-46.79 155.28,-60.9 696.59,-224.1 1142.44,232.23 1.31,1.37 2.85,2.45 4.5,3.36 5.86,2.9 590.38,295.3 1140.79,434.19 1.37,0.28 2.79,0.45 4.16,0.45 M 10089.2,2550.02 c -112.63,0 -229.15,15.83 -348.57,51.97 -374.7,113.62 -592.99,340.78 -648.83,675.25 -81.62,485.58 214.59,1049.26 265.7,1141.81 -997.24,770.93 -1155.7,1636.06 -1112.44,2227.06 43.88,599.88 299.17,1046.02 335.26,1106.3 C 8310.17,8585.15 8325.71,9413 8331.06,9560.6 7809.33,9425.3 7263.7,9156.69 7221.97,9135.92 c -460.2,-468.8 -1017.33,-300.83 -1177.28,-238.1 -42.12,16.5 -89.02,30.96 -147.59,45.48 -297.03,71.94 -490.05,182.88 -573.59,329.68 -53.53,94.03 -62.2,201.89 -25.74,320.52 31.6,102.51 91.02,193.92 135.33,252.55 41.19,54.81 79.54,95.85 100.58,117.14 -140.16,80.61 -190.33,175.91 -153.31,290.81 29.35,93.1 119.09,201.1 274.29,330 305.51,253.7 760.53,188.5 833.04,176.1 637.74,663.9 2197.69,1452.6 2213.4,1460.5 1.65,0.8 3.36,1.4 5.18,1.6 1863.92,279.2 3422.12,329.6 4631.52,150 423.1,-62.9 807.3,-154.7 1141.8,-272.8 479.4,-168.8 867.3,-394.1 1153.1,-669.5 116.9,-112.6 217.2,-233.9 297.9,-360.6 369.4,-578.3 274.9,-1163.94 120.6,-1315.69 -48,-47.35 -96.1,-89.65 -143,-125.68 -275.5,-210.49 -558.6,-223.3 -1081.9,-49.06 -68.8,22.99 -135.7,44.34 -204.8,65.34 -368.2,113.1 -555.4,139.46 -615.6,145.49 137.8,-628.12 47,-1570.71 38.5,-1654.33 434.6,-697.9 702.3,-2120.16 718,-2204.86 29,-40.35 319.5,-451.43 445.4,-887.5 145.4,-503.63 17.7,-858.3 -369.4,-1025.58 -975.1,-421.5 -1828.8,933.43 -1862,987.16 -751.5,811.68 -1280.8,1804.6 -1343.3,1924.07 -133.3,-29.99 -310.7,-42.8 -352.8,-45.53 -204.2,-355.58 -288.7,-1033.05 -299.1,-1122.3 92.2,-67.79 848.9,-638.13 1000.7,-1198.79 90.4,-333.61 -225.8,-983.18 -704.6,-1447.99 -235.6,-228.6 -669.7,-564.03 -1188.1,-564.03"
           style="fill:#371a45;fill-opacity:1;fill-rule:nonzero;stroke:none"
           id="path36" /></g><g
         id="g38"
         transform="scale(1.58841)"><path
           d="m 16300,10949.9 c -708.3,60.7 -799.4,505.8 -1229.3,657.6 -121,42.7 -204.7,89.4 -262.6,134.4 -90.2,70.3 -200.3,105.1 -311.9,105.1 -64,0 -128.7,-11.5 -190.3,-34.4 -813.5,-302.5 -1508.3,-423 -2099.5,-423 -1479.2,0 -2308.58,754.7 -2715.72,1302.8 768.22,-642.7 1723.02,-1008.1 2739.82,-1039.9 48.3,-1.5 96.3,-2.3 144.4,-2.3 856.2,0 1678.8,239.2 2390.5,688.2 128.5,-32.7 253.6,-52.7 346.4,-64.5 82.9,-12.2 141.4,-17.5 154.3,-18.6 264.1,-562.1 637.1,-956.7 920.5,-1198.7 69.9,-67.9 113.4,-106.7 113.4,-106.7"
           style="fill:#b9afbe;fill-opacity:1;fill-rule:nonzero;stroke:none"
           id="path40" /></g><g
         id="g42"
         transform="scale(1.63428)"><path
           d="m 10844.9,2861.88 c -109.8,0 -223.2,15.42 -338.8,50.42 -290.7,88.11 -482.4,245.55 -569.84,468.16 -1.1,2.81 -2.2,5.62 -3.3,8.5 152.94,-124.46 427.74,-288.57 813.94,-288.57 175.6,0 374.1,33.9 594.8,120.91 339.4,133.7 583.6,355.63 758,590.78 398.1,536.63 308.4,1291.22 -197.9,1727.38 -146.9,126.53 -328,264.58 -550.9,410.57 0,0 17.1,575.49 233.4,1184.93 0,0 -602.4,176.72 -741.3,648.79 -16.4,55.81 25.8,108.55 79.7,108.55 7.2,0 14.6,-0.98 22,-2.93 168.9,-44.92 498.3,-112.72 948.3,-112.72 407.1,0 913,55.5 1488.2,233.56 58.6,6.37 116.7,13.28 174.5,20.75 31.5,-22.83 46.8,-66.82 25.3,-107.27 -88.8,-166.86 -258.3,-418.59 -547.7,-624.74 0,0 350.6,-889.69 1166.9,-1747.87 0,0 805.2,-890.73 1444.4,-890.73 258.3,0 489.4,145.38 629.5,553.7 23.9,-137.73 25.9,-272.78 -7.1,-394.3 -48.4,-178.06 -167.3,-305.7 -363.3,-390.45 -124.3,-53.72 -246.9,-77.1 -366.5,-77.1 -811.7,0 -1478.2,1079.38 -1485.8,1091.92 -3.5,5.81 -7.7,11.32 -12.3,16.4 -845.2,912.45 -1427.1,2043.96 -1432.8,2055.29 -17.7,34.63 -53.2,55.68 -90.8,55.68 -7.9,0 -16,-0.98 -23.9,-2.88 -152.9,-36.65 -379.6,-49.69 -381.8,-49.81 -34.1,-1.9 -65,-20.68 -82.3,-50.11 -250.8,-427.1 -339.9,-1239.02 -343.6,-1273.35 -3.9,-36.4 12,-72.08 41.6,-93.49 8.8,-6.37 880,-642.12 1038.9,-1228.99 74.6,-275.29 -205,-933.87 -725.1,-1438.8 -238.6,-231.54 -677.4,-572.18 -1194.4,-572.18"
           style="fill:#b9afbe;fill-opacity:1;fill-rule:nonzero;stroke:none"
           id="path44" /></g><g
         id="g46"
         transform="scale(1.50501)"><path
           d="m 13043,8625.58 c -1128.7,0 -2060,104.78 -2060,104.78 -452.1,81.86 -525.3,494.35 -523.8,760.26 0.6,128.5 -82.7,242.39 -205.1,281.33 -115.4,36.61 -228.8,84.25 -307.14,119.53 -6.31,37.54 -12.22,74.62 -17.74,111.32 146.08,-54.44 380.98,-128.46 721.98,-198.43 3.5,-168.17 11,-350.23 23.5,-546.97 14.7,-231.82 192.4,-425.84 422.4,-461.39 308.3,-47.71 896.6,-104.52 1950,-105.18 h 1.2 c 5.7,0 11.5,0 17.2,0 h 1.1 c 1053.6,0.66 1641.7,57.47 1950.1,105.18 230,35.55 407.6,229.57 422.4,461.39 12.5,195.41 19.9,376.28 23.4,543.45 442.3,89.63 709.5,186.64 837.5,240.85 -1.5,-36.5 -3.1,-71.95 -4.8,-105.83 -104.1,-43.19 -203.9,-79.07 -291.1,-107.84 -183,-60.47 -306.6,-231.3 -306.6,-424.05 v -37.88 c 0,-273.48 -193.5,-508.23 -461.7,-561.79 -166.6,-33.22 -339.3,-60.79 -515.8,-83.58 -14.7,10.63 -32.5,17.01 -51.9,17.01 -9.3,0 -19.1,-1.53 -28.9,-4.79 -36.5,-12.02 -72.7,-23.59 -108.7,-34.75 -493.9,-53.75 -1008.6,-72.62 -1487.5,-72.62"
           style="fill:#b9afbe;fill-opacity:1;fill-rule:nonzero;stroke:none"
           id="path48" /></g><g
         id="g50"
         transform="scale(1.35913)"><path
           d="m 16090.2,9631.83 c 39.8,12.36 79.9,25.17 120.3,38.48 10.9,3.61 21.7,5.3 32,5.3 21.4,0 41.2,-7.06 57.5,-18.84 -69.5,-8.97 -139.4,-17.29 -209.8,-24.94"
           style="fill:#8c7b94;fill-opacity:1;fill-rule:nonzero;stroke:none"
           id="path52" /></g><g
         id="g54"
         transform="scale(1.14264)"><path
           d="m 9959.06,13724.6 c -257.04,0 -474.69,66.3 -602.47,116.4 -73.42,28.8 -152.63,53.2 -249.16,76.5 -328.97,79.8 -736.8,234.5 -811.2,518.4 -12.15,46.4 -14.93,94.4 -10.5,143 243.54,-283.1 572.28,-339.9 786.87,-342.2 145.54,-1.6 289.33,-26.8 427.43,-72.9 124.1,-41.4 243.21,-58.8 355.76,-58.8 367.21,0 664.11,185.1 834.61,323.5 140.6,113.9 296.6,206.7 463.3,277.2 l 579.2,245.1 c 237.3,100.4 430.2,286.8 529.5,524.5 233.8,559.3 635.8,824.7 635.8,824.7 -30.6,-593.4 -49.3,-1161.4 -57,-1420.1 -1.5,0 -2.9,0 -4.4,0 -11.9,0 -23.9,-1.4 -35.7,-4.4 -858.9,-217.1 -1741,-658.2 -1778.1,-676.9 -14.4,-7.2 -27.5,-16.8 -38.8,-28.3 -339.2,-347 -711.5,-445.7 -1025.14,-445.7"
           style="fill:#b9afbe;fill-opacity:1;fill-rule:nonzero;stroke:none"
           id="path56" /></g><g
         id="g58"
         transform="scale(1.10195)"><path
           d="m 9121.19,15597.1 c -122.91,0 -218.36,14.4 -288.04,31.4 51.82,65.4 101.55,118.1 137.05,151.2 35.89,33.3 53.49,81.8 47.19,130.4 -6.29,48.4 -35.63,91 -78.79,114 -86.75,46.2 -191.87,118.6 -200.24,200.9 -1.71,16.7 -0.14,39.4 9.36,69 74.31,-14.8 154.64,-19.9 238.31,-19.9 94.14,0 192.42,6.5 291.15,12.9 98.74,6.5 197.83,13 293.48,13 76.41,0 150.55,-4.2 220.61,-15.7 559.03,-92.1 515.03,-625.7 515.03,-625.7 -107.5,71 -216.9,90.6 -304.7,90.6 -106.7,0 -181.29,-28.9 -181.29,-28.9 -292.3,-93.7 -523.71,-123.2 -699.12,-123.2"
           style="fill:#b9afbe;fill-opacity:1;fill-rule:nonzero;stroke:none"
           id="path60" /></g><g
         id="g62"
         transform="scale(1.14502)"><path
           d="m 12664.6,14698.6 c -2.6,136 1,267 9.7,400 7.4,132.5 19.7,264.7 35.7,396.6 16.8,131.8 36.8,263.3 64.2,393.6 27.6,130.3 65,259.3 114,384 7.2,18.3 27.7,27.2 45.9,20 13.9,-5.4 22.5,-18.7 22.5,-32.9 v -0.7 c -0.2,-132.2 -3.6,-261.7 -6.7,-391.2 -2.2,-129.6 -6.9,-258.5 -6.2,-387.9 -0.4,-129.2 0.5,-258.3 2.2,-387.3 l 9.7,-384.7 v -3.1 c 2,-80.3 -61.5,-147.1 -141.8,-149.1 -80.4,-2 -147.2,61.5 -149.2,141.9 v 0.8"
           style="fill:#371a45;fill-opacity:1;fill-rule:nonzero;stroke:none"
           id="path64" /></g><g
         id="g66"
         transform="scale(1.08693)"><path
           d="m 9022.53,16260.2 c 18.47,-3.1 49.38,-6.4 75.28,-9.2 27.23,-3 54.9,-4.5 82.64,-6.7 55.6,-3.4 111.81,-4.1 168.11,-3.7 112.52,1.9 225.5,11 337.38,29.5 l 88.87,16.3 c 35.98,6.5 72.59,10.1 109.39,11.3 73.51,2.3 148.3,-5.5 220.2,-26.6 35.8,-10.8 70.8,-25 103.4,-43.3 31.7,-18 61.5,-37.3 89,-61 55.2,-45.8 101.8,-103.8 128.3,-169.6 12.4,-30.8 -2.5,-65.9 -33.3,-78.4 -18.1,-7.2 -37.6,-5.2 -53,3.9 l -4.2,2.5 c -49.5,29.4 -95.9,52.7 -144.1,70.9 -24.2,8.6 -48.5,17.5 -72.7,23.7 -23.2,5.8 -46.2,10.8 -69.6,14.1 -46.8,6.9 -94.9,6.7 -142.65,-0.9 -23.92,-3.6 -47.57,-9.3 -70.94,-15.9 l -89.15,-24.7 c -126.13,-33.4 -255.95,-52.3 -386.59,-59.3 -65.42,-3.3 -131.01,-3.7 -196.96,0.4 -33.01,1.7 -65.98,5 -99.28,9 -16.73,2.1 -33.31,4.3 -50.31,7.3 -17.61,3 -32.38,5.7 -54.92,10.7 -82.68,18 -135.08,99.7 -117.05,182.4 17.43,79.8 94.3,131.5 174.06,118.6 l 8.12,-1.3"
           style="fill:#371a45;fill-opacity:1;fill-rule:nonzero;stroke:none"
           id="path68" /></g><g
         id="g70"
         transform="scale(1.51718)"><path
           d="m 16203.2,11248.6 c -28.2,-5.8 -64,-8.9 -96.8,-11.5 -33.8,-2.3 -67.8,-4.4 -102.4,-5.8 l -104.8,-6 -109.8,-7.7 -1.1,-0.1 c -14.2,-1 -26.5,9.7 -27.5,23.9 -0.6,7.1 1.9,13.7 6.2,18.7 26.2,30.2 56.1,57.8 88.3,80.7 32.1,23.4 66.2,43.8 101.4,61.2 35.2,17.8 71.6,32.3 108.9,43.9 38,11.2 73.8,19.6 117.4,21.5 60.6,2.6 111.9,-44.3 114.6,-105 2.4,-54.7 -35.7,-101.8 -87.8,-112.4 l -6.6,-1.4"
           style="fill:#371a45;fill-opacity:1;fill-rule:nonzero;stroke:none"
           id="path72" /></g><g
         id="g74"
         transform="scale(1.23175)"><path
           d="m 11131.4,13281.9 c -40.6,0 -80.9,18.3 -107.5,53.1 -1131.75,1477.3 -881.5,2789.5 -870.3,2844.6 15,73.3 86.7,120.4 159.7,105.6 73.1,-14.8 120.4,-86.1 105.7,-159.2 -2.5,-12.4 -233.1,-1252.2 819.8,-2626.4 45.3,-59.3 34.1,-144.3 -25.2,-189.7 -24.5,-18.9 -53.5,-28 -82.2,-28"
           style="fill:#371a45;fill-opacity:1;fill-rule:nonzero;stroke:none"
           id="path76" /></g><g
         id="g78"
         transform="scale(1.33137)"><path
           d="m 15341.4,9292.2 45.8,11.35 c 17.9,4.65 36.3,9.68 54.9,15.32 l 112.4,34.02 c 75.6,23.36 152,47.7 228.4,72.63 153.3,49.13 306.2,102.61 469.8,134.68 l 0.3,0.07 c 20.4,4.06 40.2,-9.31 44.2,-29.74 2.8,-14.35 -3,-28.39 -13.7,-36.88 -65.8,-51.68 -134.5,-97.8 -205.4,-139.78 -70.7,-42.29 -143.7,-80.14 -217,-117.92 -73.8,-36.96 -148.6,-72.41 -225.5,-105.01 -38.6,-15.92 -77.3,-32.07 -117.7,-45.89 -20.1,-7.21 -40.6,-13.97 -61.6,-20.65 -10.5,-3.38 -21.1,-6.76 -32.5,-9.62 l -17.3,-4.43 -9.5,-2.26 -12.9,-2.62 c -67.6,-13.9 -133.6,29.59 -147.5,97.19 -13.6,65.8 27.4,130.24 92,146.32 l 12.8,3.22"
           style="fill:#371a45;fill-opacity:1;fill-rule:nonzero;stroke:none"
           id="path80" /></g><g
         id="g82"
         transform="scale(1.22575)"><path
           d="m 16170.9,9754.21 c -36.1,-4 -65.1,-6.53 -96.9,-7.43 -31.1,-1.14 -62,-1.55 -92.7,-1.31 -61.6,-0.24 -122.9,3.84 -184,9.39 -122.1,11.91 -243.1,34.83 -361.3,67.87 -118.3,32.64 -233.6,78.57 -341.6,136.49 -108.4,57.68 -205.3,137.38 -284.8,228.68 -9.4,10.7 -8.3,27 2.4,36.4 7.5,6.4 17.6,7.9 26.3,4.6 l 1.7,-0.7 c 110.5,-42.7 212,-87 319.6,-117.5 106.3,-31.9 212.9,-60.2 322.9,-74.1 109.2,-15.8 219.4,-24.3 329.7,-26.1 55.1,-0.6 110.2,0 165,1.9 27.4,1 54.6,2.5 81.6,4.7 26.3,2.2 55.4,4.1 77.1,6.7 l 4,0.5 c 74.6,8.9 142.3,-44.27 151.2,-118.84 8.9,-74.57 -44.3,-142.2 -118.9,-151.17 l -1.3,-0.08"
           style="fill:#371a45;fill-opacity:1;fill-rule:nonzero;stroke:none"
           id="path84" /></g><g
         id="g86"
         transform="scale(1.19322)"><path
           d="m 14109.1,7688.94 c -687.5,0 -1324.3,227.03 -1873,673.13 -59.8,48.7 -68.9,136.69 -20.3,196.53 48.7,59.84 136.7,68.89 196.5,20.2 699.3,-568.46 1522,-742.45 2445.1,-517.01 700,170.89 1198.5,519.19 1203.4,522.71 63,44.42 150.2,29.58 194.7,-33.36 44.5,-62.94 29.7,-150.01 -33.2,-194.68 -21.7,-15.34 -540,-378.81 -1289.2,-563.77 -280.8,-69.31 -556.3,-103.75 -824,-103.75"
           style="fill:#371a45;fill-opacity:1;fill-rule:nonzero;stroke:none"
           id="path88" /></g><g
         id="g90"
         transform="scale(1.57049)"><path
           d="m 14083.6,6536.49 c -249.8,0 -412.2,38.97 -422.7,41.58 -56.9,14.01 -91.6,71.51 -77.6,128.43 14,56.86 71.5,91.63 128.3,77.62 4.4,-1.02 373.7,-87.93 848.6,16.24 633.5,139.06 1147.4,535.44 1527.3,1178.29 29.8,50.5 95,67.12 145.3,37.38 50.5,-29.86 67.2,-94.94 37.4,-145.43 -514.7,-870.94 -1194.9,-1176.64 -1674.8,-1279.79 -191.7,-41.14 -366.5,-54.32 -511.8,-54.32"
           style="fill:#371a45;fill-opacity:1;fill-rule:nonzero;stroke:none"
           id="path92" /></g><g
         id="g94"
         transform="scale(1.2006)"><path
           d="m 13820,6574.58 26.4,-20.16 c 9.9,-7.58 21.1,-14.99 32,-22.49 21.7,-14.83 44.9,-29.16 67.9,-43.31 46.8,-27.91 95.1,-54.14 145.1,-77.63 99.8,-47.56 204.3,-86.88 311.4,-119.03 215.1,-61.55 440.5,-92.7 668.5,-96.95 223.4,-4.5 443.4,34.57 642.7,126.02 196.7,93.21 379.4,228.72 530.4,406.72 l 2.4,2.75 c 10.5,12.33 28.9,13.82 41.2,3.41 8.8,-7.41 12,-18.91 9.5,-29.32 -31.5,-126.93 -97.7,-237.8 -180.9,-336.41 -83.4,-98.21 -185.2,-182.5 -298.4,-247.21 -228.6,-124.53 -488.9,-190.58 -744.3,-195.07 -250.7,-8.33 -505.4,18.98 -751.4,86.95 -122.9,34.82 -243.1,80.55 -358.6,137.85 -29.1,13.83 -57.7,28.9 -85.7,45.39 -28.4,15.5 -56,33.07 -83.5,50.4 -27.6,17.74 -54.6,36.23 -81.2,56.55 -13.4,10.08 -26.7,20.07 -40,31.32 -13.9,11.33 -25.1,20.74 -42.8,37.06 -56.1,51.9 -59.5,139.52 -7.6,195.66 48.8,52.72 129,58.97 185.1,16.49 l 11.8,-8.99"
           style="fill:#371a45;fill-opacity:1;fill-rule:nonzero;stroke:none"
           id="path96" /></g><g
         id="g98"
         transform="scale(1.59964)"><path
           d="m 16299.8,6506.41 c 0,-17.69 -0.7,-28.26 -1.7,-41.32 -0.9,-12.57 -2.3,-24.7 -3.7,-36.82 -2.8,-24.2 -7.2,-47.89 -12.3,-71.33 -10.2,-46.89 -24.5,-92.65 -41.7,-137.34 -33.9,-89.52 -83.5,-173.42 -145,-247.12 -61.1,-74.08 -134.8,-136.85 -214.2,-187.55 -79.7,-50.7 -165.5,-88.08 -252.5,-117.02 -175.4,-53.14 -355,-73.71 -530.5,-66.77 -175.7,6.82 -348,36.82 -512.8,89.9 -9.6,3.06 -14.9,13.38 -11.8,23 2.4,7.63 9.4,12.57 17,12.69 h 0.3 c 171.6,3.13 339.5,3.13 504.1,16.76 41.2,2.18 81.8,8.62 122.6,12.62 40.3,5.88 80.7,11.44 120.3,19.26 79.5,15.5 156.1,38.38 229.9,65.58 145.8,57.7 275.5,144.4 366.6,261.87 46,58.2 82.4,123.46 109.4,192.79 13.3,34.7 24.4,70.39 32.3,106.65 3.8,18.13 7.2,36.26 10,54.26 1.4,8.94 2.7,17.94 3.5,26.57 1,8.07 1.5,18.82 1.9,22.32 l 0.7,9.81 c 4.6,57.27 54.6,100.03 111.8,95.46 54.6,-4.31 96,-50.38 95.8,-104.27"
           style="fill:#371a45;fill-opacity:1;fill-rule:nonzero;stroke:none"
           id="path100" /></g><g
         id="g102"
         transform="scale(1.7636)"><path
           d="m 8316.96,9640.67 c 21.77,0 43.04,-7.43 60.16,-21.6 23.19,-19.11 35.95,-48.2 34.25,-78.19 -0.51,-8.91 -46.78,-899.3 244.56,-1790.94 8.73,-26.71 5.1,-55.97 -9.93,-79.73 -2.72,-4.36 -278.92,-451.29 -321.89,-1065.31 -57.11,-816.74 305.34,-1531.13 1077.11,-2123.33 37.82,-29.03 48.08,-81.6 24.1,-122.7 -4.2,-7.09 -415.57,-722.56 -217.68,-1226.3 81.02,-206.28 258.67,-352.18 528.01,-433.83 611.85,-185.36 1152.75,223.35 1420.75,483.5 482.1,467.9 741.1,1078.19 672,1333.29 -147.3,543.83 -954.6,1132.97 -962.7,1138.87 -27.5,19.84 -42.2,52.9 -38.6,86.64 3.4,31.81 86,784.19 318.4,1179.97 16,27.27 44.7,44.68 76.3,46.44 2.1,0.11 212.1,12.19 353.8,46.15 42.5,10.27 86.4,-10.09 106.2,-48.93 5.4,-10.49 544.5,-1059.03 1327.8,-1904.57 4.3,-4.7 8.1,-9.81 11.4,-15.2 8.1,-13.38 819.8,-1327.85 1716.5,-940.4 181.6,78.53 291.7,196.81 336.6,361.82 147,540.71 -454.4,1370.6 -460.4,1378.88 -8.5,11.62 -14.3,24.95 -16.8,39.07 -2.7,14.68 -269.3,1472.84 -703.9,2165.85 -11.3,17.97 -16.2,39.18 -14,60.27 1.2,9.98 105.9,1006.58 -40.6,1639.26 -6.6,28.52 0.4,58.52 18.9,81.14 18.6,22.63 46.5,35.22 75.8,34.65 9.7,-0.23 246,-8.79 871.7,-217.45 615,-204.92 829.9,-124.24 1106.8,147.88 84.7,83.23 197.2,523.73 -51.5,1022.23 -197.5,396.1 -679,933.9 -1850.3,1246.2 -1268.3,338.2 -3053.3,339.2 -5305.22,3.1 -153.5,-78.4 -1580.12,-815.6 -2167.33,-1432.1 -22.23,-23.3 -54.66,-33.8 -86.36,-27.6 -4.48,0.8 -463.82,84.8 -746.65,-150 -222.07,-184.4 -248.37,-279.5 -244.25,-319.9 5.23,-51.3 70.91,-96.6 125.12,-125.4 26.96,-14.45 45.3,-41.04 49.22,-71.32 3.94,-30.34 -7.05,-60.67 -29.48,-81.48 -80.93,-75.47 -280.22,-313.79 -229.72,-506.58 48.21,-183.94 312.44,-284.13 525.58,-335.85 62.54,-15.13 113.86,-30.9 161.43,-49.55 183.83,-72.13 654.69,-195.68 1054.55,213.31 7.31,7.48 15.76,13.67 25.12,18.37 24.04,12.08 595.54,297.92 1152.02,438.54 7.65,1.93 15.42,2.83 23.13,2.83 M 10051.2,2462.52 c -119.42,0 -243.26,16.84 -370.38,55.34 -327.69,99.29 -546.16,283 -649.3,546.1 -192.73,491.44 83.13,1107.45 191.09,1317.42 -974.49,778.8 -1130.19,1647.71 -1086.47,2245.01 40.94,558.97 255.27,979.02 327,1105.63 -226.75,717.4 -246.88,1409.11 -244.1,1689.67 -451.41,-130.59 -896.18,-344.07 -978.74,-384.55 -490.02,-489.06 -1077.68,-311.92 -1247.16,-245.47 -39.41,15.48 -82.96,28.75 -136.94,41.85 -383.22,92.88 -606.65,251.81 -664.07,472.27 -63.05,242.06 98.22,481.57 203.05,605.69 -74.01,60.22 -115.35,129.62 -123.23,207.22 -14.65,143.9 81.43,293.3 311.58,484.4 292.52,242.9 706.5,216.5 851.43,198.2 659.16,663.7 2134.44,1409.7 2198,1441.7 8.96,4.5 18.54,7.6 28.47,9 5419.97,812.1 6942.57,-497 7367.77,-1349.5 270.8,-542.7 180.6,-1078.51 14.9,-1241.47 -359.7,-353.43 -675.4,-400.2 -1299,-192.34 -351.4,117.15 -573.2,168.41 -695.8,190.81 103.1,-594.41 37.4,-1367.32 21,-1536.92 419.7,-693.23 673.4,-1994.55 708.7,-2183.6 94.4,-133.36 636.9,-934.96 477.6,-1521.99 -60.1,-221.09 -209.5,-384.62 -444.2,-486 -144.5,-62.48 -285.9,-89.48 -422,-89.53 -821.7,-0.11 -1456.2,984.86 -1525.8,1097.01 -685.5,742.24 -1186.2,1632.91 -1317.3,1876.34 -97.2,-17.64 -201.5,-27.62 -262.4,-32.38 -162.5,-312.09 -241.5,-840.38 -263.4,-1008.56 181.8,-138.69 844.4,-673.85 989.3,-1208.95 96.6,-356.6 -227.6,-1037.7 -722.7,-1518.31 -244.2,-236.96 -694.5,-584.09 -1236.9,-584.09"
           style="fill:#371a45;fill-opacity:1;fill-rule:nonzero;stroke:none"
           id="path104" /></g><g
         id="g106"
         transform="scale(1.55419)"
         style="fill:#41b883;fill-opacity:1"><path
           d="m 12652.1,9400.85 c 2321.2,0 3169.2,458.37 3169.2,458.37 478.7,412.48 93.5,797.48 93.5,797.48 -1147.8,-606.7 -3262.7,-556.1 -3262.7,-556.1 0,0 -2114.9,-50.6 -3262.71,556.1 0,0 -385.28,-385 93.43,-797.48 0,0 847.98,-458.37 3169.28,-458.37"
           style="fill:#41b883;fill-opacity:1;fill-rule:nonzero;stroke:none"
           id="path108" /></g><g
         id="g110"
         transform="scale(1.52127)"
         style="fill:#34495e;fill-opacity:1"><path
           d="m 15299.7,9922.37 c -0.1,86.73 -1.3,169.33 -3.4,247.73 612.3,126.1 867.4,264 867.4,264 54.4,46.9 97.8,93.4 132.2,139.1 2.9,-20.5 4.1,-41.9 3.1,-64 -5,-117.8 -71.2,-233.8 -196.9,-344.9 -50.5,-24.4 -298.3,-136 -802.4,-241.93 m -4764.6,3.61 c -493.3,105.02 -736.12,214.42 -785.48,238.32 -125.62,111.1 -191.88,227.1 -196.88,344.9 -0.98,22.1 0.27,43.5 3.16,64 34.31,-45.7 77.76,-92.2 132.13,-139.1 0,0 250.44,-135.3 850.47,-260.5 -2.2,-78.3 -3.4,-160.8 -3.4,-247.62"
           style="fill:#34495e;fill-opacity:1;fill-rule:nonzero;stroke:none"
           id="path112" /></g><g
         id="g114"
         transform="scale(1.54255)"><path
           d="m 9615.14,10024.1 c 98.87,-47.8 985.86,-444.29 3132.46,-444.29 2145.1,0 3032.3,395.91 3132.4,444.29 123.9,109.5 189.2,224 194.2,340.2 4.3,98.5 -35.7,182.8 -69.9,236.2 -1170.8,-569.5 -3139.8,-534.3 -3256.7,-531.8 -117.1,-2.6 -2086,-37.6 -3256.73,531.8 -34.1,-53.3 -74.17,-137.7 -69.89,-236.3 4.93,-116.1 70.28,-230.6 194.16,-340.1 m 3132.46,-660.29 c -2339.2,0 -3208.7,455.41 -3244.54,474.79 -6.88,3.7 -13.3,8.11 -19.19,13.16 -178.35,153.64 -272.22,324.04 -278.96,506.54 -9.72,263.5 171.21,447.5 178.99,455.3 33.52,33.5 84.86,41.2 126.8,19.1 1118,-590.9 3213.1,-548.3 3234.3,-547.9 1.7,0.1 3.4,0.1 5.2,0 21.2,-0.4 2116.3,-43 3234.2,547.9 42,22.1 93.4,14.4 126.9,-19.1 7.8,-7.8 188.7,-191.8 179,-455.3 -6.8,-182.5 -100.7,-352.9 -279,-506.54 -5.9,-5.05 -12.4,-9.46 -19.2,-13.16 -35.9,-19.38 -905.3,-474.79 -3244.5,-474.79"
           style="fill:#371a45;fill-opacity:1;fill-rule:nonzero;stroke:none"
           id="path116" /></g><g
         id="g118"
         transform="scale(1.42106)"
         style="fill:#41b883;fill-opacity:1"><path
           d="m 13819.1,9321.48 c 1116.9,0 1739,59.33 2066.8,110.06 190.8,29.49 335.9,187.54 348.2,380.21 65.9,1034.55 -0.3,1678.75 -68.4,2039.15 -40,211.4 -234.6,356.7 -448.5,334.3 -832.8,-87 -1888.9,-104.2 -1888.9,-104.2 0,0 -1056.3,17.2 -1889,104.2 -213.9,22.4 -408.6,-122.9 -448.5,-334.3 -68.1,-360.4 -134.4,-1004.6 -68.4,-2039.15 12.2,-192.67 157.3,-350.72 348.2,-380.21 327.8,-50.73 949.9,-110.06 2066.7,-110.06 h -18.2"
           style="fill:#41b883;fill-opacity:1;fill-rule:nonzero;stroke:none"
           id="path120" /></g><g
         id="g122"
         transform="scale(1.4108)"
         style="fill:#34495e;fill-opacity:1"><path
           d="m 13928.9,9507.46 c -1115.4,0.35 -1732.8,59.68 -2054.6,109.44 -136.7,21.12 -242.2,136.23 -250.9,273.75 -65.8,1031.85 0.2,1670.45 67.1,2024.55 13,68.5 47.8,127.1 96,169.5 -59.9,-335.2 -114.6,-915.9 -56.3,-1830 11.2,-176.1 143.8,-320.46 318.2,-347.47 298.7,-46.21 865.1,-100.22 1880.5,-100.51 -2.9,0 -5.6,-0.07 -8.4,-0.07 h 16.7 c -2.8,0 -5.6,0.07 -8.3,0.07 1015.3,0.29 1581.7,54.3 1880.5,100.51 174.3,27.01 306.9,171.37 318.1,347.47 58.3,914.1 3.6,1494.8 -56.4,1830 48.4,-42.5 83.2,-101.1 96.1,-169.5 66.9,-354.1 132.8,-992.9 67.2,-2024.55 -8.8,-137.52 -114.4,-252.63 -251,-273.75 -321.8,-49.76 -939.3,-109.09 -2054.5,-109.44"
           style="fill:#34495e;fill-opacity:1;fill-rule:nonzero;stroke:none"
           id="path124" /></g><g
         id="g126"
         transform="scale(1.41479)"><path
           d="m 11734,12068.6 v -0.1 z m 4329.4,-0.1 v 0 z m -4329.4,-0.1 v -0.1 z m 4329.4,0 v -0.1 z m -4329.4,-0.2 v -0.1 z m 4329.4,0 v -0.1 z m -2164.7,-479.4 c -1311.5,0 -2119.8,120.9 -2337.6,349.5 -57.4,60.1 -63.8,114.2 -62.4,141.1 3,65 58.8,115.5 123.2,111.9 53.5,-2.5 96.9,-40.3 108.9,-89.9 32.1,-36.9 312.5,-276.9 2167.9,-276.9 1855.4,0 2135.7,240 2167.8,276.9 12,49.6 55.4,87.4 108.9,89.9 64.7,3.6 120.1,-46.9 123.3,-111.9 1.3,-26.9 -5.1,-81 -62.4,-141.1 -217.8,-228.6 -1026.2,-349.5 -2337.6,-349.5"
           style="fill:#371a45;fill-opacity:1;fill-rule:nonzero;stroke:none"
           id="path128" /></g><g
         id="g130"
         transform="scale(1.1349)"><path
           d="m 16153.1,11545.6 c -81.1,0 -146.8,65.8 -146.8,146.8 v 1033.5 l -534.8,545.7 c -26.9,27.5 -42,64.4 -42,102.8 v 1301.8 c 0,81.1 65.8,146.8 146.9,146.8 81.1,0 146.8,-65.7 146.8,-146.8 v -1241.8 l 534.9,-545.7 c 26.8,-27.4 41.9,-64.4 41.9,-102.8 v -1093.5 c 0,-81 -65.7,-146.8 -146.9,-146.8"
           style="fill:#371a45;fill-opacity:1;fill-rule:nonzero;stroke:none"
           id="path132" /></g><g
         id="g134"
         transform="scale(1.43135)"><path
           d="m 11809.9,11983.4 c -140,0 -260.6,-98.3 -287.3,-239.2 -65.9,-349.1 -130.9,-978.6 -66.1,-1995.57 8.6,-135.54 112.6,-248.99 247.3,-269.81 317.2,-49.05 925.7,-107.52 2025.1,-107.87 1099.2,0.35 1707.9,58.82 2025,107.87 134.7,20.82 238.7,134.27 247.4,269.81 64.7,1016.87 -0.3,1646.47 -66.3,1995.57 -28.6,151.4 -166,253.8 -318.7,237.6 -822.4,-85.9 -1875,-103.8 -1885.6,-104.1 -1.2,0 -2.5,0 -3.8,0 -10.5,0.3 -1063.2,18.2 -1885.6,104.1 -10.5,1.1 -21.1,1.6 -31.4,1.6 m 1928,-2845.31 c -6,0 -12.1,0 -18.1,0 h -1.2 c -1107.7,0.7 -1726.2,60.43 -2050.5,110.59 -241.8,37.38 -428.6,241.39 -444.1,485.14 -66.3,1041.18 1.4,1691.38 69.8,2053.58 51.3,271.6 296.7,454.7 571.8,426 795.5,-83.1 1812.5,-101.9 1863.3,-102.7 50.6,0.8 1067.7,19.6 1863.2,102.7 274.9,28.6 520.5,-154.4 571.7,-426 68.5,-362.2 136.2,-1012.5 69.8,-2053.58 -15.5,-243.75 -202.3,-447.76 -444.1,-485.14 -324.2,-50.16 -942.7,-109.89 -2050.4,-110.59 h -1.2"
           style="fill:#371a45;fill-opacity:1;fill-rule:nonzero;stroke:none"
           id="path136" /></g><g
         id="g138"
         transform="scale(1.3311)"><path
           d="m 15695.9,11668.1 c -195,0 -353.8,-158.6 -353.8,-353.7 0,-195 158.8,-353.7 353.8,-353.7 195,0 353.7,158.7 353.7,353.7 0,195.1 -158.7,353.7 -353.7,353.7 m 0,-957.8 c -333.1,0 -604.1,271 -604.1,604.1 0,333.1 271,604.1 604.1,604.1 333.1,0 604.1,-271 604.1,-604.1 0,-333.1 -271,-604.1 -604.1,-604.1"
           style="fill:#371a45;fill-opacity:1;fill-rule:nonzero;stroke:none"
           id="path140" /></g><g
         id="g142"
         transform="scale(1.32088)"><path
           d="m 16300,11212.7 c 0,-266.5 -216.1,-482.6 -482.6,-482.6 -266.6,0 -482.7,216.1 -482.7,482.6 0,266.6 216.1,482.7 482.7,482.7 266.5,0 482.6,-216.1 482.6,-482.7"
           style="fill:#42cff4;fill-opacity:1;fill-rule:nonzero;stroke:none"
           id="path144" /></g><g
         id="g146"
         transform="scale(1.28177)"><path
           d="m 16299.9,11057.5 c -172.4,0 -324.3,87.8 -413.5,221 v 0 c 89.2,-133.2 241.1,-221 413.6,-221 -0.1,0 -0.1,0 -0.1,0"
           style="fill:#b9afbe;fill-opacity:1;fill-rule:nonzero;stroke:none"
           id="path148" /></g><g
         id="g150"
         transform="scale(1.24925)"><path
           d="m 16300,11572.2 v 0 c -54.3,81.1 -85.9,178.7 -85.9,283.5 0,14.3 0.6,28.4 1.7,42.2 -1.1,-13.8 -1.7,-27.9 -1.7,-42.2 0,-104.8 31.6,-202.4 85.9,-283.5 m -84.1,326.2 c 0,0.1 0,0.4 0,0.6 0,-0.2 0,-0.5 0,-0.6"
           style="fill:#371a45;fill-opacity:1;fill-rule:nonzero;stroke:none"
           id="path152" /></g><g
         id="g154"
         transform="scale(1.32088)"><path
           d="m 15817.4,10730.1 c -167.4,0 -314.8,85.2 -401.4,214.5 -51.4,76.7 -81.3,168.9 -81.3,268.1 0,13.5 0.6,26.8 1.6,39.9 0,0.2 0,0.3 0.1,0.5 0,0.1 0,0.4 0,0.6 4.4,52.2 17.2,102.1 36.9,148.3 73.6,-172.5 244.7,-293.4 444,-293.4 199.4,0 370.4,120.9 444.1,293.4 24.7,-58.2 38.6,-122.1 38.6,-189.3 0,-266.5 -216.1,-482.6 -482.7,-482.6"
           style="fill:#3e90b7;fill-opacity:1;fill-rule:nonzero;stroke:none"
           id="path156" /></g><g
         id="g158"
         transform="scale(1.3311)"><path
           d="m 15695.9,11480.3 c -195,0 -353.8,-158.6 -353.8,-353.7 0,-195 158.8,-353.7 353.8,-353.7 195,0 353.7,158.7 353.7,353.7 0,195.1 -158.7,353.7 -353.7,353.7 z m 0,-957.8 c -333.1,0 -604.1,271 -604.1,604.1 0,333.1 271,604.1 604.1,604.1 333.1,0 604.1,-271 604.1,-604.1 0,-333.1 -271,-604.1 -604.1,-604.1"
           style="fill:#371a45;fill-opacity:1;fill-rule:nonzero;stroke:none"
           id="path160" /></g><g
         id="g162"
         transform="scale(1.7265)"><path
           d="m 15344.4,13745.7 c -45.5,-1.8 -83.8,33.6 -85.6,79.1 l -94.2,2370.7 c -1.8,45.5 33.6,83.8 79.1,85.6 476.9,18.9 878.8,-352.3 897.8,-829.2 l 32.1,-808.4 c 18.8,-476.9 -352.4,-878.9 -829.2,-897.8"
           style="fill:#ffffff;fill-opacity:1;fill-rule:nonzero;stroke:none"
           id="path164" /></g><g
         id="g166"
         transform="scale(1.72731)"><path
           d="m 15271.6,16256.8 c -11.4,0 -22.8,-0.2 -34.3,-0.7 -17.4,-0.6 -33.5,-8 -45.2,-20.8 -11.8,-12.8 -18,-29.3 -17.2,-46.7 L 15269,13819 c 0.6,-17.4 8,-33.4 20.8,-45.2 12.7,-11.8 29.2,-17.6 46.7,-17.2 466.3,18.5 830.6,413 812.2,879.3 l -32.2,808.1 c -8.9,225.9 -105.3,434.8 -271.4,588.2 -157.6,145.5 -360.1,224.6 -573.5,224.6 m 65.5,-2517.5 h 0.3 -0.3 m -3.3,-17.4 c -25.1,0 -49,9.3 -67.5,26.4 -19.6,18.1 -31,42.7 -32,69.3 l -94.1,2369.6 c -1,26.7 8.4,52.1 26.4,71.6 18.1,19.5 42.7,31 69.3,32 235.3,9.2 459.9,-73.5 632.7,-233.1 172.9,-159.8 273.3,-377.2 282.6,-612.3 l 32.1,-808.1 c 19.3,-485.4 -360.1,-896.1 -845.5,-915.3 -1.3,-0.1 -2.6,-0.1 -4,-0.1"
           style="fill:#371a45;fill-opacity:1;fill-rule:nonzero;stroke:none"
           id="path168" /></g><g
         id="g170"
         transform="scale(1.70458)"><path
           d="m 15606.1,14025.9 c 33.7,145.2 58.8,292.6 75,441.5 6.7,48.2 12.5,96.6 17.6,145.1 245.4,48.1 452.7,198.2 577.7,403 l 7.5,-187.5 c 16.1,-405.4 -282.7,-751.6 -677.8,-802.1"
           style="fill:#b9afbe;fill-opacity:1;fill-rule:nonzero;stroke:none"
           id="path172" /></g><g
         id="g174"
         transform="scale(1.73579)"><path
           d="m 15180.1,16098.5 92.5,-2329.7 c 413.9,24 735,376.6 718.5,792.6 l -31.9,804 c -8.1,203.9 -95,392.3 -244.9,530.6 -146.3,135.2 -336.4,206.6 -534.2,202.5 m 82.2,-2426.3 h 0.2 -0.2 m -3.4,-96.1 c -44.9,0 -87.4,16.7 -120.6,47.2 -34.9,32.3 -55.2,76.3 -57.1,123.8 l -93.6,2358 c -1.9,47.5 14.9,92.9 47.2,127.8 32.2,34.9 76.1,55.2 123.6,57.1 254.9,10 498.7,-79.7 686.2,-252.9 187.5,-173.2 296.3,-409 306.5,-664 l 31.9,-804.1 c 20.9,-526.5 -390.4,-971.8 -916.9,-992.7 v 0 c -2.5,-0.1 -4.8,-0.2 -7.2,-0.2"
           style="fill:#371a45;fill-opacity:1;fill-rule:nonzero;stroke:none"
           id="path176" /></g><g
         id="g178"
         transform="scale(1.69179)"><path
           d="m 7570.56,16298.2 v 0 c 46.4,1.8 85.47,-34.3 87.3,-80.7 l 96.05,-2419.4 c 1.83,-46.4 -34.28,-85.5 -80.62,-87.4 -486.71,-19.2 -896.86,359.6 -916.19,846.2 l -32.75,825.1 c -19.33,486.7 359.56,896.8 846.21,916.2"
           style="fill:#ffffff;fill-opacity:1;fill-rule:nonzero;stroke:none"
           id="path180" /></g><g
         id="g182"
         transform="scale(1.6935)"><path
           d="m 7563.61,16264 c -475.64,-18.9 -847.29,-421.2 -828.4,-896.9 l 32.71,-824.2 c 9.16,-230.4 107.47,-443.4 276.89,-599.9 169.35,-156.4 389.19,-237.9 620.01,-228.4 17.66,0.7 34.01,8.2 46.06,21.2 12.05,13 18.25,29.9 17.54,47.6 l -95.96,2417 c -0.71,17.7 -8.21,34.1 -21.25,46.1 -13.05,12 -29.82,18.2 -47.6,17.5 m 66.02,-2585.5 c -226.45,0 -441.45,83.9 -608.86,238.5 -176.32,162.9 -278.65,384.7 -288.16,624.5 l -32.77,824.2 c -19.6,495.2 367.23,914 862.36,933.6 27.28,0.7 53.08,-8.5 73.04,-26.9 19.96,-18.4 31.47,-43.5 32.59,-70.6 l 95.96,-2416.9 c 1.06,-27.2 -8.5,-53.1 -26.93,-73.1 -18.48,-19.9 -43.52,-31.5 -70.68,-32.6 -12.16,-0.5 -24.39,-0.7 -36.55,-0.7"
           style="fill:#371a45;fill-opacity:1;fill-rule:nonzero;stroke:none"
           id="path184" /></g><g
         id="g186"
         transform="scale(1.53015)"><path
           d="m 8415.27,15267.8 c -206.97,6.9 -403.69,87.1 -557.79,229.4 -169.92,156.9 -268.54,370.7 -277.75,601.9 l -7.98,200.9 c 162.54,-198.9 402.06,-331.9 670.72,-355.2 40.59,-230.4 98.36,-456.7 172.8,-677"
           style="fill:#b9afbe;fill-opacity:1;fill-rule:nonzero;stroke:none"
           id="path188" /></g><g
         id="g190"
         transform="scale(1.702)"><path
           d="m 7514.63,16101.9 c -422.09,-24.5 -749.59,-384 -732.79,-808.3 l 32.56,-820 c 8.28,-207.9 96.94,-400.1 249.7,-541.2 149.29,-137.9 343.01,-210.8 544.89,-206.5 l -94.36,2376 m 76.85,-2572 c -245.65,0 -478.73,91 -660.22,258.6 -191.25,176.7 -302.23,417.2 -312.58,677.2 l -32.55,820.1 c -21.27,537 398.24,991.1 935.14,1012.4 v 0.1 c 48.76,1.7 94.71,-15.2 130.32,-48.1 35.6,-32.9 56.28,-77.7 58.22,-126.2 l 95.48,-2404.8 c 1.88,-48.4 -15.16,-94.8 -48.06,-130.4 -32.91,-35.6 -77.68,-56.2 -126.15,-58.1 -13.22,-0.6 -26.44,-0.8 -39.6,-0.8"
           style="fill:#371a45;fill-opacity:1;fill-rule:nonzero;stroke:none"
           id="path192" /></g><g
         id="g194"
         transform="scale(2.00923)"><path
           d="m 13252.8,12658.6 c -60.1,-1917.8 -1663.5,-3423.81 -3581.33,-3363.74 -1917.85,60.08 -3423.85,1663.44 -3363.73,3581.34 60.08,1917.8 1663.48,3423.8 3581.33,3363.7 1917.83,-60.1 3423.83,-1663.5 3363.73,-3581.3"
           style="fill:#ffffff;fill-opacity:1;fill-rule:nonzero;stroke:none"
           id="path196" /></g><g
         id="g198"
         transform="scale(2.00725)"><path
           d="m 9787.16,16242.7 c -883.7,0 -1720.81,-331 -2367.92,-938.8 -674.2,-633.2 -1061.45,-1491 -1090.39,-2415.5 -28.95,-924.5 303.79,-1804.9 937.05,-2479.1 633.2,-674.21 1491.09,-1061.45 2415.59,-1090.4 924.31,-29.09 1804.81,303.8 2479.01,937.1 674.3,633.2 1061.4,1491 1090.4,2415.5 29,924.5 -303.8,1804.9 -937,2479.1 -633.3,674.2 -1491.1,1061.4 -2415.6,1090.4 -37.11,1.2 -74.18,1.7 -111.14,1.7 m 5.53,-6955.38 c -37.37,0 -74.63,0.6 -112.15,1.79 -932.47,29.19 -1797.68,419.78 -2436.41,1099.79 -638.69,680 -974.32,1568 -945.13,2500.4 29.25,932.4 419.83,1797.7 1099.82,2436.4 679.98,638.7 1567.31,974.3 2500.43,945.1 932.45,-29.2 1797.65,-419.8 2436.35,-1099.8 638.7,-680 974.4,-1568 945.1,-2500.4 -29.2,-932.5 -419.7,-1797.7 -1099.7,-2436.4 -652.7,-612.99 -1497,-946.88 -2388.31,-946.88"
           style="fill:#371a45;fill-opacity:1;fill-rule:nonzero;stroke:none"
           id="path200" /></g><g
         id="g202"
         transform="scale(1.41339)"><path
           d="m 13908.2,13328.7 c -51.8,0 -103.8,0.8 -155.8,2.5 -1138,35.6 -2203.6,461.2 -3044.5,1208.1 774.9,-448.3 1890.2,-854.1 3096.6,-862.8 16.8,-0.1 33.1,-0.2 49.8,-0.2 853.8,0 1626.9,158.7 2273,383.5 51.1,-36 109.9,-67.5 172.7,-95.2 -722.6,-415.6 -1542,-635.9 -2391.8,-635.9"
           style="fill:#b9afbe;fill-opacity:1;fill-rule:nonzero;stroke:none"
           id="path204" /></g><g
         id="g206"
         transform="scale(2.01568)"><path
           d="m 9746.29,16107 c -862.73,0 -1679.93,-323.1 -2311.63,-916.5 -658.18,-618.1 -1036.17,-1455.6 -1064.45,-2358.2 -28.33,-902.4 296.58,-1761.9 914.73,-2420.1 618.2,-658.17 1455.69,-1036.15 2358.21,-1064.43 901.75,-28.53 1761.95,296.52 2420.15,914.73 658.1,618.2 1036.2,1455.7 1064.4,2358.2 28.3,902.5 -296.5,1761.9 -914.7,2420.1 -618.2,658.2 -1455.7,1036.2 -2358.21,1064.5 -36.21,1.1 -72.43,1.7 -108.5,1.7 m 5.51,-6926.32 c -37.9,0 -75.76,0.59 -113.86,1.78 -946.62,29.67 -1825.09,426.16 -2473.51,1116.54 -648.41,690.3 -989.19,1591.9 -959.52,2538.6 29.61,946.6 426.16,1825.1 1116.54,2473.5 690.34,648.4 1591.53,988.9 2538.55,959.5 946.6,-29.7 1825.1,-426.2 2473.5,-1116.5 648.4,-690.4 989.2,-1592 959.5,-2538.6 -29.6,-946.7 -426.2,-1825.1 -1116.5,-2473.5 -662.6,-622.38 -1519.8,-961.32 -2424.7,-961.32"
           style="fill:#371a45;fill-opacity:1;fill-rule:nonzero;stroke:none"
           id="path208" /></g><g
         id="g210"
         transform="scale(1.87379)"><path
           d="m 14195.8,13478.3 c -11.8,-728.9 -259.4,-1401.7 -673.1,-1955.1 -310.2,-414.8 -1569.2,-1129.3 -3109.4,-1118.1 -1428.13,10.3 -2714.94,792.6 -3011.5,1217.3 -395.56,566.5 -621.2,1247 -609.41,1975.9 31.28,1928.9 1701.47,2701.7 3745.91,2668.6 2044.6,-33.2 3688.8,-859.7 3657.5,-2788.6"
           style="fill:#371a45;fill-opacity:1;fill-rule:nonzero;stroke:none"
           id="path212" /></g><g
         id="g214"
         transform="scale(1.88225)"><path
           d="m 10366.5,16106.2 c -999.59,0 -1842.57,-200.8 -2444.19,-583.1 -697.09,-442.9 -1057.77,-1111.6 -1071.96,-1987.4 -11.05,-683.5 193.23,-1345.6 590.78,-1914.8 282.38,-404.5 1536.19,-1164.1 2925.97,-1174.1 11.7,-0.1 23.6,-0.1 35.3,-0.1 1523.2,-0.1 2714.5,711.1 2988.6,1077.7 415.7,556.1 641.4,1211.3 652.4,1894.7 38.5,2371.7 -2472.5,2668.5 -3553.9,2686.1 -41.2,0.6 -82.3,1 -123,1 m 36.7,-5836.7 c -12.5,0 -24.8,0.1 -37.4,0.2 -1470.35,10.6 -2760.66,807 -3069.92,1249.7 -418.97,600.1 -634.24,1298.3 -622.6,2019.2 15.24,939.1 403.5,1657.2 1154.09,2134 655.38,416.5 1576.25,627.4 2665.03,609.6 1088,-17.6 2002.2,-258.2 2643.8,-695.6 734.7,-501 1099.6,-1231.2 1084.3,-2170.3 -11.7,-721 -249.5,-1411.9 -687.7,-1998 -301.5,-403.1 -1525.8,-1148.8 -3129.6,-1148.8"
           style="fill:#371a45;fill-opacity:1;fill-rule:nonzero;stroke:none"
           id="path216" /></g><g
         id="g218"
         transform="scale(1.6569)"><path
           d="m 14630.9,14822.1 c -25.7,0 -51.6,2.5 -77.4,7.6 -292.7,58 -465.1,432.3 -385.1,836.3 72.9,368.3 330.5,634 597.3,634 25.8,0 51.6,-2.5 77.5,-7.5 236.5,-46.9 394.5,-300.4 404.2,-609.2 -34.7,-181.8 -79.7,-360.2 -134.4,-534.5 -117.7,-199.9 -297.7,-326.7 -482.1,-326.7"
           style="fill:#c3bac7;fill-opacity:1;fill-rule:nonzero;stroke:none"
           id="path220" /></g><g
         id="g222"
         transform="scale(1.53667)"><path
           d="m 14625,15572.4 c -30.4,0 -60.8,4.9 -90.6,15.2 -165.1,57.3 -244.9,259.9 -178.1,452.4 54.8,157.9 191.1,260 329.6,260 30.4,0 60.8,-4.9 90.6,-15.2 165.2,-57.4 244.9,-259.9 178.1,-452.4 -54.8,-157.9 -191.2,-260 -329.6,-260"
           style="fill:#c3bac7;fill-opacity:1;fill-rule:nonzero;stroke:none"
           id="path224" /></g><g
         id="g226"
         transform="scale(1.45727)"><path
           d="m 13436.1,13493.2 v 0 c -15.1,0 -30.5,0.1 -45.6,0.2 -574.9,4.2 -1131.9,107.7 -1635.3,263.5 1870.6,101.1 3430.2,828.4 4193.3,1435.5 40.9,-106.1 85.2,-206.7 128.1,-297.1 116.7,-246 223.4,-416.2 223.4,-416.2 0,0 -2.3,0.1 -6.6,0.1 -77.4,0 -810.9,-13.2 -838.8,-514.7 -2.8,-50.5 5.7,-97 23.4,-139.5 -588,-195.1 -1283,-331.8 -2041.9,-331.8"
           style="fill:#2a1a3b;fill-opacity:1;fill-rule:nonzero;stroke:none"
           id="path228" /></g><g
         id="g230"
         transform="scale(1.38934)"><path
           d="m 14091.5,14032.8 c -15.9,0 -31.5,0.1 -47.4,0.2 -733.4,5.1 -1439,161.4 -2054,384.9 114.2,1.6 227.6,5.5 339.8,11.6 528,-163.5 1112.3,-272 1715.2,-276.4 15.9,-0.1 32.1,-0.2 47.9,-0.2 v 0 c 796,0 1525,143.3 2141.7,348 15.5,-37.2 37.7,-71.7 65.3,-103.6 -640.1,-215 -1394.6,-364.5 -2208.5,-364.5"
           style="fill:#2a1a3b;fill-opacity:1;fill-rule:nonzero;stroke:none"
           id="path232" /></g><g
         id="g234"
         transform="scale(1.741)"><path
           d="m 14585.3,12916.4 c 0,0 -217.9,464.8 -510.3,757.8 123.6,237.1 226.9,485.3 307.9,742.8 50.1,85.1 88.3,184.1 109.7,292.5 14.6,73.7 20.4,146.4 18.3,216.2 48.1,252.5 75.1,512.2 79.4,777.2 3.5,208.3 -7.6,407.3 -32,597.1 386.9,-421.3 637.4,-999.4 624.5,-1792.1 -8.6,-532.4 -137.6,-1048.9 -377.2,-1520.9 -133.4,-30.9 -220.3,-70.6 -220.3,-70.6"
           style="fill:#2a1a3b;fill-opacity:1;fill-rule:nonzero;stroke:none"
           id="path236" /></g><g
         id="g238"
         transform="scale(1.75762)"><path
           d="m 14665.6,12864.2 c 237.3,467.5 365.1,979.1 373.7,1506.5 12.7,785.2 -235.4,1357.9 -618.7,1775.2 -6.6,52 -14.3,103.4 -22.9,154.1 474.9,-468.2 749.6,-1104.8 736.3,-1930.7 -8.5,-529.3 -133.7,-1030.9 -352,-1483.3 -41.6,-6 -80.7,-13.6 -116.4,-21.8"
           style="fill:#2a1a3b;fill-opacity:1;fill-rule:nonzero;stroke:none"
           id="path240" /></g><g
         id="g242"
         transform="scale(1.59421)"><path
           d="m 15707.2,15744.5 c 56.9,181.1 103.7,366.6 139.8,555.5 2.4,-76.2 -4,-155.6 -19.9,-236.1 -23.4,-118.3 -65.2,-226.5 -119.9,-319.4"
           style="fill:#858290;fill-opacity:1;fill-rule:nonzero;stroke:none"
           id="path244" /></g><g
         id="g246"
         transform="scale(1.92769)"><path
           d="m 6895.41,14816.2 4.04,-3.7 -4.04,3.7 m 6620.29,-151.9 c -19.6,0 -39.4,6.7 -55.6,20.5 -5.8,4.9 -11.4,11 -15.7,17.2 -597.1,866.7 -1769.4,1377.2 -3216.2,1400.7 -33.6,0.5 -67.1,0.8 -100.3,0.8 -1409.12,0 -2556.19,-485.6 -3157.27,-1340.2 -1.46,-2 -3.01,-4.1 -4.62,-6 -0.57,-0.7 -1.66,-1.9 -2.28,-2.6 -31.96,-35.5 -86.64,-38.4 -122.12,-6.4 -33.82,30.4 -38.02,81.4 -10.74,116.9 649.23,920.8 1888.59,1434.8 3400.13,1410.4 1502.5,-24.4 2725.1,-561.6 3354.7,-1473.8 23.1,-31.9 22.3,-76.8 -4.6,-107.6 -17.1,-19.7 -41.2,-29.9 -65.4,-29.9"
           style="fill:#371a45;fill-opacity:1;fill-rule:nonzero;stroke:none"
           id="path248" /></g><g
         id="g250"
         transform="scale(1.81172)"><path
           d="m 7865.69,12863.5 c 0,0 -585.97,1978 487.38,2745.1 769.76,550.2 1772.33,691.4 2264.13,691.4 193.9,0 308.4,-22 297.9,-49.5 0,0 -1696,-381.6 -2378.67,-1706.4 -526.41,-1021.6 -670.74,-1680.6 -670.74,-1680.6"
           style="fill:#c3bac7;fill-opacity:1;fill-rule:nonzero;stroke:none"
           id="path252" /></g><g
         id="g254"
         transform="scale(1.76957)"><path
           d="m 15783.5,9572.1 c -24,-9.33 -49.5,-17.8 -75.7,-25.43 -234,-67.53 -484.6,-35.61 -699.4,77.7 -9.3,4.8 -18.3,9.89 -27.4,14.97 l -334.2,189.88 c -260.3,201.48 -669.1,585.78 -944.9,1174.28 0,0 -999.1,60.5 -974.8,496.5 24.3,435.9 696.2,423.8 696.2,423.8 0,0 -87.9,140.1 -183.9,342.7 -190.8,401.5 -414.3,1047.7 -52.3,1331.4 545,427 1162.7,-890 1162.7,-890 0,0 1124.9,513.7 1475.2,-738 15.8,-57.4 30.5,-118.7 43,-184 l 7.6,-40.7 0.3,-0.5 c 8.2,-16.7 205.7,-418.2 308.8,-877.1 115.3,-512.3 113,-1095.74 -401.2,-1295.5"
           style="fill:#ffffff;fill-opacity:1;fill-rule:nonzero;stroke:none"
           id="path256" /></g><g
         id="g258"
         transform="scale(1.67598)"><path
           d="m 16164.4,10031.4 c -151.5,0 -337.5,38.4 -585,120.8 15.8,-0.3 32,-0.4 48.6,-0.4 67.5,0 141.5,2.7 218.6,10 v 0 c 140.9,-74.3 296.5,-115.5 453.4,-118.9 -42.3,-7.6 -87.2,-11.5 -135.6,-11.5"
           style="fill:#b9afbe;fill-opacity:1;fill-rule:nonzero;stroke:none"
           id="path260" /></g><g
         id="g262"
         transform="scale(1.74691)"><path
           d="m 15507.2,9528.61 c -159,0 -347.8,40.01 -591.1,121.01 -74.4,24.9 -143.1,46.65 -206.4,65.83 l -35.2,45.51 c 0,0 111.6,-17.86 272.3,-20.95 237.5,-79.05 415.9,-115.98 561.2,-115.98 46.5,0 89.6,3.78 130.1,11.11 6.7,-0.12 13.5,-0.23 20.2,-0.23 84.9,0 170.1,11.62 253.2,35.6 26.7,7.73 52.4,16.32 76.7,25.76 137.8,53.47 239.2,134.19 311.8,233.45 v 0 c -72.6,-99.26 -174,-179.98 -311.8,-233.45 -145.5,-111.22 -292.2,-167.66 -481,-167.66"
           style="fill:#371a45;fill-opacity:1;fill-rule:nonzero;stroke:none"
           id="path264" /></g><g
         id="g266"
         transform="scale(1.72267)"><path
           d="m 16300,12106.8 c -12.8,67 -27.9,130 -44.1,188.9 2.6,0.6 5.5,1.5 8.4,2.4 l 35.7,-191.3"
           style="fill:#3978be;fill-opacity:1;fill-rule:nonzero;stroke:none"
           id="path268" /></g><g
         id="g270"
         transform="scale(1.76375)"><path
           d="m 15508.8,9542.91 c -6.6,0 -13.3,0.12 -20,0.23 -149.1,3.23 -296.9,42.35 -430.8,113 504,48.19 1143,305.03 796,1360.76 -22.7,68.9 -49.5,141.2 -80.9,217 -35,84.6 -118,139 -209.5,139 -0.4,0 -0.7,0 -1.1,0 -0.9,0 -1.8,0 -2.7,0 -1.9,0 -3.7,0 -5.5,0 -299.8,0 -947.6,70.9 -1137,663.1 -58.7,183.4 -73.4,417 -20.1,713.8 0,0 388.7,-793.4 1137.7,-793.4 106.8,0 221,16.1 342.4,53 v 0 c 15.8,-57.6 30.6,-119.1 43.1,-184.6 v 0 l 7.6,-40.8 0.3,-0.6 309.8,-879.9 c 37,-164.2 61.9,-335.6 61.9,-499.4 0,-213.6 -42.4,-414.3 -155.6,-569.19 -71.9,-98.32 -172.4,-178.26 -308.8,-231.22 -24.1,-9.35 -49.6,-17.86 -76,-25.51 -82.3,-23.76 -166.7,-35.27 -250.8,-35.27"
           style="fill:#b9afbe;fill-opacity:1;fill-rule:nonzero;stroke:none"
           id="path272" /></g><g
         id="g274"
         transform="scale(1.73504)"><path
           d="m 15570.3,11755.5 c -216,0 -402.8,54.6 -559,163.6 -467.3,326.1 -472,1012.7 -472,1041.8 0,53.1 43,96 96.1,96 v 0 c 53,-0.1 96,-43.1 96,-96.1 0,-6.8 5.7,-616.9 390.5,-884.7 242.6,-168.7 591.3,-171.1 1036.4,-7 49.7,18.4 105,-7.1 123.4,-56.9 18.3,-49.8 -7.2,-105 -57,-123.3 -240.9,-88.9 -459.5,-133.4 -654.4,-133.4"
           style="fill:#371a45;fill-opacity:1;fill-rule:nonzero;stroke:none"
           id="path276" /></g><g
         id="g278"
         transform="scale(1.75727)"><path
           d="m 14333,10476.4 c -155.2,0 -250.4,15.7 -263,18 -51.6,9.1 -86,58.3 -76.9,109.9 9.1,51.5 58.4,85.9 109.7,76.9 12.6,-2 1007.8,-160.8 2030.4,682.1 40.4,33.2 100.2,27.5 133.5,-12.9 33.3,-40.5 27.5,-100.2 -12.9,-133.6 -780.3,-643.1 -1535.5,-740.4 -1920.8,-740.4"
           style="fill:#371a45;fill-opacity:1;fill-rule:nonzero;stroke:none"
           id="path280" /></g><g
         id="g282"
         transform="scale(1.50093)"><path
           d="m 15824.2,14169 c 44.3,-1.9 81.5,-7.1 121.4,-14.1 39.1,-7.2 77.9,-16.6 116.1,-27.7 76.2,-22.5 152.1,-52.5 217,-103.3 18.1,-14.3 21.3,-40.5 7.1,-58.6 -8.2,-10.5 -20.2,-16 -32.6,-16.1 h -2.1 c -75.4,-0.3 -145,4.1 -216.1,4.1 -35.4,0 -70.7,-0.6 -105.8,-1.8 -34.3,-1.2 -71.5,-2.7 -101.7,-4.6 h -0.8 c -61.3,-4 -114.2,42.5 -118.1,103.9 -3.9,61.2 42.7,114.1 104,118.1 3.8,0.2 7.8,0.2 11.6,0.1"
           style="fill:#371a45;fill-opacity:1;fill-rule:nonzero;stroke:none"
           id="path284" /></g><g
         id="g286"
         transform="scale(1.77434)"><path
           d="m 14593.9,9785.4 c -59.5,27.28 -115.2,60.59 -168.5,97.27 -53.7,36.24 -104.1,76.82 -152.7,119.33 -96.1,86.4 -187.8,178.4 -272.2,277 -169.9,196.2 -313.1,417.4 -420.4,655 l -0.1,0.1 79.4,-53.9 c -92.6,6.7 -179.1,18 -268,33 -88.3,15.3 -176.3,34 -263.9,59.9 -87.5,25.5 -174.8,57.5 -259.8,103.4 -42.3,23.8 -84.2,50.2 -123.7,84.2 -39.1,34.3 -76.1,75.8 -103.5,126.8 -6.3,13.2 -13.4,25.8 -18.3,39.7 -4.8,14 -9.4,28.2 -13.6,42.3 -2.8,14.6 -5.2,29.2 -7.5,43.8 -2.3,14.7 -1.4,29.2 -1.9,43.9 -0.7,15.1 0.9,28.1 2.3,41.3 1.3,13.3 2.6,26.6 5.7,39.9 4.7,26.7 12.8,53.1 22.4,79 19.6,51.7 50.4,99.3 87,138.9 36.6,39.8 78.5,71.8 121.9,97.9 87.3,51.8 179.5,81.5 271.1,101.5 45.9,9.9 91.8,17.1 137.9,22.1 46.9,4.8 90.5,8 141.5,7.9 l -81.3,-143.8 c -78.5,129.3 -145.6,258.1 -208,392.8 -61.8,134.2 -116.8,272.3 -159.5,416.2 -21.3,72 -39.9,145.3 -52.8,220.7 -13,75.3 -22.5,152.2 -21.8,231.5 0.4,79.1 9,160.3 32.7,240.6 22.9,80.3 65.6,158.9 123.7,223.2 58.5,63.8 128.4,116.2 214.7,147.5 86,31.6 184.1,31.8 268.2,8.2 84.9,-23.1 158,-64.4 222.9,-110.7 65.1,-46.6 122,-99.4 174.6,-154.8 105.4,-110.8 193.9,-231.5 274.8,-355.8 80.9,-125.2 152.8,-251.5 219,-387.7 l -124,45.6 c 26,11.5 46.6,19 69.7,27.4 22.6,8 45.2,15.4 68,22.2 45.4,13.9 91.6,24.9 138.1,34.6 93.1,18.5 188.5,28.9 285,28.1 96.4,-0.8 194,-13 288.8,-40.1 94.8,-26.8 186.2,-68.9 268.2,-124.5 81.9,-55.5 154.8,-123.4 216.6,-198.9 15.2,-18.9 29,-38.8 43.5,-58.3 7,-9.8 14.5,-19.5 21.2,-29.5 l 18.8,-30.7 c 12.4,-20.7 25.5,-40.9 37.1,-61.8 l 32.3,-63.7 c 84.3,-171.1 133,-352.7 165.9,-533.9 l -7.7,24 c 56.2,-121.7 103.7,-241 148.4,-364.2 44.3,-122.7 83.9,-247.1 118.1,-373.6 67.1,-252.8 115.8,-514.6 108.1,-785.8 -5,-135.2 -25.1,-273.66 -76.4,-406.61 -50.4,-132.5 -137.7,-258.01 -254.8,-346.32 -116.4,-90.01 -254.7,-139.1 -390.3,-165.42 -136.5,-25.02 -272.8,-27.95 -406.1,-19.89 -51.8,3.1 -91.2,47.62 -88.1,99.41 3.1,51.8 47.6,91.25 99.4,88.09 v 0 l 0.8,-0.05 c 121.9,-7.38 243.5,-4.17 359.1,17.02 114.8,22.43 224.2,62.45 311.2,130.13 87.6,66.56 152.8,158.65 193.6,265 41.2,106.35 59.6,224.74 63.9,344.94 7.1,241.8 -37.5,489.6 -101.8,730.7 -32.6,120.8 -70.8,240.4 -113.4,358.6 -42.6,117.6 -90.1,236.3 -141.3,347.1 l -0.4,0.8 c -3.4,7.4 -5.9,15.5 -7.3,23.2 -30.5,169.1 -76,335.2 -149.7,484.2 l -28,55.6 c -10,18 -21.3,35.1 -31.8,52.8 l -16,26.2 c -5.6,8.5 -11.9,16.5 -17.8,24.7 -12.3,16.3 -23.7,33.2 -36.3,48.9 -51.3,62.5 -110.2,116.9 -175.7,161.4 -130.7,89.6 -290.4,131.9 -453.9,132.7 -81.8,0.6 -164.4,-8.3 -246,-24.5 -40.8,-8.5 -81.4,-18.1 -121.2,-30.3 -19.9,-6 -39.7,-12.4 -59.1,-19.3 -18.7,-6.6 -39.9,-14.8 -54.7,-21.3 -46.9,-20.8 -101.6,-0.6 -123.9,45.1 l -0.2,0.4 c -60,123.4 -130.8,248.3 -206.6,365.2 -76.2,117.4 -159.3,230.1 -253,328.4 -46.6,49.2 -96.1,94.7 -148.5,132 -52.1,37.4 -107.2,67.1 -161.7,81.8 -54.6,14.7 -107.1,14 -157,-3.9 -49.6,-17.6 -98.8,-53.5 -137.3,-95.7 -78.6,-84 -108.4,-208.9 -108.5,-338.7 -0.8,-65.1 7.4,-132 18.9,-198.7 11.3,-66.8 28.3,-133.6 47.9,-199.9 39.3,-132.6 91.2,-263.3 150,-391 58.7,-127.1 125.4,-254.4 196.6,-371.7 27.2,-44.7 12.9,-102.9 -31.8,-130 -15.3,-9.3 -32.7,-13.8 -49.5,-13.8 -35.7,0.2 -78.6,-2.6 -117.9,-6.8 -40.1,-4.3 -79.8,-10.6 -118.6,-18.9 -77.5,-16.8 -152,-42 -213.9,-79 -61.9,-37 -108.6,-85.3 -130.6,-143.8 -5.2,-14.9 -10.1,-30 -12.8,-46 -2.1,-7.7 -2.6,-16.1 -3.5,-24.4 -0.9,-8.3 -2.1,-16.8 -1.3,-23.4 -0.9,-28.7 5.5,-54.6 19.5,-79.9 13.6,-25.3 34.5,-50 60.4,-72.8 26.2,-22.7 57.8,-42.8 91,-61.5 67.5,-36.5 143.6,-65.1 222.3,-88 78.7,-23.2 160.4,-40.6 242.8,-54.9 81.9,-14 167.5,-24.9 247.7,-30.7 34.7,-2.6 63.7,-23.2 78.4,-52 l 1,-1.9 v -0.1 c 55.2,-109.4 113.8,-216.9 177.2,-321.8 63.6,-104.9 132.9,-206.4 207,-304.8 74.6,-97.9 153.2,-193.4 237.3,-284.3 82.9,-92.4 168.4,-182.31 249.2,-282.57 7.9,-9.64 6.5,-23.9 -3.2,-31.79 -6.9,-5.58 -16.1,-6.42 -23.7,-3.04"
           style="fill:#371a45;fill-opacity:1;fill-rule:nonzero;stroke:none"
           id="path288" /></g><path
         d="m 12061.5,7144.1 c 0,-65.3 -133.8,-122.2 -333.5,-153.5 -100.8,-15.8 -180.3,-95.2 -196.1,-196.1 -31.3,-199.7 -88.2,-333.4 -153.4,-333.4 -65.3,0 -122.2,133.7 -153.5,333.4 -15.8,100.9 -95.2,180.3 -196.1,196.1 -199.9,31.3 -333.9,88.2 -333.9,153.5 0,65.6 133.9,122.5 333.7,153.6 100.9,15.8 180.5,95.2 196.3,196.2 31.4,200 88.2,333.7 153.5,333.7 65.2,0 122.1,-133.7 153.4,-333.7 15.8,-101 95.4,-180.4 196.4,-196.2 199.6,-31.1 333.2,-88 333.2,-153.6"
         style="fill:#ffffff;fill-opacity:1;fill-rule:nonzero;stroke:none"
         id="path290" /><g
         id="g292"
         transform="scale(1.42858)"><path
           d="m 5702.84,15821.6 c 0,-45.7 -93.61,-85.5 -233.42,-107.5 -70.59,-11.1 -126.19,-66.6 -137.27,-137.2 -21.92,-139.9 -61.74,-233.4 -107.4,-233.4 -45.67,0 -85.49,93.5 -107.41,233.3 -11.07,70.7 -66.68,126.2 -137.28,137.3 -139.93,22 -233.76,61.7 -233.76,107.5 0,45.9 93.76,85.7 233.58,107.5 70.69,11 126.39,66.7 137.46,137.3 21.93,140 61.74,233.6 107.41,233.6 45.66,0 85.47,-93.6 107.4,-233.6 11.07,-70.6 66.76,-126.3 137.44,-137.3 139.72,-21.8 233.25,-61.6 233.25,-107.5"
           style="fill:#ffffff;fill-opacity:1;fill-rule:nonzero;stroke:none"
           id="path294" /></g><g
         id="g296"
         transform="scale(2.03742)"><path
           d="m 16300,9362.74 c 0,-32 -65.6,-59.93 -163.7,-75.29 -49.5,-7.76 -88.5,-46.78 -96.2,-96.25 -15.4,-98.02 -43.3,-163.69 -75.3,-163.69 -32,0 -60,65.67 -75.4,163.69 -7.7,49.47 -46.7,88.49 -96.2,96.25 -98.1,15.36 -163.9,43.29 -163.9,75.29 0,32.19 65.7,60.17 163.8,75.44 49.6,7.7 88.6,46.72 96.3,96.3 15.4,98.11 43.4,163.73 75.4,163.73 32,0 59.9,-65.62 75.3,-163.73 7.7,-49.58 46.8,-88.6 96.4,-96.3 97.9,-15.27 163.5,-43.25 163.5,-75.44"
           style="fill:#ffffff;fill-opacity:1;fill-rule:nonzero;stroke:none"
           id="path298" /></g><g
         id="g300"
         transform="scale(2.19137)"><path
           d="m 11967.5,15912 c 0,-37.1 -75.9,-69.4 -189.3,-87.1 -57.3,-9 -102.4,-54.1 -111.4,-111.4 -17.7,-113.4 -50,-189.3 -87.1,-189.3 -37,0 -69.3,75.9 -87.1,189.3 -9,57.3 -54.1,102.4 -111.3,111.4 -113.5,17.7 -189.6,50 -189.6,87.1 0,37.2 76,69.5 189.4,87.2 57.4,8.9 102.5,54.1 111.5,111.4 17.8,113.5 50.1,189.4 87.1,189.4 37,0 69.4,-75.9 87.1,-189.4 9,-57.3 54.2,-102.5 111.5,-111.4 113.3,-17.7 189.2,-50 189.2,-87.2"
           style="fill:#ffffff;fill-opacity:1;fill-rule:nonzero;stroke:none"
           id="path302" /></g><g
         id="g304"
         transform="scale(2.17958)"><path
           d="m 16300,14059.7 c 0,-55.5 -44.9,-100.4 -100.4,-100.4 -55.4,0 -100.3,44.9 -100.3,100.4 0,55.4 44.9,100.3 100.3,100.3 55.5,0 100.4,-44.9 100.4,-100.3"
           style="fill:#ffffff;fill-opacity:1;fill-rule:nonzero;stroke:none"
           id="path306" /></g><g
         id="g308"
         transform="scale(2.19697)"><path
           d="m 16300,7049.26 c 0,-54.99 -44.6,-99.59 -99.5,-99.59 -55.1,0 -99.6,44.6 -99.6,99.59 0,54.98 44.5,99.54 99.6,99.54 54.9,0 99.5,-44.56 99.5,-99.54"
           style="fill:#ffffff;fill-opacity:1;fill-rule:nonzero;stroke:none"
           id="path310" /></g><g
         id="g312"
         transform="scale(1.78328)"><path
           d="m 16300,6642.53 c 0,-67.74 -54.9,-122.7 -122.6,-122.7 -67.8,0 -122.7,54.96 -122.7,122.7 0,67.74 54.9,122.64 122.7,122.64 67.7,0 122.6,-54.9 122.6,-122.64"
           style="fill:#ffffff;fill-opacity:1;fill-rule:nonzero;stroke:none"
           id="path314" /></g><g
         id="g316"
         transform="scale(1.84679)"><path
           d="m 4270.78,16181.6 c 0,-65.5 -53.03,-118.5 -118.45,-118.5 -65.42,0 -118.45,53 -118.45,118.5 0,65.4 53.03,118.4 118.45,118.4 65.42,0 118.45,-53 118.45,-118.4"
           style="fill:#ffffff;fill-opacity:1;fill-rule:nonzero;stroke:none"
           id="path318" /></g><g
         id="g320"
         transform="scale(2.0156)"><path
           d="m 14496,16191.5 c 0,-60 -48.5,-108.6 -108.5,-108.6 -59.9,0 -108.5,48.6 -108.5,108.6 0,59.9 48.6,108.5 108.5,108.5 60,0 108.5,-48.6 108.5,-108.5"
           style="fill:#ffffff;fill-opacity:1;fill-rule:nonzero;stroke:none"
           id="path322" /></g><g
         id="g324"
         transform="scale(1.98777)"><path
           d="m 6126.02,16190 c 0,-60.8 -49.25,-110.1 -110.02,-110.1 -60.77,0 -110.08,49.3 -110.08,110.1 0,60.7 49.31,110 110.08,110 60.77,0 110.02,-49.3 110.02,-110"
           style="fill:#ffffff;fill-opacity:1;fill-rule:nonzero;stroke:none"
           id="path326" /></g><path
         d="m 6593.94,8111.1 c 0,-120.8 -97.94,-218.8 -218.75,-218.8 -120.81,0 -218.75,98 -218.75,218.8 0,120.8 97.94,218.7 218.75,218.7 120.81,0 218.75,-97.9 218.75,-218.7"
         style="fill:#ffffff;fill-opacity:1;fill-rule:nonzero;stroke:none"
         id="path328" /><g
         id="g330"
         transform="scale(1.90619)"><path
           d="m 16300,14844.4 c 0,-32.6 -26.4,-59 -59,-59 -32.6,0 -59,26.4 -59,59 0,32.7 26.4,59 59,59 32.6,0 59,-26.3 59,-59"
           style="fill:#ffffff;fill-opacity:1;fill-rule:nonzero;stroke:none"
           id="path332" /></g><g
         id="g334"
         transform="scale(1.94025)"><path
           d="m 16300,4468.8 c 0,-32.05 -26,-57.98 -58,-57.98 -32,0 -58,25.93 -58,57.98 0,32.01 26,57.98 58,57.98 32,0 58,-25.97 58,-57.98"
           style="fill:#ffffff;fill-opacity:1;fill-rule:nonzero;stroke:none"
           id="path336" /></g><g
         id="g338"
         transform="scale(1.19508)"><path
           d="m 16300,7395.16 c 0,-51.97 -42.2,-94.14 -94.1,-94.14 -52.1,0 -94.2,42.17 -94.2,94.14 0,52.04 42.1,94.13 94.2,94.13 51.9,0 94.1,-42.09 94.1,-94.13"
           style="fill:#ffffff;fill-opacity:1;fill-rule:nonzero;stroke:none"
           id="path340" /></g><g
         id="g342"
         transform="scale(2.13999)"><path
           d="m 4420.31,16247.4 c 0,-29 -23.54,-52.5 -52.57,-52.5 -29.03,0 -52.57,23.5 -52.57,52.5 0,29.1 23.54,52.6 52.57,52.6 29.03,0 52.57,-23.5 52.57,-52.6"
           style="fill:#ffffff;fill-opacity:1;fill-rule:nonzero;stroke:none"
           id="path344" /></g><g
         id="g346"
         transform="scale(1.59812)"><path
           d="m 3288.53,16229.6 c 0,-38.9 -31.52,-70.4 -70.4,-70.4 -38.87,0 -70.39,31.5 -70.39,70.4 0,38.9 31.52,70.4 70.39,70.4 38.88,0 70.4,-31.5 70.4,-70.4"
           style="fill:#ffffff;fill-opacity:1;fill-rule:nonzero;stroke:none"
           id="path348" /></g><path
         d="m 7752.8,11278.2 c 0,-62.1 -50.36,-112.5 -112.5,-112.5 -62.13,0 -112.5,50.4 -112.5,112.5 0,62.1 50.37,112.5 112.5,112.5 62.14,0 112.5,-50.4 112.5,-112.5"
         style="fill:#ffffff;fill-opacity:1;fill-rule:nonzero;stroke:none"
         id="path350" /><g
         id="g352"
         transform="scale(2.06583)"><path
           d="m 16300,6292.52 c 0,-30.06 -24.4,-54.46 -54.5,-54.46 -30,0 -54.4,24.4 -54.4,54.46 0,30.06 24.4,54.46 54.4,54.46 30.1,0 54.5,-24.4 54.5,-54.46"
           style="fill:#ffffff;fill-opacity:1;fill-rule:nonzero;stroke:none"
           id="path354" /></g></g><path
       d="m 1074.8909,2776.4345 c -32.0094,-7.5021 -60.471,-5.6908 -85.33181,5.495 -24.8873,11.1735 -40.9252,29.8613 -48.1668,56.0879 -7.0157,25.3699 -2.4582,49.1366 13.6727,71.2389 16.1309,22.1023 39.7825,36.8004 70.91491,44.1067 31.1059,7.3062 59.0759,4.6995 83.8303,-7.808 24.7678,-12.5198 40.6595,-31.4769 47.6886,-56.859 7.2549,-26.2265 3.2819,-49.6016 -11.8524,-70.1619 -15.161,-20.5602 -38.7328,-34.5853 -70.7555,-42.0996 z m -165.05621,237.3487 -17.9912,65.1197 c -11.3341,40.9493 -15.2406,76.4402 -11.6929,106.5096 3.5079,30.0327 11.2279,56.9201 23.1467,80.6623 11.9055,23.7177 24.595,45.4407 38.0817,65.1809 18.3632,26.1042 34.1088,51.3885 47.2235,75.8405 13.12791,24.4398 15.16091,53.0528 6.0989,85.8146 -4.9695,18.0147 -14.0714,32.0275 -27.2392,42.0262 -13.1944,9.9864 -27.6245,16.8398 -43.3435,20.5847 -15.7058,3.7082 -30.2289,4.0264 -43.5695,0.8934 -25.80411,-6.0457 -45.82831,-16.6317 -60.09891,-31.7583 -14.2973,-15.1264 -24.6216,-32.5904 -30.973,-52.4041 -6.3779,-19.8138 -10.9488,-40.0681 -13.7392,-60.7875 l -36.341,-8.5178 -135.3988,38.8932 c 1.2357,15.9954 5.3814,37.0207 12.3706,63.0882 7.0158,26.043 19.5458,53.4077 37.6831,82.1065 18.0975,28.6497 43.4631,55.0966 76.0837,79.3283 32.5808,24.2073 74.6885,42.3811 126.2703,54.4725 50.69151,11.8955 98.45971,14.588 143.35791,8.1139 44.87161,-6.4862 83.91001,-23.4974 117.08871,-51.0457 33.1919,-27.5361 57.2554,-68.3385 72.2038,-122.3948 12.4503,-45.0613 15.8651,-83.0855 10.218,-114.0483 -5.6339,-30.9872 -15.5862,-58.4009 -29.8169,-82.2288 -14.2575,-23.8402 -28.5547,-47.4722 -42.9051,-70.8962 -11.2811,-17.4885 -21.4858,-36.2253 -30.6142,-56.247 -9.1551,-20.0218 -14.6693,-42.0262 -16.5428,-66.0254 -1.9001,-23.9869 1.4616,-51.5597 10.0718,-82.6816 l 7.1354,-25.7983 -186.76791,-43.8007"
       style="fill:#34495e;fill-opacity:1;fill-rule:nonzero;stroke:none;stroke-width:1.27521"
       id="path122" /><path
       d="m 1038.5631,2767.9167 c -32.0226,-7.5143 -60.47101,-5.6908 -85.33171,5.495 -24.8873,11.1735 -40.9253,29.8491 -48.1669,56.0757 -7.029,25.3821 -2.4715,49.1366 13.6728,71.2511 16.1309,22.09 39.7692,36.8004 70.9016,44.1066 31.11911,7.294 59.07581,4.6873 83.84351,-7.8202 24.7678,-12.5075 40.6596,-31.4646 47.6753,-56.8467 7.2549,-26.2266 3.2952,-49.6016 -11.8524,-70.1619 -15.1609,-20.5603 -38.7328,-34.5976 -70.7422,-42.0996 z m -165.05621,237.3487 -18.00441,65.1075 c -11.3209,40.9614 -15.2274,76.4402 -11.693,106.5218 3.5212,30.0326 11.2412,56.9201 23.16001,80.6501 11.9055,23.7299 24.5817,45.4528 38.0817,65.1931 18.3632,26.0919 34.0822,51.3762 47.2102,75.8405 13.1412,24.4398 15.1609,53.0406 6.0989,85.8146 -4.9695,18.0147 -14.0581,32.0275 -27.2259,42.0262 -13.1944,9.9864 -27.6245,16.8398 -43.3435,20.5725 -15.719,3.7204 -30.22891,4.0386 -43.56941,0.9056 -25.8175,-6.0579 -45.8416,-16.6318 -60.1123,-31.7582 -14.284,-15.1266 -24.6083,-32.6028 -30.973,-52.4043 -6.3646,-19.8137 -10.9355,-40.068 -13.7391,-60.7874 l -171.7532,30.3754 c 1.2624,15.9831 5.3948,37.0207 12.3972,63.0759 7.0025,26.0553 19.5458,53.42 37.6831,82.1065 18.0975,28.662 43.4498,55.1088 76.0572,79.3406 32.594,24.195 74.6885,42.3811 126.2835,54.4724 50.70481,11.8956 98.45981,14.588 143.35791,8.114 44.87161,-6.4863 83.92331,-23.4975 117.10201,-51.0457 33.192,-27.5361 57.2422,-68.3385 72.1905,-122.3948 12.4636,-45.0613 15.8785,-83.0855 10.2313,-114.0483 -5.6471,-30.9873 -15.5994,-58.4132 -29.8303,-82.2288 -14.2441,-23.8524 -28.5546,-47.4845 -42.905,-70.8962 -11.2678,-17.4885 -21.4725,-36.2375 -30.6009,-56.247 -9.1683,-20.034 -14.6693,-42.0385 -16.5428,-66.0254 -1.9001,-23.987 1.4616,-51.5598 10.0585,-82.6816 l 7.1354,-25.7983 -186.75461,-43.8007"
       style="fill:#41b883;fill-opacity:1;fill-rule:nonzero;stroke:none;stroke-width:1.27521"
       id="path124-3" /></g></svg>
