<?xml version="1.0" encoding="UTF-8" standalone="no"?>
<svg
   xmlns:dc="http://purl.org/dc/elements/1.1/"
   xmlns:cc="http://creativecommons.org/ns#"
   xmlns:rdf="http://www.w3.org/1999/02/22-rdf-syntax-ns#"
   xmlns:svg="http://www.w3.org/2000/svg"
   xmlns="http://www.w3.org/2000/svg"
   xmlns:sodipodi="http://sodipodi.sourceforge.net/DTD/sodipodi-0.dtd"
   xmlns:inkscape="http://www.inkscape.org/namespaces/inkscape"
   version="1.1"
   id="svg2"
   xml:space="preserve"
   width="5333.3335"
   height="5333.3335"
   viewBox="0 0 5333.3335 5333.3335"
   sodipodi:docname="astronaut.svg"
   inkscape:version="1.0.2 (394de47547, 2021-03-26)"><metadata
     id="metadata8"><rdf:RDF><cc:Work
         rdf:about=""><dc:format>image/svg+xml</dc:format><dc:type
           rdf:resource="http://purl.org/dc/dcmitype/StillImage" /><dc:title></dc:title></cc:Work></rdf:RDF></metadata><defs
     id="defs6" /><sodipodi:namedview
     pagecolor="#ffffff"
     bordercolor="#666666"
     borderopacity="1"
     objecttolerance="10"
     gridtolerance="10"
     guidetolerance="10"
     inkscape:pageopacity="0"
     inkscape:pageshadow="2"
     inkscape:window-width="1848"
     inkscape:window-height="1016"
     id="namedview4"
     showgrid="false"
     inkscape:zoom="0.161625"
     inkscape:cx="1416.3213"
     inkscape:cy="2104.1168"
     inkscape:window-x="0"
     inkscape:window-y="27"
     inkscape:window-maximized="1"
     inkscape:current-layer="g12" /><g
     id="g10"
     inkscape:groupmode="layer"
     inkscape:label="ink_ext_XXXXXX"
     transform="matrix(1.3333333,0,0,-1.3333333,0,5333.3333)"><g
       id="g12"
       transform="scale(0.1)"><g
         id="g18"
         transform="scale(2.18018)"><path
           d="m 10214.9,15267.4 c -82.3,-277.5 -332.59,-480.1 -672.33,-362.1 -360.52,125.3 -298.09,539.6 -114.72,555.2 3.49,0.4 7.02,0.6 10.69,0.6 132.84,0 66.92,-210.6 241.13,-227.7 93.52,-9.4 169.21,80.7 185.35,197.6 12.8,91.9 -11.28,200.6 -92.79,291.1 -145.26,161.2 -699.07,122.5 -737.37,-250.1 -38.53,-372.6 221.86,-1173.4 221.86,-1173.4 0,0 -510.28,-367.1 -878,-117.6 0,0 148.02,111.8 193.88,632.5 1.56,18.5 2.94,37.8 4.08,57.4 29.96,531.1 -108.88,1429.1 919.84,1320.8 645.78,-67.9 826.48,-560.5 718.38,-924.3"
           style="fill:#56aa37;fill-opacity:1;fill-rule:nonzero;stroke:none"
           id="path20" /></g><g
         id="g22"
         transform="scale(2.15771)"><path
           d="m 8757.94,15622.8 c 21.88,212.8 75.78,410.3 216.44,535.1 107.24,95.2 257.03,142.1 455.39,142.1 49.68,0 102.51,-3 158.41,-8.8 284.65,-30 451.02,-141.7 548.02,-256.5 -118.7,92.8 -280.43,159.6 -491.11,181.8 -58.12,6.1 -112.67,9 -163.65,9 -492.14,0 -662.46,-273.6 -723.5,-602.7"
           style="fill:#abd59b;fill-opacity:1;fill-rule:nonzero;stroke:none"
           id="path24" /></g><g
         id="g26"
         transform="scale(2.13553)"><path
           d="m 8983.66,14927.8 c -53.28,0 -115.05,2.9 -183.89,7.5 8.67,54.8 16.21,115.2 22.06,181.7 0.23,2.8 0.47,5.6 0.7,8.4 63.41,-46.7 126.76,-73.2 181.41,-73.2 7.16,0 14.19,0.4 21.07,1.3 140.34,19.5 103.44,410.6 48.42,697.3 -59.56,309.9 274.36,493.7 455.02,535.8 37.13,8.6 83.82,13.4 134.76,13.4 197.14,0 458.69,-71.7 481.69,-271.7 5.9,-50.6 1.6,-96.7 -9.1,-138.2 -14.9,70.8 -48.6,142.7 -107.1,207.7 -66.92,74.3 -194.05,115.1 -331.68,115.1 -70.85,0 -144.46,-10.8 -214,-33.5 -190.96,-62.3 -310.97,-199.6 -329.24,-376.8 -23.22,-225 52.78,-586.5 123.58,-859.1 -113.83,-9.1 -213.48,-15.7 -293.7,-15.7"
           style="fill:#4b783c;fill-opacity:1;fill-rule:nonzero;stroke:none"
           id="path28" /></g><g
         id="g30"
         transform="scale(2.05843)"><path
           d="m 10309.3,15823.8 c -57,0 -117,10.6 -178.5,31.9 -183.09,63.6 -244.84,211.9 -224.78,330.7 8.26,49 34.16,101.3 73.26,113.6 -2.38,-111.9 27.02,-275.6 212.92,-344.4 50.9,-18.9 104.2,-27.6 157.7,-27.6 115.7,0 232.4,40.7 328.8,107.2 -19.8,-30.8 -42.4,-59.4 -67.8,-85 -83,-83.6 -186.6,-126.4 -301.6,-126.4"
           style="fill:#4b783c;fill-opacity:1;fill-rule:nonzero;stroke:none"
           id="path32" /></g><g
         id="g34"
         transform="scale(2.1793)"><path
           d="m 8486.07,14207.4 c 258.89,-114.9 580.37,56.9 692.93,126.2 -57.13,184.5 -243.34,819.6 -209.06,1151.6 17.89,173.7 135.5,308.2 322.63,369.3 200.57,65.3 435.41,30.2 534.71,-80 136.51,-151.6 135.64,-342 74.24,-463.4 -48.91,-96.8 -132.7,-149.4 -224.7,-140.1 -133.94,13.2 -173.54,113.2 -197.18,173 -21.56,54.5 -25.55,54.5 -37.35,54.5 -46.16,0 -76.76,-56.9 -85.67,-109.8 -18.95,-112.2 39.37,-252.3 212.27,-312.3 175.06,-60.8 336.12,-29.1 453.51,89.2 148.6,149.8 198.2,406.3 120.6,623.9 -51.4,144.3 -204.17,393.3 -649.82,440.3 -276.14,29 -474.92,-14.1 -607.72,-132 -220.3,-195.5 -225.71,-570.9 -230.44,-902 -1.47,-101.2 -2.8,-196.8 -10.37,-282.4 -30.05,-340.8 -104.11,-518.4 -158.58,-606 m 193.27,-177 c -113.06,0 -228.97,26.8 -335.79,99.4 l -85.45,58 81.64,53.2 c 11.33,11.1 128.16,135.5 167.8,584.5 7.07,80.5 8.45,173.7 9.82,272.2 4.91,341.9 11.02,767.3 276.74,1003.1 163.36,144.9 396.78,199.2 713.49,165.9 380.26,-40.1 659.11,-233.6 765.11,-531 94.7,-265.6 31.9,-581 -152.6,-767 -154.43,-155.8 -371.79,-200.3 -596.31,-122.4 -248.89,86.4 -331.49,296 -302.94,465.3 22.66,134.3 111.68,224.6 221.44,224.6 109.4,0 144.45,-88.6 165.38,-141.6 24.41,-61.7 36.2,-82.1 82.69,-86.7 48.82,-4.8 79.97,48.8 88.33,65.3 38.91,77 38.72,206.5 -53.69,309.1 -55.43,61.6 -229.11,93.6 -389.76,41.3 -78.19,-25.5 -211.86,-92.2 -228.38,-252.5 -36.52,-354 216.4,-1137.5 218.97,-1145.4 l 15.51,-47.8 -40.74,-29.3 c -16.52,-11.9 -307.95,-218.2 -621.26,-218.2"
           style="fill:#371a45;fill-opacity:1;fill-rule:nonzero;stroke:none"
           id="path36" /></g><g
         id="g38"
         transform="scale(1.50056)"><path
           d="m 10754.5,7149.74 h 4113.8 c 787.4,0 1431.7,644.29 1431.7,1431.66 v 4417.8 c 0,787.5 -644.3,1431.8 -1431.7,1431.8 h -4113.8 c -787.48,0 -1431.77,-644.3 -1431.77,-1431.8 V 8581.4 c 0,-787.37 644.29,-1431.66 1431.77,-1431.66"
           style="fill:#ffffff;fill-opacity:1;fill-rule:nonzero;stroke:none"
           id="path40" /></g><g
         id="g42"
         transform="scale(1.52137)"><path
           d="m 14665,14456.5 h -4057.6 c -901.66,0 -1635.08,-733.5 -1635.08,-1635 V 8464.03 c 0,-901.56 733.42,-1634.98 1635.08,-1634.98 H 14665 c 901.5,0 1635,733.42 1635,1634.98 v 4357.47 c 0,901.5 -733.5,1635 -1635,1635 m 0,-222.9 c 776.6,0 1412,-635.5 1412,-1412.1 V 8464.03 c 0,-776.61 -635.4,-1412.09 -1412,-1412.09 h -4057.6 c -776.71,0 -1412.19,635.48 -1412.19,1412.09 v 4357.47 c 0,776.6 635.48,1412.1 1412.19,1412.1 H 14665"
           style="fill:#371a45;fill-opacity:1;fill-rule:nonzero;stroke:none"
           id="path44" /></g><g
         id="g46"
         transform="scale(1.30055)"><path
           d="m 11376.5,13597.2 c -67.5,-172.4 -105.3,-307.7 -85.8,-360.5 2.3,-6.2 5.6,-11.4 9.5,-15.3 255.6,-249.1 454.1,-555.9 584.8,-893.6 443.7,-1148.4 158.1,-2368.57 -129.4,-2678.21 -176,-199.53 -489.6,-357.3 -856.3,-442.42 -524.9,-121.57 -1157.9,-93.89 -1648.23,173.77 -932.99,509.55 -444.27,1430.06 359.54,1379.56 0,0 -914.38,869.4 -762.14,1958.6 123.87,887.3 870.09,1920.6 2159.73,2748 488.6,313.6 1055.1,597.5 1695.4,832.9 l -416.6,-520.9 -234.4,-779.5 -15.9,-52.5 c 0,0 -119.7,-218 -263.5,-499.7 -138.2,-270.6 -298.9,-599.8 -396.7,-850.2"
           style="fill:#ffffff;fill-opacity:1;fill-rule:nonzero;stroke:none"
           id="path48" /></g><g
         id="g50"
         transform="scale(1.02229)"><path
           d="m 11263.1,15359.1 c -57.2,0 -111.5,33.5 -135.2,89.4 -31.6,74.6 3.2,160.8 77.7,192.4 1552.8,659.1 3454,449 4229.5,43.9 71.8,-37.5 99.6,-126.2 62.1,-198 -37.6,-71.8 -126.2,-99.5 -198.1,-62.1 -723.9,378.2 -2509.4,569.8 -3978.8,-53.9 -18.7,-8 -38.2,-11.7 -57.2,-11.7"
           style="fill:#371a45;fill-opacity:1;fill-rule:nonzero;stroke:none"
           id="path52" /></g><g
         id="g54"
         transform="scale(1.13855)"><path
           d="m 12825.9,15377.6 c -10.5,7.7 -21.1,15.5 -31.9,23 -97.9,68.5 -200.8,130 -311.1,175.9 -49.1,21.9 -99.2,41.2 -150.5,57.4 90,163.8 407.3,454.6 733.2,666.1 -89,-305 -168.3,-612.7 -239.7,-922.4"
           style="fill:#b9afbe;fill-opacity:1;fill-rule:nonzero;stroke:none"
           id="path56" /></g><path
         d="m 13379.9,12054.7 c -347.5,0 -693.8,54.5 -1011.6,177.3 -111.6,42.8 -220.5,94 -320.4,155.5 -100.3,60.6 -193.8,129.4 -272.7,208.3 -158.7,156.8 -250.9,358.3 -232.9,558 16,199.5 140.8,389.8 319.2,509.4 159.2,108.4 355.6,164.5 555.2,164.5 19.6,0 39.4,-0.6 59,-1.7 -226.3,-92.7 -830,-281.1 -621.8,-741.2 147.7,-326.4 1089.6,-488.2 1322,-502.4 69.6,-4.3 139.1,-6.4 208.6,-6.4 210.6,0.1 419.6,19.2 619.3,54.8 -2.5,-172.9 -3.5,-345.9 -1.8,-518.9 -65,-12.1 -130.5,-22.3 -196.1,-30.7 -141,-17.3 -283.6,-26.5 -426,-26.5"
         style="fill:#b9afbe;fill-opacity:1;fill-rule:nonzero;stroke:none"
         id="path58" /><g
         id="g60"
         transform="scale(1.02763)"><path
           d="m 13358.6,13092.3 c -290.7,170.5 -562.2,287.7 -807.7,361.6 l -274,283.9 c -423.3,438.5 -769.8,1005.4 -889.4,1604.3 99.7,38.7 200.6,73.8 302.4,105.6 577.1,-1284.6 1668.7,-2355.4 1668.7,-2355.4 m -2011.1,2546.8 c -2.9,44.1 -4.5,88.3 -4.8,132.6 -1.7,176.1 20.8,353.3 61.7,528.3 41,-195.5 100.5,-390.5 173.3,-582 -77.2,-24.4 -154.1,-50.7 -230.2,-78.9"
           style="fill:#b9afbe;fill-opacity:1;fill-rule:nonzero;stroke:none"
           id="path62" /></g><path
         d="m 11702.2,15766 c -20.2,101 -34.1,202.9 -41.1,305.2 78.2,29 157.2,56 236.5,81.1 35.6,-93.5 74.2,-186.1 115.3,-277.8 -104.6,-32.6 -208.3,-68.7 -310.7,-108.5"
         style="fill:#371a45;fill-opacity:1;fill-rule:nonzero;stroke:none"
         id="path64" /><g
         id="g66"
         transform="scale(1.30413)"><path
           d="m 12683.7,16214.7 c -68.2,-43.9 -138.3,-81.9 -208,-120.4 l -104.2,-57.6 c -35,-18.6 -70.3,-36.3 -104.8,-55.6 -139.1,-75.1 -279,-146.3 -417.9,-219.1 -277.2,-146.7 -550.1,-299.7 -815.5,-465 -265,-165.7 -517.5,-351.1 -754.2,-553.9 -234.6,-205 -454.92,-426 -648.76,-667.3 -194,-240.7 -362.93,-501.1 -487.99,-779.2 -124.38,-276.9 -207.34,-574.7 -204.51,-868.8 3.68,-593.1 323.51,-1175.2 736.13,-1602.6 l 238.09,-246.7 -335.86,22.6 c -171.69,11.7 -344.21,-31.1 -480.86,-124.2 -136.79,-91.7 -232.49,-237.7 -244.76,-390.6 -13.8,-153.15 56.9,-307.66 178.59,-427.9 60.5,-60.5 132.2,-113.25 209.11,-159.72 76.6,-47.16 160.1,-86.42 245.68,-119.24 343.6,-132.73 730.34,-161.41 1102.34,-115.63 186.1,23.92 370.5,66.48 543.5,132.81 172.1,65.87 336.6,155.27 459.4,273.82 14.2,15.57 31.1,31.44 43.2,46.93 l 36.2,46 c 20.9,37.2 45.1,70.55 62.8,112.88 l 28.6,60.57 24.4,64.38 c 17.5,42.2 30.7,87.1 44.3,131.7 53.3,179 86.4,366.8 105.7,555.6 20.1,189.1 19.2,380.3 9.1,570.2 l -11.7,142.2 c -4.1,47.4 -12.7,94.3 -18.7,141.4 -10.5,94.7 -34.1,186.8 -51.8,280.2 -46.7,183.2 -101.6,367.1 -177.6,538 -37.2,86.1 -81.9,168.6 -129.2,249.3 -48.9,79.8 -103.3,155.9 -160.8,229.1 -117.6,144.8 -246.3,278.4 -385.4,402.6 -138.9,124.9 -287.1,239.5 -442.6,365.6 l -0.3,0.1 c -19.2,15.7 -22.2,44 -6.5,63.3 10.1,12.7 26,18.3 41,16.2 103.6,-14.4 203.4,-45.6 298,-87.9 96.3,-40.1 186.2,-93.8 271.7,-153.6 85.3,-60.2 164.3,-129 238.8,-202.3 73.6,-74.1 140.6,-154.4 202.6,-238.1 121.7,-169.1 225.6,-349.7 310.4,-538.7 84.2,-190 142.7,-385.7 193.1,-584.5 19.3,-100.4 44.4,-199.9 55.9,-301.6 6.5,-50.7 15.5,-101.1 20,-152 l 12.6,-152.7 c 11,-203.8 11.7,-408.5 -9.7,-612.1 -20.9,-203.5 -56.3,-405.9 -115.6,-605.2 -15.1,-49.8 -29.9,-99.63 -50,-148.78 l -28.2,-73.84 -34.5,-73.31 c -20.7,-48.84 -53.1,-97.15 -81.5,-145.15 l -55.1,-70.47 c -18.7,-23 -37.9,-41.1 -57.1,-61.65 -162.6,-156.04 -354,-255.73 -548.8,-331.26 -195.7,-74.84 -398.6,-121.38 -603.6,-147.76 -205.1,-26.07 -412.9,-29.52 -619.58,-9.89 -206.42,20.55 -412.38,64.49 -609.14,140.94 -98.46,37.95 -194.39,82.89 -285.94,138.94 -91.79,55.44 -180.35,120.08 -259.49,199.29 -78.9,78.9 -148.22,173.37 -194.68,282.18 -46.16,108.27 -70.09,230.73 -58.59,351.16 10.89,120.2 50.99,237 115.33,335.7 63.41,99.2 146.53,183.6 241.84,247.6 190.25,129.6 422.2,183.8 643.89,169 l -97.77,-224 c -33.97,33.1 -60.66,61.9 -89.41,93.5 -27.84,31.2 -55.21,62.5 -81.51,94.6 -52.99,64 -103.29,129.9 -151.06,197.7 -95.7,135.3 -180.96,278.5 -254.12,428.5 -144.54,299.8 -240.31,632.9 -240.92,975.3 -2.46,344.8 92.09,674.7 227.35,976.9 136.41,303.1 317.46,580.9 522.65,835.7 411.69,510.7 918.75,928.1 1456.55,1288.7 270.2,179.2 553.8,337.9 848.2,471.6 146.7,67.9 297.1,127.6 450.5,178.4 76.9,24.9 154.7,47.3 232.7,68.4 78.8,19 157.7,37.1 238.1,50.1 24.1,3.9 46.8,-12.5 50.6,-36.6 2.9,-17.9 -5.3,-34.9 -19.6,-44.2 l -1.1,-0.6"
           style="fill:#371a45;fill-opacity:1;fill-rule:nonzero;stroke:none"
           id="path68" /></g><path
         d="m 12528.2,14186 c 111.3,-75.4 233.4,-150.6 353.9,-221.3 121.2,-71.2 244.5,-139.4 369.6,-204.3 124.9,-65.3 251.6,-127.3 380.1,-185.4 128.1,-59.3 258.8,-112 390.3,-163.5 l 1.7,-0.7 c 44.2,-17.4 66,-67.3 48.7,-111.5 -16.3,-41.5 -61.5,-63.2 -103.5,-51.4 -139.5,39.4 -278.9,80.6 -415.9,128.4 -137.5,46.6 -273.5,97.5 -408.1,151.9 -134.9,54.1 -268.3,111.7 -400.5,172.8 -132.9,61.7 -261.4,124.1 -394.8,196.6 -82.4,44.8 -112.9,147.9 -68.2,230.3 44.8,82.4 147.9,112.9 230.4,68.2 4.8,-2.6 9.5,-5.5 13.9,-8.5 l 2.4,-1.6"
         style="fill:#371a45;fill-opacity:1;fill-rule:nonzero;stroke:none"
         id="path70" /><path
         d="m 13040.9,13769 c 86.8,-40.3 162.7,-96.8 231.8,-163.7 67.9,-68.1 130.8,-147 166.8,-256.1 17.1,-53.9 24.9,-120.8 6.4,-188.1 -8.1,-33.8 -25,-65 -44.2,-92.8 -20.8,-26.2 -44.1,-48.6 -69.2,-65.4 -50,-34.3 -102.5,-49.9 -153,-56.6 -50.7,-7.2 -100.5,-3.4 -149.3,8.9 -16.3,4 -26.2,20.5 -22.1,36.8 1.7,6.9 5.6,12.6 10.7,16.6 l 0.9,0.7 c 75.3,59 148.7,102.5 187.7,147.9 19.8,22.3 28.5,39.8 33.1,58.4 4.1,18.7 4.7,43.7 -4.1,74.4 -16,61.6 -56.1,132.2 -101,200.2 -45.3,68.7 -97.9,136.1 -151.2,205 l -1.1,1.4 c -16.1,20.9 -12.3,50.8 8.6,66.9 14.5,11.3 33.6,12.7 49.2,5.5"
         style="fill:#371a45;fill-opacity:1;fill-rule:nonzero;stroke:none"
         id="path72" /><g
         id="g74"
         transform="scale(1.67683)"><path
           d="m 16300,10952.6 -2270.5,-295.8 -902.3,-117.6 c 0,0 -80.7,331 -151,737.8 -10.9,62.9 -21.5,127.4 -31.6,192.9 -40.5,262.2 -71.3,538.5 -71.5,768.4 -0.3,330.4 63.2,565 254.5,523.6 537.8,-117.1 882.2,-323.7 1206.3,-570.7 48.9,-37.1 97.1,-75.3 145.6,-114 444.3,-356.5 899.1,-775.1 1820.5,-1124.6"
           style="fill:#ffffff;fill-opacity:1;fill-rule:nonzero;stroke:none"
           id="path76" /></g><g
         id="g78"
         transform="scale(1.71927)"><path
           d="m 12762.5,12352.9 c -16.9,0 -25.1,-6.6 -32.5,-14.2 -173.7,-178.1 -22.5,-1218 148.5,-1950.2 l 2641.1,344.1 c -607.8,276.1 -983.3,582 -1320.5,856.7 -407.1,331.7 -758.7,618.1 -1416.5,761.2 -7.8,1.7 -14.4,2.4 -20.1,2.4 m -34.2,-2182.9 -21,85.8 c -1.1,4.6 -112.9,465.3 -186.2,957.6 -138.1,928.3 -27.5,1165.4 67.7,1263.1 61.2,62.8 145,86.4 235.8,66.7 703.8,-153 1090.1,-467.7 1499.2,-800.9 384.8,-313.6 820.9,-668.9 1608.8,-967.7 l 367.4,-139.2 -3571.7,-465.4"
           style="fill:#371a45;fill-opacity:1;fill-rule:nonzero;stroke:none"
           id="path80" /></g><g
         id="g82"
         transform="scale(1.53281)"><path
           d="m 16235.5,3501.15 c -1.6,-17.16 -4.1,-34.31 -7.5,-50.62 -89.5,-506.46 -711.3,-687.3 -1830.4,-547.62 -506.7,62.76 -1207.3,137.45 -1392.1,522.43 -369,768.14 7.5,2322.54 -36.2,3318.55 v 1.63 c 0,0 -203.6,-23.74 -456.1,-23.74 -252.8,0 -456.4,23.74 -456.4,23.74 -0.2,-8.02 -0.5,-15.98 -0.8,-24.33 -37.4,-996.54 330.5,-2533.52 -35.4,-3295.85 -184.8,-384.98 -885.1,-459.67 -1392.1,-522.43 -1120.47,-139.68 -1742.27,41.42 -1831.06,548.99 -2.74,16.31 -5.22,32.68 -7.18,49.25 -64.39,618.47 840.29,905.86 840.29,905.86 0,0 -197.22,1312.68 -327.5,2497.04 -32.89,297.89 -50.3,601.84 -55.26,908.01 -3.92,205.5 -1.7,411.86 5.22,617.95 0.26,4.96 0.26,9.92 0.58,14.94 10.51,316.93 32.62,632.56 62.5,942.32 6.33,64.72 12.99,129.17 20.16,193.04 63.61,581.69 154.1,1138.19 251.7,1637.69 18.53,94.9 37.38,187.9 56.17,278.5 2.74,13.6 5.54,27.2 8.54,40.4 88.54,422.4 178.96,793.3 256.99,1090 16.3,61.8 32.09,120.4 47.03,175.4 1.37,5 2.74,10.3 4.11,15.3 0.59,2.1 1.11,4.3 1.96,6.6 97.05,356.5 164.25,564 164.25,564 h 4772 c 0,0 67.6,-208.6 164.9,-566.3 0.9,-2.4 1.4,-5.2 2.2,-7.7 58.1,-212.4 126.4,-477.1 197.5,-781.3 27.7,-119 55.8,-244.3 84.1,-374.8 130.3,-603 259.5,-1320.7 341.9,-2080.52 6.9,-61.14 13.3,-122.53 19.3,-184.24 30.7,-312.24 52.9,-630.61 63.4,-950.35 0.8,-15.2 1.1,-30.73 1.6,-45.93 2.8,-92.11 4.7,-184.17 5.6,-276.55 3.8,-409.64 -13,-818.76 -56.7,-1216.46 -130.1,-1184.36 -327.3,-2497.04 -327.3,-2497.04 0,0 904.5,-287.39 840,-905.86"
           style="fill:#ffffff;fill-opacity:1;fill-rule:nonzero;stroke:none"
           id="path84" /></g><g
         id="g86"
         transform="scale(1.13556)"><path
           d="m 13459.5,4006.57 c -88.4,0 -176.4,2.38 -263.9,7.58 -225.2,13.91 -448.6,46.93 -649.3,118.97 -201,70.8 -371.8,189.86 -458.9,356.92 -18.3,35.49 -33.5,73.35 -45.5,112.72 406.9,-125.49 892.5,-182.2 1375.6,-182.2 1010.8,0 2010.2,248.15 2251.6,633.43 483.3,770.99 561.7,1541.53 -190,2502.12 -751.3,960.14 -809.5,2214.06 -809.5,2214.06 0.1,-0.09 0.2,-0.18 0.3,-0.26 0,0 -0.1,0 -0.1,0.08 96,-117.2 208.5,-219.53 330.9,-306.45 60.1,-45.62 124.4,-84.19 188.7,-123.38 65.7,-35.84 131.5,-72.47 199.2,-105.06 135,-66.39 274.4,-123.55 417.3,-171.1 71.8,-22.72 143.8,-45 217.3,-62.61 33,-8.1 65.5,-15.5 98.5,-22.11 -7.5,-438.81 29.6,-868.29 65.1,-1295.13 40.4,-469.55 85.9,-935.84 103.9,-1399.58 8.2,-231.6 9.3,-462.5 -4.1,-690.32 -8,-113.51 -17.3,-226.94 -34.9,-337.63 -7.2,-55.92 -19.2,-110.08 -29.1,-164.94 -13.2,-53.45 -24.1,-108.05 -40.8,-159.83 -14.1,-53.1 -33.6,-103.12 -51.7,-153.85 l -31.9,-73.09 c -5.2,-13.03 -10.7,-23.25 -16,-32.67 -5.4,-9.78 -9.9,-19.99 -16.6,-29.15 -47.3,-76.61 -119.1,-143.37 -204.7,-198.85 -172.3,-111.39 -387.9,-180.79 -607.1,-232.3 -220.5,-51.52 -449.1,-84.98 -680.3,-114.84 -233.2,-29.23 -463,-59.44 -692.7,-74.58 -140.7,-10.05 -281.4,-15.95 -421.3,-15.95"
           style="fill:#b9afbe;fill-opacity:1;fill-rule:nonzero;stroke:none"
           id="path88" /></g><g
         id="g90"
         transform="scale(1.5148)"><path
           d="m 15233.7,3003.5 c -104.9,0 -210.4,4.43 -315.9,11.95 -172.1,11.36 -344.4,34 -519.2,55.92 -173.3,22.38 -344.7,47.46 -510,86.08 -164.3,38.62 -325.9,90.64 -455.1,174.15 -64.2,41.59 -118,91.63 -153.4,149.06 -5.1,6.87 -8.5,14.53 -12.5,21.85 -4,7.07 -8.1,14.72 -12,24.5 l -23.9,54.79 c -13.6,38.02 -28.2,75.52 -38.8,115.33 -12.5,38.81 -20.6,79.75 -30.5,119.81 -7.4,41.13 -16.5,81.73 -21.8,123.65 -13.3,82.98 -20.3,168.01 -26.3,253.11 -10,170.78 -9.2,343.87 -3,517.49 13.5,347.64 47.6,697.19 77.9,1049.18 26.6,320.11 54.4,642.27 48.8,971.35 24,4.82 47.5,10.24 71.5,16.11 55.1,13.21 109.2,29.91 162.9,46.94 107.2,35.65 211.7,78.49 312.8,128.27 50.8,24.42 100.1,51.89 149.4,78.75 48.2,29.38 96.4,58.3 141.5,92.49 91.7,65.16 176.1,141.87 248.1,229.73 -0.1,0 -0.1,-0.06 -0.2,-0.06 0.1,0.06 0.2,0.13 0.3,0.2 0,0 154.2,-675.87 -502.1,-1599.56 -529.4,-745.38 -568,-1338.33 -205.7,-1916.03 172.8,-275.61 920.2,-442.04 1701.5,-442.04 335.4,0 676.8,30.63 982,96.45 -9.4,-34 -22.1,-66.68 -37.8,-97.04 -65.3,-125.23 -193.3,-214.49 -343.9,-267.56 -150.5,-54 -318,-78.76 -486.8,-89.19 -65.6,-3.9 -131.6,-5.68 -197.8,-5.68"
           style="fill:#b9afbe;fill-opacity:1;fill-rule:nonzero;stroke:none"
           id="path92" /></g><g
         id="g94"
         transform="scale(1.53788)"><path
           d="M 9912.65,12576.1 C 9791.9,11896.3 9662.57,11222.3 9557.94,10544.3 9452.47,9866.68 9376.07,9185.29 9341.02,8502.21 9328.41,8160.7 9321.97,7818.6 9339.78,7477.94 l 5.53,-127.77 2.73,-63.92 5.4,-63.66 22.24,-254.51 c 15.15,-169.78 37.26,-341.5 56.7,-512.06 82.12,-683.21 174.85,-1366.36 275.38,-2047.1 l 13.52,-91.82 -89.21,-29.65 c -34.33,-11.38 -74.78,-27.12 -111.84,-42.91 -37.72,-16.13 -75.04,-33.3 -111.65,-51.76 -73.09,-37 -143.83,-78.16 -209.25,-124.79 -130.57,-92.2 -243.32,-207.62 -296.31,-340.53 -27.64,-66 -37.2,-136.03 -32.91,-206.78 3.97,-72.69 23.48,-143.83 55.14,-205.28 64.31,-123.35 190.4,-211.27 338.78,-263.54 148.26,-53.19 313.22,-77.58 479.49,-87.85 166.79,-9.88 336.38,-5.85 505.98,6.18 169.6,11.18 339.3,33.48 511.5,55.07 170.6,22.04 339.5,46.75 502.3,84.79 161.8,38.04 321,89.28 448.3,171.54 63.2,40.96 116.1,90.25 151.1,146.82 4.9,6.76 8.3,14.31 12.3,21.53 3.9,6.95 7.9,14.5 11.7,24.12 l 23.6,53.97 c 13.4,37.46 27.8,74.39 38.2,113.6 12.4,38.23 20.4,78.55 30.1,118.02 7.3,40.51 16.2,80.5 21.5,121.79 13,81.73 19.9,165.49 25.8,249.3 9.9,168.22 9.1,338.71 3,509.73 -13.3,342.42 -46.9,686.72 -76.8,1033.43 -28.8,346.91 -59.1,696.22 -45.3,1054.37 l 4.4,117.57 118.6,-12.94 c 70.7,-7.68 146.4,-13.27 219.9,-17.1 74.1,-3.84 148.1,-5.79 222,-5.92 73.9,0.13 147.9,2.08 222,5.92 73.5,3.83 149.1,9.42 219.9,17.1 l 118.5,12.94 4.5,-117.57 c 13.7,-358.15 -16.5,-707.46 -45.4,-1054.37 -29.8,-346.71 -63.4,-691.01 -76.7,-1033.43 -6.2,-171.02 -6.9,-341.51 2.9,-509.73 5.9,-83.81 12.8,-167.57 25.9,-249.3 5.3,-41.29 14.2,-81.28 21.5,-121.79 9.7,-39.47 17.7,-79.79 30.1,-118.02 10.4,-39.21 24.8,-76.14 38.1,-113.6 l 23.6,-53.97 c 3.9,-9.62 7.9,-17.17 11.8,-24.12 4,-7.22 7.3,-14.77 12.3,-21.53 34.9,-56.57 87.9,-105.86 151.1,-146.82 127.3,-82.26 286.5,-133.5 448.3,-171.54 162.8,-38.04 331.6,-62.75 502.3,-84.79 172.2,-21.59 341.9,-43.89 511.4,-55.07 169.7,-12.03 339.3,-16.06 506.1,-6.18 166.2,10.27 331.2,34.66 479.4,87.85 148.4,52.27 274.4,140.19 338.8,263.54 31.7,61.45 51.2,132.59 55.2,205.28 4.3,70.75 -5.3,140.78 -32.9,206.78 -53,132.91 -165.8,248.33 -296.4,340.53 -65.4,46.63 -136.1,87.79 -209.2,124.79 -36.6,18.46 -73.9,35.63 -111.7,51.76 -37,15.79 -77.5,31.53 -111.8,42.91 l -89.2,29.65 13.5,91.82 c 101.3,686.14 194.8,1374.74 277.3,2063.42 19.6,171.86 41.7,345.15 57.1,515.97 7.1,85.51 17.3,170.75 22,256.52 l 15.3,257.36 c 14,343.66 12,688.29 -2.4,1032.72 -27.5,689.13 -112.1,1376.57 -230.8,2057.29 -58.6,339.7 -121.1,682.2 -183.9,1018.9 -70,338.3 -136.3,678.6 -207.6,1017.2 l -0.1,0.5 c -4.2,19.9 8.6,39.6 28.6,43.8 17,3.6 33.7,-5.1 40.9,-20.1 77,-159.4 137.3,-324.6 193.6,-490.3 27.8,-83.1 54.6,-166.4 79.2,-250.2 25.5,-83.7 49.4,-167.7 71.6,-252.5 85.5,-342.4 153.9,-682.9 209.5,-1028.7 28.7,-172.4 53.2,-345.5 75.7,-518.9 11.8,-86.6 22.7,-173.31 32.9,-260.11 10.5,-86.81 21.2,-173.55 29.6,-260.62 8.4,-87.07 19.1,-173.88 26.5,-261.07 l 23.2,-261.4 18.1,-261.98 c 6,-87.33 8.7,-174.92 13.3,-262.31 14.7,-350.03 16.8,-700.97 2.4,-1051.9 l -15.5,-263.16 c -4.9,-87.72 -15.3,-175.17 -22.7,-262.76 -15.8,-175.44 -37.7,-346.97 -57.5,-520.33 -82.9,-691.73 -176.5,-1380.86 -278.2,-2070.05 l -75.6,121.46 c 48,-15.99 88.4,-32.05 131.3,-50.19 42.1,-17.95 83.7,-37.07 124.6,-57.68 81.7,-41.42 161.5,-87.72 237.6,-141.88 76.2,-53.78 148.8,-115.42 213.7,-187.6 65.1,-71.53 121.4,-155.93 159.8,-250.93 39.4,-94.41 54.9,-200.79 48.2,-302.95 -5.8,-100.66 -32.1,-200.79 -80,-293.71 -48.8,-91.88 -119.4,-172.32 -200.3,-231.88 -80.6,-60.8 -169,-104.24 -258.4,-136.29 -179.2,-63.98 -361.7,-89.22 -541.4,-100.72 -179.9,-10.6 -358.2,-6.18 -534.8,6.3 -177.1,11.77 -351.9,34.79 -524.1,56.38 -173.6,22.5 -349,47.86 -524.5,88.82 -174.7,41.88 -352.8,95.46 -518.7,201.64 -82,53.26 -161,123.48 -217.7,214.91 -7.6,10.99 -13.6,23.15 -19.9,34.92 -6.7,12.09 -12.6,23.8 -16.9,34.33 l -28.5,65.41 c -16,44.22 -32.9,88.37 -44.9,133.11 -14.2,44.54 -23.3,89.47 -34.2,134.27 -8.2,44.87 -18,89.74 -23.8,134.61 -14.2,89.79 -21.6,179.33 -27.9,268.61 -10.4,178.5 -9.5,355.62 -3.2,531.58 13.7,351.65 47.7,698.95 77.4,1044.1 28.9,344.63 57.8,689.25 44.8,1025.69 l 123,-104.63 c -80.3,-8.77 -156.1,-14.17 -234.2,-18.33 -77.6,-4.03 -155.4,-6.11 -233.4,-6.24 -78,0.13 -155.8,2.21 -233.4,6.24 -78.1,4.16 -154,9.56 -234.2,18.33 l 123,104.63 c -13.1,-336.44 15.9,-681.06 44.8,-1025.69 29.7,-345.15 63.7,-692.45 77.3,-1044.1 6.3,-175.96 7.3,-353.08 -3.1,-531.58 -6.4,-89.28 -13.7,-178.82 -28,-268.61 -5.7,-44.87 -15.5,-89.74 -23.7,-134.61 -11,-44.8 -20.1,-89.73 -34.2,-134.27 -12.1,-44.74 -28.9,-88.89 -44.9,-133.11 l -28.6,-65.41 c -4.2,-10.53 -10.2,-22.24 -16.8,-34.33 -6.4,-11.77 -12.4,-23.93 -20,-34.92 -56.7,-91.43 -135.7,-161.65 -217.7,-214.91 -165.8,-106.18 -343.9,-159.76 -518.7,-201.64 -175.5,-40.96 -350.8,-66.32 -524.4,-88.82 -172.2,-21.59 -347.1,-44.61 -524.1,-56.38 -176.7,-12.48 -354.95,-16.9 -534.87,-6.3 -179.67,11.5 -362.19,36.74 -541.46,100.72 -89.28,32.05 -177.71,75.49 -258.28,136.29 -80.96,59.56 -151.51,140 -200.34,231.88 -47.92,92.92 -74.19,193.05 -80.04,293.71 -6.64,102.16 8.84,208.54 48.24,302.95 38.43,95 94.68,179.4 159.83,250.93 64.9,72.18 137.53,133.82 213.74,187.6 76.08,54.16 155.86,100.46 237.6,141.88 40.9,20.61 82.45,39.73 124.58,57.68 42.86,18.14 83.24,34.2 131.29,50.19 l -75.62,-121.46 c -100.92,683.73 -193.78,1367.46 -276.29,2053.67 -19.64,171.92 -41.55,342.35 -57.16,515.96 l -22.76,260.75 -5.78,65.16 -3.19,65.28 -6.37,130.57 c -20.62,348.14 -14.5,696.28 -6.31,1043.9 15.22,347.24 35.89,694.4 76.01,1039.29 16.52,172.9 40.58,344.69 63.27,516.71 l 39.34,257.2 c 12.75,85.8 27.25,171.3 42.98,256.5 119.97,682.9 279.35,1359.1 508.1,2013.5 6.7,19.3 27.77,29.4 46.95,22.7 17.36,-6 27.31,-23.8 24.19,-41.3"
           style="fill:#371a45;fill-opacity:1;fill-rule:nonzero;stroke:none"
           id="path96" /></g><g
         id="g98"
         transform="scale(1.47381)"><path
           d="m 15043.7,5364.47 c -407.5,0 -936.6,76.87 -1615.7,298.34 -53.5,17.43 -82.7,74.9 -65.2,128.37 17.4,53.4 74.8,82.71 128.3,65.21 2018.5,-658.43 2609.5,22.39 2615.2,29.31 35.5,43.08 99.4,49.94 142.8,14.92 43.4,-35.01 50.9,-97.97 16.4,-141.8 -18,-22.8 -325.9,-394.35 -1221.8,-394.35"
           style="fill:#371a45;fill-opacity:1;fill-rule:nonzero;stroke:none"
           id="path100" /></g><g
         id="g102"
         transform="scale(1.14826)"><path
           d="m 13982.4,6822.21 c -549.3,0 -1076.9,98.5 -1415.4,396.95 -54.2,47.72 -59.3,130.28 -11.6,184.37 47.7,54.16 130.3,59.21 184.4,11.58 864.1,-761.85 3349.1,18.46 3374.1,26.47 68.6,21.95 142.2,-16.02 164.2,-84.73 21.9,-68.72 -16.1,-142.22 -84.8,-164.17 -70.4,-22.46 -1178.6,-370.47 -2210.9,-370.47"
           style="fill:#371a45;fill-opacity:1;fill-rule:nonzero;stroke:none"
           id="path104" /></g><g
         id="g106"
         transform="scale(1.14492)"><path
           d="m 16117.7,8884.81 c -80.9,10.4 -151.7,24.9 -225.5,42.97 -72.9,17.47 -144.4,39.57 -215.6,62.1 -141.7,47.17 -280,103.86 -413.8,169.71 -67.2,32.32 -132.4,68.65 -197.6,104.2 -63.8,38.87 -127.6,77.12 -187.1,122.36 -121.4,86.21 -233.1,187.71 -328.3,303.96 144.9,-44.72 276.8,-99.75 412.3,-146.65 134.4,-47.95 265.6,-99.05 399.8,-141.84 133.5,-44.28 267.8,-84.9 402.9,-121.32 67.1,-19.3 135,-35.9 202.2,-53.98 l 198.1,-49.09 7.1,-1.74 c 79.4,-19.66 127.8,-100.01 108.1,-179.4 -18.2,-73.81 -89,-120.8 -162.6,-111.28"
           style="fill:#371a45;fill-opacity:1;fill-rule:nonzero;stroke:none"
           id="path108" /></g><g
         id="g110"
         transform="scale(1.33118)"><path
           d="m 14910.7,7893.16 170.5,42.22 c 57.7,15.55 116,29.82 173.9,46.42 116.1,31.33 231.6,66.26 346.4,104.35 115.5,36.81 228.3,80.75 343.9,121.99 116.5,40.34 230,87.67 354.6,126.13 -81.9,-99.98 -177.9,-187.27 -282.3,-261.42 -51.3,-38.91 -106.2,-71.82 -161,-105.25 -56.1,-30.57 -112.2,-61.82 -170,-89.62 -115,-56.64 -234,-105.39 -355.9,-145.96 -61.2,-19.38 -122.7,-38.38 -185.4,-53.41 -63.5,-15.55 -124.3,-28.02 -194,-36.96 -69.8,-8.94 -133.5,40.34 -142.5,110.13 -8.3,64.91 33.7,124.55 95.6,139.88 l 6.2,1.5"
           style="fill:#371a45;fill-opacity:1;fill-rule:nonzero;stroke:none"
           id="path112" /></g><g
         id="g114"
         transform="scale(1.45863)"><path
           d="m 16155.3,4517.31 -164.2,9.33 c -28.1,1.3 -56.4,1.92 -84.6,3.77 -28.3,0.41 -56.5,1.1 -84.8,2.33 -113.3,1.92 -227.2,1.03 -341.1,-8.57 -57.2,-3.91 -113.7,-12 -171.1,-18.99 -55.9,-11.86 -114.5,-17.41 -170.2,-33.11 -114.7,-22.83 -224.8,-62.67 -339.5,-101.81 l -0.9,-0.35 c -8.8,-3.01 -18.3,1.72 -21.4,10.49 -2.3,6.72 0,13.92 5.2,18.31 93.8,78.29 197,150.35 309.8,203.68 27.9,14.26 56.1,27.91 85.3,39.22 28.8,12.07 57.9,24.06 87.4,35.17 59.6,18.85 119.1,41 180.6,54.09 122.3,30.1 247.8,51.35 374.2,54.09 63.2,1.65 126.5,0.48 189.7,-5.76 31.6,-2.88 63.1,-6.99 94.8,-12.34 32.2,-5.48 61.7,-11.65 97.5,-21.73 61.9,-17.34 98,-81.65 80.7,-143.49 -15.1,-53.61 -65.2,-87.89 -118.7,-84.8 l -8.7,0.47"
           style="fill:#371a45;fill-opacity:1;fill-rule:nonzero;stroke:none"
           id="path116" /></g><g
         id="g118"
         transform="scale(1.31911)"><path
           d="m 14540.1,7939.29 c -86.1,0.15 -172.5,2.43 -258.8,6.9 -84.2,4.39 -170.8,10.76 -252.1,19.48 l -170.7,42.3 c -58.3,15.7 -117.2,30.1 -175.5,46.85 -117.2,31.61 -233.8,66.87 -349.6,105.3 -116.5,37.15 -230.4,81.5 -347.1,123.11 -66.7,23.13 -132.6,48.52 -200,73.24 264.6,-39.05 1025.2,-142.75 1638.9,-142.75 631.3,0 1579.4,109.77 1874.8,146.01 -70.5,-25.78 -139.1,-52.39 -208.8,-76.5 -116.6,-41.61 -230.4,-85.96 -347,-123.11 -115.9,-38.43 -232.4,-73.69 -349.6,-105.3 -58.4,-16.75 -117.2,-31.15 -175.5,-46.85 l -172,-42.6 -0.7,-0.15 c -79.9,-8.49 -164.9,-14.71 -247.5,-19.03 -86.3,-4.47 -172.7,-6.75 -258.8,-6.9"
           style="fill:#b9afbe;fill-opacity:1;fill-rule:nonzero;stroke:none"
           id="path120" /></g><g
         id="g122"
         transform="scale(1.21766)"><path
           d="m 15793.9,8490.74 c -26.2,0 -52.3,0.24 -78.8,0.82 -142.7,2.96 -277.9,12.32 -405.6,26.77 -9.9,51.74 -48.9,95.59 -103.3,109.06 l -6.7,1.64 -1.4,0.33 c 88.1,-9.44 181.9,-16.34 273.1,-21.1 93.5,-4.85 187.1,-7.31 280.4,-7.48 93.3,0.17 186.8,2.63 280.3,7.48 89.6,4.68 181.5,11.41 268.1,20.61 l -5.9,-1.48 c -55.7,-13.71 -96.6,-60.28 -104.4,-115.79 -125.7,-13.31 -257.9,-20.86 -395.8,-20.86"
           style="fill:#371a45;fill-opacity:1;fill-rule:nonzero;stroke:none"
           id="path124" /></g><g
         id="g126"
         transform="scale(1.14366)"><path
           d="m 16300,9069.46 c -1089.5,122.67 -1662.8,585.84 -1662.8,585.84 0,0 39.9,-6.39 110.7,-16.88 77.7,-28.51 153.7,-57.8 230.6,-84.47 134.6,-48 265.9,-99.15 400.3,-142 133.6,-44.33 268.1,-84.99 403.3,-121.45 67.2,-19.32 135.2,-35.94 202.4,-54.03 l 196.9,-48.8 1.5,-0.35 7.1,-1.75 c 58,-14.33 99.5,-61.03 110,-116.11"
           style="fill:#371a45;fill-opacity:1;fill-rule:nonzero;stroke:none"
           id="path128" /></g><g
         id="g130"
         transform="scale(1.32649)"><path
           d="m 14861.4,7813.25 c 7.2,50.96 44.7,93.7 95.8,106.29 l 5.4,1.36 0.8,0.15 171,42.37 c 58,15.6 116.5,29.93 174.6,46.59 116.5,31.43 232.4,66.49 347.6,104.71 115.9,36.94 229.1,81.04 345.1,122.43 69.3,23.97 137.5,50.43 207.6,76.06 58,7.09 90.7,11.31 90.7,11.31 0,0 -543.3,-416.21 -1438.6,-511.27"
           style="fill:#371a45;fill-opacity:1;fill-rule:nonzero;stroke:none"
           id="path132" /></g><g
         id="g134"
         transform="scale(1.37614)"><path
           d="m 15370.5,8564.75 c -154.4,0 -324.5,8.57 -507.9,17.15 -183.3,8.64 -380,17.22 -587.5,17.22 -144.1,0 -293.5,-4.14 -447.3,-15.34 -115.5,4.36 -227.9,6.04 -336.7,6.04 -177.5,0 -345.6,-4.44 -503.6,-8.87 -157.9,-4.5 -305.4,-8.94 -441.4,-8.94 -670.8,0 -1061.3,108.42 -1031.7,859.87 -291.3,-36.41 -544.1,-52.68 -762.6,-52.68 -114.9,0 -220.2,4.5 -316.8,12.93 1.3,36.48 2.5,72.89 3.9,109.37 5.3,103.33 11.4,206.66 18.4,309.99 227.5,-26.01 487,-45.92 747.7,-45.92 144.2,0 288.7,6.1 428.5,20.63 v -44.98 c 0,-388.62 316.1,-704.79 704.8,-704.79 h 3176.1 c 251.6,0 472.8,132.47 597.5,331.36 60.1,-69.62 122.8,-137.34 188.1,-203.03 -76.8,-505.11 -416.5,-600.01 -929.5,-600.01 m -3846.2,2594.05 c 19.6,142.4 56.5,253.8 110,340.7 -0.5,-11.1 -0.8,-22.3 -0.8,-33.5 v -301 c -36,-2.3 -72.5,-4.4 -109.2,-6.2"
           style="fill:#b9afbe;fill-opacity:1;fill-rule:nonzero;stroke:none"
           id="path136" /></g><path
         d="m 14360.1,12924.9 c -61.3,5.4 -120,11.9 -176.1,19.6 6.4,195.4 15.8,390.4 27.7,584.7 33.8,-7.9 68.2,-14.1 103.3,-18.3 24.9,-3 50.2,-6 75.7,-8.9 -9.6,-142.2 -18,-284.4 -25.3,-426.6 -1.9,-50.2 -3.6,-100.3 -5.3,-150.5"
         style="fill:#371a45;fill-opacity:1;fill-rule:nonzero;stroke:none"
         id="path138" /><g
         id="g140"
         transform="scale(1.02789)"><path
           d="m 16300,13433.8 c -653.3,-264.5 -1664.4,-209.1 -2353.7,-125.8 -413.3,50.1 -703.5,431.6 -642.6,843.5 55.5,375.9 386.4,649.3 766,631.5 644.7,-30.2 1611.8,-44.4 2224.2,91.6 l 6.1,-1440.8"
           style="fill:#41b883;fill-opacity:1;fill-rule:nonzero;stroke:none"
           id="path142" /></g><path
         d="m 15413.6,13778.6 c -321,0 -676.4,22.8 -1057.9,69 -159.4,19.3 -300.8,100.2 -398.3,227.9 -97.7,128.1 -138.5,286.4 -114.9,445.9 5.3,35.8 13.6,70.4 24.8,103.6 118,-128.4 280.8,-217.3 468.1,-240 316.7,-38.4 699.8,-71 1086.5,-71 197.6,0 396.2,8.5 587.4,29.1 v -533.9 c -181.6,-20.4 -380.9,-30.6 -595.7,-30.6"
         style="fill:#349369;fill-opacity:1;fill-rule:nonzero;stroke:none"
         id="path144" /><g
         id="g146"
         transform="scale(1.06167)"><path
           d="m 15781.3,13006.3 h 0.5 -0.5 m -2193.4,1147.4 c -275.1,0 -508.9,-200.4 -549.5,-475.9 -22.3,-150.2 16.2,-299.3 108.2,-420 91.8,-120.3 225,-196.5 375.1,-214.6 955.7,-115.7 1736.8,-76.1 2199.7,111.2 145.5,58.9 183.9,294.6 193.7,393.3 32.6,328.7 -69.5,625.7 -130.8,692 -600.5,-127.3 -1508.8,-117.6 -2169.8,-86.7 -8.9,0.5 -17.8,0.7 -26.6,0.7 m 936,-1495.6 c -365.5,0 -729.2,30.2 -1040.5,67.9 -236.4,28.7 -446.3,148.7 -590.8,338.1 -144.7,189.7 -205.2,424.2 -170.3,660.4 66.2,447.4 455.8,768.5 907.1,747.6 651.1,-30.5 1545.7,-40.5 2111.4,85 86.2,19.2 300.6,19.4 428.3,-391.2 130.9,-420.8 117.1,-1127.4 -327.9,-1307.6 v 0 c -369.9,-149.8 -845.2,-200.2 -1317.3,-200.2"
           style="fill:#371a45;fill-opacity:1;fill-rule:nonzero;stroke:none"
           id="path148" /></g><g
         id="g150"
         transform="scale(1.53579)"><path
           d="m 15829,8907 c -216.4,-26.24 -480.6,-48.31 -745.1,-45.84 -18.1,0 -36.1,0.26 -54.3,0.85 -19,0.26 -38.4,0.85 -57.4,1.63 -13,0.26 -25.7,0.84 -38.1,1.37 -15.2,0.84 -30.1,1.69 -45,2.54 -19,1.1 -38.1,2.47 -56.9,3.84 h -1.3 c -18.9,1.36 -37.9,3.06 -56.7,4.94 -12.4,1.11 -24.8,2.48 -37,3.91 -10.5,0.78 -20.9,2.22 -31.2,3.32 -16.2,1.89 -32.5,4.11 -48.3,6.32 -15.2,2.21 -30.1,4.43 -44.7,6.9 -3,0.26 -6.1,0.59 -8.8,1.37 -17.4,2.47 -34.5,5.53 -51.4,8.85 -17.1,3 -33.9,6.32 -50.5,9.97 -1.4,0.26 -2.7,0.52 -4.1,0.78 -9.4,2.21 -18.8,4.16 -27.9,6.38 -10.2,2.21 -20.4,4.69 -30.6,7.42 h -0.3 c -31.2,7.75 -61.9,16.6 -91.7,25.98 -16,4.95 -32,10.48 -47.7,16.02 -15.8,5.47 -31.2,11.59 -46.1,17.65 l 1.9,462.95 2.2,501.3 c 104.9,-23.44 225.5,-40.04 353.9,-51.63 373.3,-33.92 813.6,-24.55 1134.6,-9.64 7.7,0.26 15.5,0.52 23.5,0.52 244,0 453.2,-179.45 489.1,-423.17 40.9,-275.75 -153.5,-531.12 -430.1,-564.53"
           style="fill:#ffffff;fill-opacity:1;fill-rule:nonzero;stroke:none"
           id="path152" /></g><g
         id="g154"
         transform="scale(1.54452)"><path
           d="m 14171.2,9788.12 c -42.1,-45.58 -112.3,-249.72 -89.9,-475.68 6.7,-67.79 33.2,-229.85 133.2,-270.31 v 0 c 318.1,-128.78 855.1,-155.98 1512,-76.47 103.2,12.49 194.7,64.87 257.8,147.55 63.3,82.94 89.7,185.43 74.5,288.7 -28.9,195.47 -199.8,336.36 -396.1,326.64 -454.2,-21.23 -1078.7,-27.9 -1491.5,59.57 m 866.4,-1087.14 c -324.6,0 -651.2,34.64 -905.5,137.59 v 0 c -305.9,123.79 -315.3,609.57 -225.3,898.85 87.7,282.18 235,281.98 294.4,268.88 388.7,-86.23 1003.8,-79.3 1451.2,-58.39 309.9,14.18 578.1,-206.41 623.6,-513.88 24,-162.39 -17.6,-323.6 -117.1,-454 -99.3,-130.2 -243.6,-212.68 -406.1,-232.37 -213.9,-25.89 -463.9,-46.68 -715.2,-46.68"
           style="fill:#371a45;fill-opacity:1;fill-rule:nonzero;stroke:none"
           id="path156" /></g><g
         id="g158"
         transform="scale(1.35892)"><path
           d="M 16300,11611.3 V 9864.89 c 0,-324.08 -265.2,-589.29 -589.2,-589.29 h -3216.3 c -323.6,0 -588.8,265.21 -588.8,589.29 v 1746.41 c 0,324 265.2,588.8 588.8,588.8 h 3216.3 c 190.7,0 361,-91.9 469,-233.5 75.4,-98.8 120.2,-222.1 120.2,-355.3"
           style="fill:#41b883;fill-opacity:1;fill-rule:nonzero;stroke:none"
           id="path160" /></g><g
         id="g162"
         transform="scale(1.34598)"><path
           d="m 15862.1,9490.89 h -3247.3 c -258.3,0 -468.6,210.25 -468.6,468.65 v 471.86 c 385.2,-457.52 1201.5,-675.87 1976.7,-675.87 135.4,0 269.3,6.61 399.7,19.84 217.2,21.99 372.5,228.33 320.7,440.53 -15.5,63.3 -23.8,130.4 -23.8,199.8 0,59.4 6.1,117 17.5,172 96.3,-208.6 307.4,-353.8 551.8,-353.8 96,0 186.7,22.4 267.5,62.2 64.3,-13.7 130.6,-20.9 198.1,-20.9 43.1,0 86.8,2.9 130.5,8.9 92.7,-170.9 197.9,-335.11 315.1,-491.5 -67.5,-176.23 -238.3,-301.71 -437.9,-301.71"
           style="fill:#349369;fill-opacity:1;fill-rule:nonzero;stroke:none"
           id="path164" /></g><g
         id="g166"
         transform="scale(1.36932)"><path
           d="m 12399.7,11983.7 c -253.9,0 -460.6,-206.6 -460.6,-460.6 V 9789.76 c 0,-254 206.7,-460.67 460.6,-460.67 h 3192 c 253.9,0 460.6,206.67 460.6,460.67 v 1733.34 c 0,254 -206.7,460.6 -460.6,460.6 h -3192 m 3192,-2902.25 h -3192 c -390.5,0 -708.3,317.75 -708.3,708.31 v 1733.34 c 0,390.6 317.8,708.3 708.3,708.3 h 3192 c 390.5,0 708.3,-317.7 708.3,-708.3 V 9789.76 c 0,-390.56 -317.8,-708.31 -708.3,-708.31"
           style="fill:#371a45;fill-opacity:1;fill-rule:nonzero;stroke:none"
           id="path168" /></g><g
         id="g170"
         transform="scale(1.31307)"><path
           d="m 16300,11112.9 c 0,-290.4 -235.3,-525.7 -525.6,-525.7 -290.3,0 -525.6,235.3 -525.6,525.7 0,290.3 235.3,525.6 525.6,525.6 290.3,0 525.6,-235.3 525.6,-525.6"
           style="fill:#22a7f0;fill-opacity:1;fill-rule:nonzero;stroke:none"
           id="path172" /></g><g
         id="g174"
         transform="scale(1.31309)"><path
           d="m 16300,11112.6 c 0,-28.5 -2.2,-56.4 -6.9,-83.7 -39.9,250.6 -257.1,441.9 -518.8,441.9 -261.8,0 -479,-191.3 -518.9,-441.9 -4.7,27.3 -6.9,55.2 -6.9,83.7 0,290.3 235.4,525.7 525.8,525.7 290.2,0 525.7,-235.4 525.7,-525.7"
           style="fill:#ffffff;fill-opacity:1;fill-rule:nonzero;stroke:none"
           id="path176" /></g><g
         id="g178"
         transform="scale(1.26672)"><path
           d="m 16300,11078 c -220.9,25.7 -392.8,213.9 -392.8,441.5 0,7.6 0.1,15.2 0.5,22.8 81.5,-194 220.3,-354.5 392.3,-464.3"
           style="fill:#ffca28;fill-opacity:1;fill-rule:nonzero;stroke:none"
           id="path180" /></g><g
         id="g182"
         transform="scale(1.32088)"><path
           d="m 15681.2,11473.4 c -235.1,0 -426.3,-191.2 -426.3,-426.2 0,-235 191.2,-426.3 426.3,-426.3 235,0 426.2,191.3 426.2,426.3 0,235 -191.2,426.2 -426.2,426.2 m 0,-1045.1 c -341.2,0 -618.9,277.6 -618.9,618.9 0,341.2 277.7,618.8 618.9,618.8 341.2,0 618.8,-277.6 618.8,-618.8 0,-341.3 -277.6,-618.9 -618.8,-618.9"
           style="fill:#371a45;fill-opacity:1;fill-rule:nonzero;stroke:none"
           id="path184" /></g><g
         id="g186"
         transform="scale(1.15994)"><path
           d="m 16170.7,10737.6 c -71.5,0 -129.3,57.8 -129.3,129.3 v 1122.6 c 0,170.2 -81.2,332.9 -217.2,435.3 l -216.1,162.7 c -200.6,151 -320.3,391 -320.3,642 V 14293 c 0,71.4 57.9,129.3 129.3,129.3 71.4,0 129.3,-57.9 129.3,-129.3 v -1063.5 c 0,-170.3 81.2,-332.9 217.2,-435.4 l 216.1,-162.6 c 200.6,-151.1 320.3,-391 320.3,-642 v -1122.6 c 0,-71.5 -57.9,-129.3 -129.3,-129.3"
           style="fill:#371a45;fill-opacity:1;fill-rule:nonzero;stroke:none"
           id="path188" /></g><g
         id="g190"
         transform="scale(1.25034)"><path
           d="m 12213.5,15721.4 c -216.9,86.6 -423.1,182.5 -618.8,287.1 165.6,101 333.9,197.8 504.1,291.5 82.6,-34 166.4,-66.5 251.5,-97.5 -34.8,-116.8 -81.9,-279.5 -136.8,-481.1 v 0"
           style="fill:#b9afbe;fill-opacity:1;fill-rule:nonzero;stroke:none"
           id="path192" /></g><g
         id="g194"
         transform="scale(1.25591)"><path
           d="m 11543.2,15937.4 c -48.6,26 -96.6,52.4 -143.8,79.5 151.6,97.3 310.6,191.8 476.6,283.1 55.7,-24.8 112.2,-49 169.1,-72.4 -169.4,-93.3 -337,-189.6 -501.9,-290.2"
           style="fill:#371a45;fill-opacity:1;fill-rule:nonzero;stroke:none"
           id="path196" /></g><g
         id="g198"
         transform="scale(1.36539)"><path
           d="m 14050.9,13896.7 c -974.4,0 -1832.9,139.4 -2570.7,390.6 -100.9,34.4 -199.6,70.8 -295.9,109.3 v 0 0 c 50.3,184.6 93.4,333.7 125.3,440.6 802.7,-292.7 1725.8,-443.6 2741.2,-443.6 813.8,0 1568.4,96.9 2249.2,286.1 -27.7,-30.7 -54.9,-61.9 -81.7,-93.6 -136.8,-161.8 -259.2,-332.3 -367.1,-509.9 -547.3,-116.9 -1147.9,-179.5 -1800.3,-179.5"
           style="fill:#b9afbe;fill-opacity:1;fill-rule:nonzero;stroke:none"
           id="path200" /></g><g
         id="g202"
         transform="scale(2.04082)"><path
           d="m 13305.1,12877 c 0,-1747.4 -1363.9,-3164.06 -3904.59,-3164.06 -2540.64,0 -3904.55,1416.66 -3904.55,3164.06 0,3423 3000.7,2660.4 3904.55,2660.4 903.89,0 3904.59,762.6 3904.59,-2660.4"
           style="fill:#ff791f;fill-opacity:1;fill-rule:nonzero;stroke:none"
           id="path204" /></g><g
         id="g206"
         transform="scale(1.55861)"><path
           d="m 10565.6,14045.4 c -1204.42,535 -1687.29,1587.8 -1877.46,2254.6 235.34,-663.4 747.59,-1576.2 1844.26,-2063.2 10.6,-4.7 21.9,-7 33.2,-7 10.8,0 21.5,2.1 31.7,6.4 20.8,8.8 37,25.7 44.8,46.9 l 202.9,548.5 c 3.7,9.9 13.1,16.1 23.2,16.1 2.4,0 4.8,-0.3 7.2,-1 l 745.7,-225.6 c 12.5,-3.8 19.9,-16.8 16.9,-29.5 l -34.8,-145.8 -704.2,213.1 c -10.2,3.1 -20.6,4.6 -30.8,4.6 -43.5,0 -84,-26.9 -99.7,-69.4 l -202.9,-548.7"
           style="fill:#ffbc8f;fill-opacity:1;fill-rule:nonzero;stroke:none"
           id="path208" /></g><g
         id="g210"
         transform="scale(1.3327)"><path
           d="m 14395.4,16033.5 c -301.9,0 -582.8,20.4 -844.5,57.9 l 49.7,208.6 c 3.2,-0.8 6.4,-1.4 9.7,-1.8 248.9,-32.6 513.1,-49.1 785.1,-49.1 211.4,0 417.6,9.9 612.8,29.4 4.3,0.4 8.5,1.2 12.6,2.1 l 50.1,-210.4 c -212.9,-24.2 -437.5,-36.7 -675.5,-36.7"
           style="fill:#ffbc8f;fill-opacity:1;fill-rule:nonzero;stroke:none"
           id="path212" /></g><g
         id="g214"
         transform="scale(1.55852)"><path
           d="m 13924.1,13992.4 -222.6,602.5 c -15.7,42.5 -56.3,69.4 -99.8,69.4 -10.2,0 -20.6,-1.5 -30.9,-4.6 l -704.2,-213.1 -34.8,145.4 c -3,13 4.4,26.1 16.9,29.9 l 745.8,225.6 c 2.4,0.7 4.9,1.1 7.2,1.1 10.2,0 19.6,-6.2 23.3,-16.1 l 222.5,-602.4 c 7.6,-20.6 23.3,-37.3 43.4,-46.3 10.5,-4.7 21.8,-7.1 33.2,-7.1 10.2,0 20.4,1.9 30,5.8 1187.4,470.4 1731.1,1426.1 1976.1,2117.5 -197,-690.2 -707.4,-1793 -2006.1,-2307.6"
           style="fill:#ffbc8f;fill-opacity:1;fill-rule:nonzero;stroke:none"
           id="path216" /></g><g
         id="g218"
         transform="scale(1.9441)"><path
           d="m 13738.2,14669.6 c -353,912.5 -1056.2,1394.3 -1690.3,1464.9 -18,2 -34.4,3 -49.3,3 -431,0 396.4,-808.4 335.7,-811.8 -0.8,0 -1.6,-0.1 -2.5,-0.1 -87.2,0 -367.8,228.4 -693.4,456.7 -325.6,228.4 -696.2,456.8 -963.4,456.8 -49.9,0 -96.1,-8 -137.8,-25.4 -221.5,-92.4 515.7,-995.3 331.2,-1186.4 -0.3,-0.2 -0.6,-0.4 -1.1,-0.4 -37,0 -655.4,945.5 -834.2,1019.7 -53.83,22.4 -106.91,30.8 -156.65,30.8 -84.77,0 -159.61,-24.6 -210.89,-46.8 -268.35,-116.1 -820.9,-1060.4 -820.9,-1060.4 0,0 19.6,299.3 123.09,588.6 123.97,346.5 322.31,509.2 277.71,586.5 -29.01,50.2 -88.37,69.1 -161.77,69.1 -140.32,0 -331.93,-69 -460.57,-119.8 -139.76,-55.1 -945.43,-446.1 -945.43,-446.1 0,0 504.2,533 137.03,533 -34.51,0 -76.69,-4.7 -127.77,-15 -589.99,-119.1 -1155.49,-417.5 -1517.51,-1046.1 113.37,229.6 257.34,425 431.66,585.2 526.26,483.9 1249.58,594.4 1910.61,594.4 317.47,0 620.59,-25.5 880.61,-47.4 187.39,-15.7 349.21,-29.3 475.95,-29.3 126.74,0 288.53,13.6 475.93,29.3 260,21.9 563.1,47.4 880.6,47.4 661,0 1384.3,-110.5 1910.6,-594.4 279.1,-256.6 480.5,-603.1 602.8,-1036"
           style="fill:#ffbc8f;fill-opacity:1;fill-rule:nonzero;stroke:none"
           id="path220" /></g><g
         id="g222"
         transform="scale(1.65441)"><path
           d="m 11596.2,12084.1 c -2682.76,0 -4476.26,1309.5 -4692.17,3373.2 216.63,-849.7 689.31,-1608.1 1179.03,-1793.7 11.6,-4.4 22,-6.5 31.25,-6.5 149.96,0 2.48,543.9 2.48,543.9 0,0 1272.23,-1393.7 1867.79,-1519 102.12,-21.5 189.72,-29.6 263.62,-29.6 225.4,0 323.9,75.3 323.9,75.3 0,0 468,-503.1 1024.1,-503.1 556,0 1000.2,456.4 1000.2,456.4 0,0 295.2,7.6 567.7,26.1 740.6,50.1 1965,1648.8 1965,1648.8 0,0 -244.2,-669.7 -69.2,-715.3 11.6,-3 23.7,-4.4 36.1,-4.4 328,0 952.4,1020.5 1204,1954.2 -74.4,-1052.4 -550.2,-1917.5 -1340.6,-2525.1 -433.1,-126.6 -833.5,-341.2 -1179.5,-632.8 -632.4,-227 -1367,-348.4 -2183.7,-348.4"
           style="fill:#b9582c;fill-opacity:1;fill-rule:nonzero;stroke:none"
           id="path224" /></g><g
         id="g226"
         transform="scale(1.98014)"><path
           d="m 8356.79,16003.3 c -648.99,0 -1359.14,-108.5 -1875.83,-583.5 -485.01,-445.9 -730.91,-1168.6 -730.91,-2148.1 0,-1929 1546.01,-3175.4 3938.62,-3175.4 2392.63,0 3938.53,1246.4 3938.53,3175.4 0,979.5 -245.9,1702.2 -730.8,2148.1 -764.9,703.2 -1953.8,603.2 -2740.4,537 -184.01,-15.4 -342.89,-28.8 -467.33,-28.8 -124.44,0 -283.31,13.4 -467.29,28.8 -255.29,21.5 -552.89,46.5 -864.59,46.5 M 9688.67,9925.02 c -1261.02,0 -2315.8,337.48 -3050.29,976.18 -683.29,594.1 -1059.63,1435.9 -1059.63,2370.5 0,1029.4 264.53,1794.5 786.26,2274.2 820.2,754.1 2103.85,646.1 2870.71,581.6 180.14,-15.1 335.69,-28.2 452.95,-28.2 117.21,0 272.81,13.1 452.93,28.2 766.9,64.5 2050.4,172.5 2870.7,-581.6 521.7,-479.7 786.2,-1244.8 786.2,-2274.2 0,-934.5 -376.3,-1776.4 -1059.6,-2370.5 -734.5,-638.7 -1789.3,-976.18 -3050.23,-976.18"
           style="fill:#371a45;fill-opacity:1;fill-rule:nonzero;stroke:none"
           id="path228" /></g><g
         id="g230"
         transform="scale(1.29572)"><path
           d="m 13425.5,16300 c 34.8,-36.4 65.3,-74.2 94.7,-112.1 30.5,-37.6 58.2,-76.1 86.2,-114.3 56.5,-76.1 107.1,-154.3 160.7,-230.3 53.6,-76.1 106.8,-151.5 161.3,-225.3 l 81.3,-110.1 79.3,-104.8 4.3,-5.5 c 36.3,-47.9 26.8,-116.1 -21,-152.3 -44,-33.4 -105.2,-28.1 -142.9,10.3 -39.4,39.8 -69.2,75.8 -99.7,115.7 -30.5,38.9 -57.6,79.8 -84.8,120.4 -52.9,82.2 -100.3,167.3 -143.2,254.2 -41.9,87.5 -82.5,175.3 -111.9,268.1 -30.4,92.1 -54.4,186.8 -64.3,286"
           style="fill:#371a45;fill-opacity:1;fill-rule:nonzero;stroke:none"
           id="path232" /></g><g
         id="g234"
         transform="scale(1.95797)"><path
           d="m 9652.23,16136.2 c -9.6,-8.9 -22.72,-21.6 -34.17,-33.4 l -35.54,-36.7 c -12.06,-12.1 -23.24,-25.5 -34.99,-38.1 -11.8,-12.5 -23.44,-25.3 -34.62,-38.7 -45.66,-52.2 -90.1,-106.2 -132.39,-161.9 -85.7,-110.8 -164.71,-227.5 -239.73,-347.3 -36.01,-60.8 -73.45,-121 -106.64,-183.8 -17.11,-31.1 -35.5,-61.6 -51.74,-93.3 -15.78,-31.8 -33.25,-63 -49.85,-94.7 -34.53,-62.7 -63.94,-127.8 -98.47,-191.4 -32.07,-64.6 -63.02,-130 -98.62,-194.4 10.88,72.1 23.44,144.5 40.35,215.6 8.83,35.5 18.43,70.7 28.34,106 l 14.71,53 17.62,51.9 c 44.89,139.8 105.57,273.9 171,406 67.82,130.9 143.92,258.1 230.85,378.7 21.96,29.9 43.97,59.9 67.62,88.7 l 34.98,43.7 36.98,42.2 c 24.41,28.3 50.41,55.5 77.12,82.3 13.69,13.2 26.61,26.8 41.22,39.6 14.55,13.2 27.83,25 45.6,39.5 37.03,30.3 91.53,24.8 121.81,-12.2 29.01,-35.5 25.18,-87.1 -7.86,-118 l -3.58,-3.3"
           style="fill:#371a45;fill-opacity:1;fill-rule:nonzero;stroke:none"
           id="path236" /></g><g
         id="g238"
         transform="scale(1.96183)"><path
           d="m 8307.04,10204.4 c -12.34,0 -24.82,3 -36.39,9.2 -18.15,9.9 -450.04,247.2 -887.59,747.2 -404.17,461.9 -886.52,1243.5 -889.17,2343.8 -2.5,1039.9 452.89,1741 835.34,2146.1 460.38,487.5 1061.3,803.8 1607.53,846.2 42.2,3.1 78.85,-28.3 82.11,-70.4 3.27,-42.1 -28.23,-78.9 -70.34,-82.1 -501.72,-38.9 -1079.6,-344.9 -1508.08,-798.7 -363.38,-384.8 -795.99,-1051.2 -793.65,-2040.7 2.55,-1050.5 462.28,-1797.4 847.48,-2239.1 419.71,-481 845.08,-715.6 849.36,-717.9 37.05,-20.1 50.77,-66.6 30.63,-103.6 -13.86,-25.6 -40.11,-40 -67.23,-40"
           style="fill:#371a45;fill-opacity:1;fill-rule:nonzero;stroke:none"
           id="path240" /></g><g
         id="g242"
         transform="scale(1.29308)"><path
           d="m 16200.5,16300 c -9.3,-96.7 -32.7,-188.5 -62.1,-278 -28.6,-90 -68.2,-175.1 -109,-260 -41.8,-84.3 -87.9,-166.7 -139.4,-246.4 -26.4,-39.4 -52.7,-79 -82.5,-116.6 -29.6,-38.8 -58.6,-73.6 -96.9,-112.2 -42.3,-42.8 -111.3,-43.1 -154,-0.8 -39.3,39 -42.8,100.3 -10.2,143.1 l 4.2,5.5 76.8,101.5 79.1,106.6 c 53.1,71.3 105.1,144.2 157.5,217.5 52.6,73.4 102.2,148.9 157.8,222.1 27.5,36.8 54.9,73.9 85,110 29.1,36.6 59.3,72.9 93.7,107.7"
           style="fill:#371a45;fill-opacity:1;fill-rule:nonzero;stroke:none"
           id="path244" /></g><g
         id="g246"
         transform="scale(1.95776)"><path
           d="m 10052.8,16271.5 c 17.5,-14.3 30.6,-25.9 44.9,-38.9 14.4,-12.5 27.1,-25.9 40.6,-38.9 26.3,-26.3 52,-53 76,-80.9 l 36.4,-41.5 34.5,-42.9 c 23.4,-28.3 45.1,-57.7 66.7,-87.2 85.8,-118.4 161,-243.3 228.2,-371.9 64.8,-129.7 125,-261.4 169.6,-398.8 l 17.7,-51 14.6,-52.1 c 9.9,-34.7 19.5,-69.3 28.3,-104.2 16.9,-69.9 29.5,-141 40.5,-212 -35.7,63.1 -66.6,127.2 -98.7,190.4 -34.4,62.3 -63.8,126.3 -98.2,187.8 -16.5,31 -33.9,61.5 -49.6,92.7 -16.2,31.1 -34.4,61.1 -51.4,91.6 -33,61.5 -70.2,120.6 -105.9,180.2 -74.3,117.5 -152.4,232 -237,340.7 -41.7,54.7 -85.5,107.8 -130.5,159 -11.1,13.1 -22.5,25.7 -34.1,38.1 -11.6,12.3 -22.6,25.4 -34.4,37.3 l -35.01,36.1 c -11.24,11.6 -24.21,24.1 -33.61,32.9 l -3.37,3.1 c -34.99,32.6 -36.93,87.4 -4.34,122.3 31.21,33.6 83.03,36.6 118.13,8.1"
           style="fill:#371a45;fill-opacity:1;fill-rule:nonzero;stroke:none"
           id="path248" /></g><g
         id="g250"
         transform="scale(1.96185)"><path
           d="m 11247.9,10204.3 c -27.2,0 -53.5,14.4 -67.3,40 -20.2,37.1 -6.4,83.5 30.8,103.6 4.1,2.3 429.6,236.9 849.2,717.9 385.3,441.7 845,1188.6 847.5,2239.1 2.4,989.4 -430.3,1655.8 -793.6,2040.6 -428.5,453.8 -1006.4,759.9 -1508.1,798.7 -42.1,3.3 -73.6,40.1 -70.4,82.2 3.3,42.1 40.4,73.6 82.2,70.3 546.2,-42.3 1147.1,-358.6 1607.5,-846.2 382.4,-405 837.8,-1106.1 835.3,-2146 -2.6,-1100.3 -485,-1881.9 -889.2,-2343.8 -437.5,-499.9 -869.3,-737.3 -887.5,-747.2 -11.6,-6.2 -24.1,-9.2 -36.4,-9.2"
           style="fill:#371a45;fill-opacity:1;fill-rule:nonzero;stroke:none"
           id="path252" /></g><g
         id="g254"
         transform="scale(1.61233)"><path
           d="m 15468.7,16299.8 c -121.5,-596.8 -552.2,-1939.9 -2009.3,-2517.3 l -215.1,582.3 c -18.7,50.8 -74.1,78.6 -126.3,62.7 l -720.9,-218.1 c -52.1,-15.8 -82.7,-69.4 -70.2,-122.4 l 36.4,-152.4 c -30.5,-24.1 -45.9,-64.4 -36.4,-104.6 l 70.5,-296.2 c -158.1,-15.8 -324,-23.9 -498.6,-23.9 -226.8,0 -439.4,13.8 -638.7,39.9 l 66.8,280.2 c 9.5,40.2 -5.7,80.7 -36.3,104.6 v 0.2 l 36.3,152.2 c 12.7,53 -18,106.6 -70.1,122.4 l -721,218.1 c -51.9,15.9 -107.3,-11.9 -126.1,-62.7 l -196.1,-530.2 c -1357.45,602.8 -1766.92,1886.2 -1884.94,2465.4 512.86,-415.6 1071.68,-680.8 1591.05,-849.6 l -61.28,-465.1 c -7.32,-53.6 28.91,-103.8 82.06,-114.3 l 739.51,-143.1 c 53.4,-10.3 105.6,22.5 119,75.1 l 107.8,419.4 c 587.8,-85 992,-57 992,-57 0,0 404.4,-28 992.1,57 l 107.7,-419.4 c 13.4,-52.6 65.8,-85.4 119,-75.1 l 739.5,143.1 c 53.4,10.5 89.5,60.7 82.2,114.3 l -61.5,465.1 c 519.7,168.8 1078.1,434 1590.9,849.4"
           style="fill:#371a45;fill-opacity:1;fill-rule:nonzero;stroke:none"
           id="path256" /></g><g
         id="g258"
         transform="scale(1.62071)"><path
           d="m 11298.7,13547.1 c 172.2,-19 353,-28.6 538.6,-28.6 136.6,0 270.3,5.2 398.7,15.4 l -49.2,206.4 c -11.9,50.1 -1.5,102.4 26.7,143.8 l -26.7,111.9 c -21.9,93.1 32.3,187.4 123.3,215 l 717.3,217 c 91.5,27.7 188.9,-20.7 222,-110.2 l 185.9,-503 c 1209.6,514.6 1662.4,1590.7 1826.4,2203.8 -403.5,-295.4 -863,-531.1 -1369.3,-702.2 l 52.6,-398.3 c 12.9,-94.1 -50.6,-182.5 -144.5,-201 l -735.8,-142.5 c -93.9,-18 -185.8,40.1 -209.4,132.5 l -89.6,349.2 c -519.3,-69.2 -878.4,-51 -928.4,-47.9 -50,-3 -409,-21.3 -928.3,47.9 l -89.8,-349.4 c -23.6,-92.1 -115.5,-150.3 -209.3,-132.3 l -735.68,142.5 c -94.03,18.5 -157.4,106.9 -144.51,201.3 l 52.45,398 c -506.69,171.2 -966.12,406.9 -1369.47,702.3 157.59,-588.3 585.06,-1615.7 1703.91,-2148.9 l 165.7,448 c 33.1,89.6 130.4,138 221.9,110.2 l 717.1,-216.9 c 91.4,-27.7 145.6,-122.2 123.5,-215.1 l -26.8,-111.7 c 28.2,-41.3 38.7,-93.5 26.8,-143.9 l -46.1,-193.3 m 538.6,-185.6 c -223.7,0 -440.9,13.7 -645.6,40.4 -22.1,2.9 -41.8,15 -54.4,33.4 -12.6,18.3 -16.9,41.1 -11.7,62.6 l 66.4,278.8 c 2.2,9 -1,18.5 -8,24 -19.1,14.8 -30.3,37.7 -30.3,61.8 0,6.2 0.8,12.5 2.2,18.5 l 36.1,151.5 c 3,12.2 -4.2,24.7 -16.2,28.4 l -717.1,216.9 c -12.1,3.6 -24.8,-2.7 -29.2,-14.4 l -195.1,-527.6 c -7.6,-20.4 -23.2,-36.6 -43.2,-45.1 -19.9,-8.4 -42.5,-8.2 -62.3,0.6 -1398.13,620.9 -1808.63,1961.3 -1920.25,2508.7 -6.6,32.5 7.9,65.6 36.22,82.8 28.32,17.2 64.35,14.8 90.08,-6.1 444.68,-360.4 968.78,-640.1 1557.78,-831.6 35.97,-11.7 58.43,-47.4 53.5,-84.9 l -60.97,-462.6 c -1.66,-12.4 6.85,-24.1 19.01,-26.5 l 735.43,-142.3 c 12.4,-2.4 24.4,5.2 27.4,17.1 l 107.3,417.3 c 10,38.8 47.6,63.9 87.2,58.1 568.5,-82.2 966.3,-56.2 970.2,-56 3.6,0.3 7.3,0.3 10.9,0 3.9,-0.2 401.9,-26.2 970.4,56 39.6,5.8 77.3,-19.3 87.2,-58.2 l 107.1,-417.1 c 3,-12.1 15,-19.7 27.4,-17.2 l 735.7,142.4 c 12.2,2.4 20.7,13.8 19,26 l -61.2,463 c -5,37.5 17.5,73.2 53.5,84.9 588.5,191.2 1112.6,471 1557.6,831.4 25.7,20.8 61.7,23.3 90.1,6.1 28.3,-17.2 42.8,-50.3 36.2,-82.7 -116.7,-572.6 -549.7,-1968.3 -2047,-2561.6 -19.6,-7.8 -41.6,-7.3 -60.8,1.3 -19.3,8.7 -34.4,24.7 -41.7,44.5 l -214,579.3 c -4.3,11.7 -17.2,18.1 -29.3,14.4 l -717.2,-216.9 c -12,-3.7 -19.1,-16.3 -16.2,-28.7 l 36.2,-151.5 c 7.1,-29.6 -3.7,-60.7 -27.6,-79.7 -5.6,-4.4 -11.2,-13.4 -8.6,-24.5 l 70.2,-294.5 c 5.3,-22 0.7,-45.2 -12.4,-63.7 -13.1,-18.5 -33.6,-30.3 -56.1,-32.6 -160.5,-16 -330.1,-24.2 -503.9,-24.2"
           style="fill:#371a45;fill-opacity:1;fill-rule:nonzero;stroke:none"
           id="path260" /></g><g
         id="g262"
         transform="scale(1.62261)"><path
           d="m 11255.2,13997.7 h 0.2 z m -815.7,149 c 15.7,0 31.7,-2.3 47.5,-7.1 l 688.9,-208.4 19.3,80.8 c 4.9,20.9 -7.2,42.1 -27.7,48.3 l -716.3,216.7 c -20.5,6.4 -42.3,-4.5 -49.7,-24.6 l -48.2,-130.3 c 25.6,15.8 55.5,24.6 86.2,24.6 z m 738.6,-346.2 0.1,-0.1 z m -2517.69,1214.4 c 245.47,-487.9 685.07,-1079 1453.69,-1439.8 l 40.8,110.4 c -10.6,-1 -21.2,0.6 -31.1,5 -718.97,319.3 -1175.21,830.3 -1463.39,1324.4 z m 1488.39,-1585.1 c -8.6,0 -17.1,1.7 -25,5.3 -933.69,414.7 -1415.5,1152.2 -1655.24,1698 -259.21,590 -297.85,1075.7 -299.39,1096.1 -1.85,24.8 11.34,48.2 33.4,59.5 22.12,11.3 48.81,8.2 67.79,-7.8 14.42,-12.1 29.09,-24.2 43.7,-35.7 12.08,-9.6 20.03,-23.2 22.55,-38.2 106.07,-518.8 490.01,-1772.2 1777.49,-2376.5 l 171.8,464.6 c 30.1,81.2 118.5,125 201.1,99.9 l 716.2,-216.6 c 82.9,-25.2 132,-110.8 111.9,-195 v 0 l -36,-150.6 c -4.1,-18.1 -16.2,-33.8 -33.4,-42 -21.4,-10.3 -46.7,-7.5 -65.3,7.4 -1.2,0.8 -2.8,1.9 -4.2,2.9 l -1.3,0.8 c -1.6,0.7 -3.2,1.5 -4.7,2.4 l -719,217.3 c -20.5,6.4 -42.3,-4.6 -49.7,-24.6 l -194.9,-526.9 c -5.9,-16 -18.2,-28.8 -33.8,-35.5 -7.7,-3.2 -15.9,-4.8 -24,-4.8"
           style="fill:#371a45;fill-opacity:1;fill-rule:nonzero;stroke:none"
           id="path264" /></g><g
         id="g266"
         transform="scale(1.3468)"><path
           d="m 13500.3,15985.6 c 237.6,-30.3 487.5,-45.6 744.4,-45.6 198.8,0 392.3,9 576.7,26.9 l -37,155.2 c -173.1,-15.2 -354.3,-22.9 -539.7,-22.9 -244.2,0 -481.9,13.5 -707.8,40.1 z m 744.4,-194.1 c -293.1,0 -577.8,19.5 -846.2,57.9 -20.6,3 -39,14.6 -50.8,31.8 -11.7,17.3 -15.6,38.6 -10.8,59 l 71,298.2 c 8.8,37 44,61.6 81.9,56.5 239.1,-31.4 493,-47.2 754.9,-47.2 203.6,0 402,9.5 589.6,28.2 37.1,3.5 71,-20.5 79.6,-56.6 l 71.5,-300.2 c 4.9,-20.6 0.7,-42.5 -11.4,-59.8 -12.3,-17.4 -31.4,-28.8 -52.5,-31.2 -214.5,-24.3 -442.2,-36.6 -676.8,-36.6"
           style="fill:#371a45;fill-opacity:1;fill-rule:nonzero;stroke:none"
           id="path268" /></g><g
         id="g270"
         transform="scale(1.6226)"><path
           d="m 13064.6,14278.9 c -4,0 -7.9,-0.5 -11.9,-1.7 l -716.3,-216.8 c -20.4,-6.1 -32.6,-27.5 -27.6,-48.5 l 19.2,-80.6 689.1,208.5 c 46.6,14.1 94.9,6.3 133.6,-17.6 l -48.1,130.3 c -6,16.3 -21.4,26.4 -38,26.4 z m -733.3,-475.5 -0.1,-0.1 z m -1.5,-0.6 -0.2,-0.1 z m -0.2,-0.1 v 0 z m 1038.6,-168.8 41.7,-113 c 799.8,335.2 1273.3,914.7 1552.3,1452.8 -306.5,-509.6 -793.7,-1030 -1565.3,-1335.7 -9.2,-3.7 -19,-5.1 -28.7,-4.1 z m 6,-255.7 c -8.6,0 -17.1,1.8 -25.1,5.4 -15.2,6.7 -27,19.3 -32.7,34.9 l -213.8,578.6 c -7.4,20 -29.3,30.9 -49.9,24.6 l -720.2,-218 c -1.5,-0.8 -2.6,-1.4 -3.8,-1.9 l -1,-0.6 c -1.2,-0.9 -2.4,-1.7 -3.5,-2.4 -16.5,-13.3 -38.9,-17.5 -58.9,-10.6 -20,6.8 -35.4,23.3 -40.3,43.9 l -36.2,151.4 c -19.8,84.3 29.4,169.8 111.8,194.9 l 716.5,216.8 c 82.7,25 171.2,-18.8 201.1,-99.9 l 191.7,-518.9 c 1384.2,579.9 1789.7,1889.3 1900.3,2431.7 2.7,14.4 10.4,27.4 22,36.7 14.8,11.9 29.7,24.1 44.6,36.5 19,15.8 45.7,18.7 67.6,7.4 22,-11.3 35.1,-34.7 33.2,-59.4 -1.6,-21.3 -42,-529.2 -317.7,-1137.1 -254.9,-562.3 -767.7,-1315.3 -1763,-1709.7 -7.3,-2.9 -15,-4.3 -22.7,-4.3"
           style="fill:#371a45;fill-opacity:1;fill-rule:nonzero;stroke:none"
           id="path272" /></g><g
         id="g274"
         transform="scale(1.83481)"><path
           d="m 14172.7,14017 c -140.8,0 -58.4,371.5 -181.4,1071.3 -113.6,645.6 -478.9,1211.7 -335,1211.7 31.9,0 88.8,-27.7 178.9,-88.5 211.8,-143 467.6,-494.6 582.1,-964.6 119.8,-491.7 99.4,-1063.1 -158.7,-1201.5 -35.4,-19 -63.5,-28.4 -85.9,-28.4"
           style="fill:#ffaf79;fill-opacity:1;fill-rule:nonzero;stroke:none"
           id="path276" /></g><g
         id="g278"
         transform="scale(1.75507)"><path
           d="m 12786,14550.1 c -770.4,-0.1 -1150.2,852.9 -1150.2,852.9 l 55.1,20.2 c 128,-216 479.6,-700.1 1059.6,-700.1 58.1,0 118.6,4.9 181.3,15.4 v 0 c 12.6,1.8 25.3,4.1 38,6.7 123.2,24.7 231.8,66.3 327.6,120.4 v 0 0 c 54.6,30.7 104.9,65.6 151.4,103.6 v 0 c 186.5,152.7 311.5,357.8 395.2,563.8 v 0 0 c 119.6,293.7 155.4,589.4 166,737.8 l 80.4,29.2 c 0,0 -1.4,-446.4 -176.1,-888.7 -86.4,-219.1 -215.3,-437.1 -407.8,-599.6 -48,-40.4 -99.9,-77.4 -156.1,-110.1 -99,-57.5 -211.1,-101.8 -338.1,-128.1 -13.2,-2.7 -26.3,-5.2 -39.2,-7.1 -64.7,-11.1 -127.1,-16.3 -187.1,-16.3"
           style="fill:#ffbc8f;fill-opacity:1;fill-rule:nonzero;stroke:none"
           id="path280" /></g><g
         id="g282"
         transform="scale(1.75507)"><path
           d="m 9085.94,14550.1 c -59.99,0 -122.38,5.2 -187.11,16.3 -12.93,1.9 -26.04,4.4 -39.15,7.1 -127.05,26.3 -239.19,70.6 -338.1,128.1 -56.24,32.7 -108.2,69.7 -156.18,110.1 -192.47,162.5 -321.41,380.5 -407.79,599.6 -174.69,442.3 -176,888.7 -176,888.7 l 90.31,-32.9 c 24.1,-328.2 169.05,-1347.7 1040.02,-1522 76.23,-15.2 149.16,-22.2 218.79,-22.2 577.58,0 928.77,479.9 1058.27,697.4 l 47.2,-17.3 c 0,0 -379.92,-852.9 -1150.26,-852.9"
           style="fill:#ffbc8f;fill-opacity:1;fill-rule:nonzero;stroke:none"
           id="path284" /></g><g
         id="g286"
         transform="scale(1.76247)"><path
           d="m 13955.8,16300 c 0,0 -1.3,-418 -169.9,-832.2 -83.4,-205.1 -207.8,-409.4 -393.6,-561.5 -46.3,-37.8 -96.4,-72.5 -150.7,-103.1 -95.5,-53.9 -203.6,-95.3 -326.3,-119.9 -12.6,-2.6 -25.3,-4.9 -37.8,-6.7 -864.6,-144.5 -1290.6,783.4 -1290.6,783.4 l 59.5,21.2 c 196.5,-264.7 576.7,-625.4 1143.9,-524.9 8.7,1.4 17.4,3 26.2,4.8 85.1,17 163.2,42.2 234.9,74.2 47.7,20.8 92.8,45 135.1,71.6 181.2,114.3 313.5,274.8 409.7,448.2 132.6,237.7 197.7,499.6 229.7,699 l 129.9,45.9"
           style="fill:#ff791f;fill-opacity:1;fill-rule:nonzero;stroke:none"
           id="path288" /></g><g
         id="g290"
         transform="scale(1.68193)"><path
           d="m 14033.6,15620.1 -215.7,210.2 c 189.9,119.8 328.5,287.9 429.3,469.7 l 198.9,-91.6 c -87.4,-214.9 -217.8,-428.9 -412.5,-588.3 v 0"
           style="fill:#ffbc8f;fill-opacity:1;fill-rule:nonzero;stroke:none"
           id="path292" /></g><g
         id="g294"
         transform="scale(1.62572)"><path
           d="m 13960.7,15911.1 -94.5,303.2 c 9.4,1.6 18.8,3.3 28.4,5.3 92.2,18.4 176.9,45.7 254.6,80.4 l 206.3,-251.6 c -103.6,-58.4 -220.8,-103.3 -353.8,-130 -13.7,-2.8 -27.4,-5.3 -41,-7.3 v 0"
           style="fill:#ffbc8f;fill-opacity:1;fill-rule:nonzero;stroke:none"
           id="path296" /></g><g
         id="g298"
         transform="scale(1.77069)"><path
           d="m 11866.6,15030.3 c 205.3,-219.7 529,-433.9 974.7,-344.8 v 0 c 721.2,144.4 910.7,930.9 960.3,1320.4 -99.2,-441.3 -357.7,-1050.1 -1030.4,-1184.6 -380.6,-76.1 -682.8,44.6 -904.6,209 z m 988.8,-415.2 h 0.3 z m -215.6,-93.8 c -777.9,0 -1167.6,827.9 -1171.8,837 -8.4,18.4 -8.7,39.4 -0.9,58 7.9,18.6 23.2,33 42.2,39.7 l 59.1,21 c 29.8,10.5 62.9,0.4 81.7,-24.9 209,-281.4 568.1,-594.9 1092.9,-489.9 674.6,134.9 883.3,827.2 947.8,1227.8 4.2,26 22.2,47.6 47,56.3 l 129.2,45.9 c 22,7.8 46.5,4.4 65.6,-9.1 19,-13.5 30.3,-35.5 30.3,-58.8 -0.1,-14.8 -2.6,-367.1 -134.9,-750.5 -178.8,-518.1 -510.2,-839.4 -958.5,-929.2 v 0 c -79.9,-15.9 -156.6,-23.3 -229.7,-23.3"
           style="fill:#371a45;fill-opacity:1;fill-rule:nonzero;stroke:none"
           id="path300" /></g><g
         id="g302"
         transform="scale(1.7575)"><path
           d="m 13865,16300 c -69.3,-430.6 -292.4,-1152.6 -1012.2,-1296.5 -583.4,-116.8 -973.4,252 -1173.4,521.4 L 13865,16300"
           style="fill:#371a45;fill-opacity:1;fill-rule:nonzero;stroke:none"
           id="path304" /></g><g
         id="g306"
         transform="scale(1.76578)"><path
           d="m 11743.3,15417.7 c 215.5,-258.5 556.7,-509.7 1035.1,-413.9 612.5,122.4 842.1,703.2 928,1110.2 z m 832.7,-578.6 c -503.4,0 -841.7,344.5 -1009.2,570.1 -13.6,18.3 -17.7,42.1 -11,63.9 6.6,21.9 23.2,39.3 44.8,46.9 l 2175.3,771.5 c 24,8.5 50.7,3.7 70.2,-12.6 19.6,-16.2 29,-41.6 25,-66.7 -70.6,-438.7 -302.6,-1197.4 -1064.4,-1349.7 -80.4,-16.1 -157.3,-23.4 -230.7,-23.4"
           style="fill:#371a45;fill-opacity:1;fill-rule:nonzero;stroke:none"
           id="path308" /></g><g
         id="g310"
         transform="scale(1.7575)"><path
           d="m 7986.5,16300 c 69.25,-430.6 292.4,-1152.6 1012.17,-1296.5 583.45,-116.8 973.38,252 1173.43,521.4 L 7986.5,16300"
           style="fill:#371a45;fill-opacity:1;fill-rule:nonzero;stroke:none"
           id="path312" /></g><g
         id="g314"
         transform="scale(1.76579)"><path
           d="m 8042.65,16114 c 85.91,-407.1 315.5,-987.8 927.92,-1110.3 478.37,-95.7 819.64,155.5 1035.13,414 L 8042.65,16114 m 1130.38,-1274.9 c -73.45,0 -150.3,7.3 -230.72,23.4 -761.7,152.3 -993.83,910.9 -1064.4,1349.6 -4.02,25.2 5.5,50.5 25.03,66.8 19.48,16.3 46.21,21.1 70.17,12.5 L 10148.5,15520 c 21.5,-7.7 38.1,-25.1 44.8,-46.9 6.6,-21.9 2.6,-45.6 -11.1,-64 -167.4,-225.5 -505.88,-570 -1009.17,-570"
           style="fill:#371a45;fill-opacity:1;fill-rule:nonzero;stroke:none"
           id="path316" /></g><g
         id="g318"
         transform="scale(1.61531)"><path
           d="m 12284,15976.2 c -89.3,-166.6 -407.1,21.1 -407.1,21.1 0,0 -317.7,-187.7 -407.4,-21.3 127.6,165.9 407.4,324 407.4,324 0,0 279.7,-157.9 407.1,-323.8"
           style="fill:#371a45;fill-opacity:1;fill-rule:nonzero;stroke:none"
           id="path320" /></g><g
         id="g322"
         transform="scale(1.62171)"><path
           d="m 11506.7,15914.8 c 3.8,-1.7 7.9,-3.2 12.4,-4.5 83,-23.1 233.4,49.6 279.5,76.9 19.3,11.4 43.4,11.4 62.7,0 69.1,-40.6 205.9,-97.3 279.5,-76.8 4.5,1.2 8.6,2.8 12.4,4.6 -100,108.2 -257.5,209.1 -323.2,249 -65.7,-39.9 -223.3,-140.9 -323.3,-249.2 m 48,-132 c -23.6,0 -46.8,2.6 -68.7,8.7 -51.1,14.3 -91.3,46.1 -116,92.1 -11.6,21.4 -9.5,47.6 5.3,66.8 133.2,173.3 412.6,332.3 424.4,338.9 18.8,10.6 41.8,10.7 60.6,0 11.8,-6.6 291.1,-165.4 424.1,-338.7 14.8,-19.2 16.9,-45.3 5.5,-66.7 -24.8,-46.1 -64.9,-78 -116,-92.3 -119.5,-33.4 -276.3,36.9 -343.9,72.1 -55.3,-28.8 -170,-80.9 -275.3,-80.9"
           style="fill:#371a45;fill-opacity:1;fill-rule:nonzero;stroke:none"
           id="path324" /></g><g
         id="g326"
         transform="scale(1.56517)"><path
           d="m 12575.1,16074.1 c -15,0 -30.4,1.2 -45.9,3.2 -71.1,9.4 -144.6,37.9 -197.4,62.2 -44.8,20.8 -74.6,38.3 -74.6,38.3 0,0 -27,-15.9 -68.4,-35.5 -51.5,-24 -125.7,-53.5 -197.6,-64.1 -17.4,-2.6 -34.8,-4.1 -51.7,-4.1 -65.5,0 -123.8,22.1 -154.6,86.6 -17.8,37.3 -15.2,77.8 1.3,119.5 31.1,-62.4 88.7,-83.9 153.3,-83.9 16.9,0 34.3,1.5 51.7,4.1 v 0 c 71.9,10.6 146.1,40.1 197.6,64.1 v 0 c 41.4,19.6 68.4,35.5 68.4,35.5 0,0 29.8,-17.5 74.6,-38.3 v 0 c 52.8,-24.3 126.3,-52.7 197.4,-62.1 v 0 0 0 c 15.5,-2.1 30.9,-3.3 45.9,-3.3 64.5,0 122,21.5 153.2,83.9 16.5,-41.7 19.1,-82.3 1.3,-119.5 -30.8,-64.4 -89.1,-86.6 -154.5,-86.6"
           style="fill:#ffbc8f;fill-opacity:1;fill-rule:nonzero;stroke:none"
           id="path328" /></g><g
         id="g330"
         transform="scale(1.58531)"><path
           d="m 12567.9,16076 c -37.4,-78.2 -115.8,-93.3 -197.9,-82.2 -70.2,9.2 -142.8,37.4 -194.9,61.3 -44.2,20.5 -73.6,37.8 -73.6,37.8 0,0 -26.7,-15.7 -67.5,-35 -50.9,-23.7 -124.1,-52.9 -195.1,-63.3 -84.2,-12.5 -165.5,1.4 -203.7,81.4 -29.6,61.8 -2.2,132.7 51.3,202.3 37.7,-70 115.2,-78.4 193,-64.3 56.1,10.2 112.6,32.3 154.5,51.4 40.6,18.8 67.5,34.6 67.5,34.6 0,0 29.8,-17.5 73.6,-37.2 42.9,-19.3 98.9,-40.6 154.5,-49.7 75.8,-12.8 150.2,-3 186.8,65.4 53.7,-69.6 81.1,-140.7 51.5,-202.5"
           style="fill:#ff791f;fill-opacity:1;fill-rule:nonzero;stroke:none"
           id="path332" /></g><g
         id="g334"
         transform="scale(1.58195)"><path
           d="m 11864,16028.6 40.8,219.8 c 56.2,10.3 112.8,32.4 154.7,51.6 v -208 0 c -51,-23.7 -124.3,-52.9 -195.5,-63.4"
           style="fill:#ffbc8f;fill-opacity:1;fill-rule:nonzero;stroke:none"
           id="path336" /></g><g
         id="g338"
         transform="scale(1.5817)"><path
           d="m 12398.2,16030.3 c -70.3,9.3 -143,37.5 -195.2,61.4 v 208.3 c 42.9,-19.3 99.1,-40.7 154.7,-49.8 l 40.5,-219.9"
           style="fill:#ffbc8f;fill-opacity:1;fill-rule:nonzero;stroke:none"
           id="path340" /></g><g
         id="g342"
         transform="scale(1.59172)"><path
           d="m 11650.6,16111.5 c -11.2,-25.7 -15.8,-51.7 -5.5,-73.2 10.9,-22.8 26.3,-36.2 50.1,-43.5 95.3,-29.1 271.6,55.4 325.8,87.3 19.7,11.6 44.2,11.6 63.8,0 54.2,-31.9 230.2,-116.4 325.6,-87.3 23.9,7.3 39.4,20.7 50.2,43.5 10.4,21.5 5.8,47.7 -5.6,73.4 -15.6,-9.7 -32.9,-17.3 -51.8,-22.6 -121.7,-34 -281.4,37.6 -350.4,73.5 -68.9,-35.9 -228.6,-107.5 -350.4,-73.6 -18.8,5.2 -36.1,12.8 -51.8,22.5 z m 714.6,-248.2 c -120.1,0 -251.5,60.9 -312.4,92.9 -75,-39.6 -257.9,-123.2 -394.1,-81.6 -57.2,17.4 -101.1,55.3 -127,109.5 -37.4,78.2 -18,168.1 57.9,266.8 13,16.9 33.7,26.2 54.9,24.4 21.3,-1.8 40.2,-14.1 50.3,-32.8 9.2,-17 21.9,-27.1 41.3,-32.4 84.5,-23.6 237.8,50.4 284.8,78.3 19.7,11.6 44.2,11.6 63.9,0 70.3,-41.4 209.8,-99.2 284.7,-78.2 19.4,5.4 32.1,15.4 41.2,32.4 10.1,18.8 29,31.1 50.2,32.9 21.2,1.8 41.9,-7.4 54.9,-24.3 76.2,-98.7 95.8,-188.6 58.2,-267.1 -25.9,-54.3 -69.9,-92.1 -127.1,-109.6 -25.9,-7.8 -53.5,-11.2 -81.7,-11.2"
           style="fill:#371a45;fill-opacity:1;fill-rule:nonzero;stroke:none"
           id="path344" /></g><g
         id="g346"
         transform="scale(1.76248)"><path
           d="m 8874.46,14683.1 c 889.94,-178.1 1328.34,776.8 1328.34,776.8 l -59.4,21.1 c -199.54,-268.6 -588.37,-636.4 -1170.16,-519.9 -717.74,143.5 -940.26,863.4 -1009.31,1292.8 l -129.87,46.1 c 0,0 3.96,-1409.4 1040.4,-1616.9"
           style="fill:#ff791f;fill-opacity:1;fill-rule:nonzero;stroke:none"
           id="path348" /></g><g
         id="g350"
         transform="scale(1.68193)"><path
           d="m 9020.28,15827.3 c -191.33,119.1 -330.93,287.6 -432.78,469.7 l 6.6,3 c 100.84,-181.8 239.43,-349.9 429.33,-469.7 l -3.15,-3"
           style="fill:#9b8da2;fill-opacity:1;fill-rule:nonzero;stroke:none"
           id="path352" /></g><g
         id="g354"
         transform="scale(1.68162)"><path
           d="m 8809.36,15623 c -194.69,159.5 -325.1,373.5 -412.51,588.5 l 192.25,88.5 c 101.87,-182.1 241.49,-350.6 432.86,-469.8 l -212.6,-207.2"
           style="fill:#ffbc8f;fill-opacity:1;fill-rule:nonzero;stroke:none"
           id="path356" /></g><g
         id="g358"
         transform="scale(1.62572)"><path
           d="m 9764.45,16212.9 c -12.06,2 -24.17,4.3 -36.35,6.8 -89.81,17.9 -172.54,44.2 -248.63,77.3 l 2.46,3 c 77.63,-34.7 162.33,-62 254.53,-80.4 9.6,-2 19.01,-3.7 28.42,-5.3 l -0.43,-1.4"
           style="fill:#9b8da2;fill-opacity:1;fill-rule:nonzero;stroke:none"
           id="path360" /></g><g
         id="g362"
         transform="scale(1.62543)"><path
           d="m 9672.09,15914 c -13.53,2 -27.25,4.5 -40.97,7.3 -132.95,26.7 -250.27,71.6 -353.82,130 l 203.89,248.7 c 76.1,-33.2 158.85,-59.5 248.67,-77.4 12.18,-2.5 24.3,-4.7 36.36,-6.8 l -94.13,-301.8"
           style="fill:#ffbc8f;fill-opacity:1;fill-rule:nonzero;stroke:none"
           id="path364" /></g><g
         id="g366"
         transform="scale(1.77069)"><path
           d="m 8847.47,14685.5 c 445.76,-89.1 769.59,125.2 974.82,344.9 -221.84,-164.4 -524.03,-285.3 -904.74,-209.1 -672.73,134.5 -931.21,743.3 -1030.39,1184.6 49.65,-389.5 239.06,-1176 960.31,-1320.4 z m 201.45,-164.2 c -73.14,0 -149.66,7.4 -229.63,23.3 h -0.06 c -448.19,89.8 -779.64,411.1 -958.44,929.2 -132.32,383.4 -134.86,735.7 -134.86,750.5 -0.06,23.3 11.24,45.3 30.27,58.8 19.09,13.5 43.54,16.9 65.51,9.1 l 129.33,-45.9 c 24.73,-8.7 42.75,-30.3 46.93,-56.3 64.44,-400.6 273.28,-1092.9 947.77,-1227.8 524.76,-105 883.95,208.5 1092.96,489.9 18.8,25.3 51.9,35.4 81.7,24.9 l 59.1,-21 c 19,-6.7 34.3,-21.1 42.2,-39.7 7.8,-18.6 7.5,-39.6 -0.9,-58 -4.2,-9.1 -394.11,-837 -1171.88,-837"
           style="fill:#371a45;fill-opacity:1;fill-rule:nonzero;stroke:none"
           id="path368" /></g><g
         id="g370"
         transform="scale(1.83867)"><path
           d="m 6635.94,15011.2 c -56.89,0 -110.62,68.4 -141.24,260.4 -45.85,287.6 264.76,850.1 524.45,997.4 36.5,20.7 74.95,31 109.92,31 113.07,0 189.49,-107.8 44.11,-319.7 -101.27,-147.6 -271.18,-500.1 -327.95,-700.1 -33.83,-119.4 -125.04,-269 -209.29,-269"
           style="fill:#ffaf79;fill-opacity:1;fill-rule:nonzero;stroke:none"
           id="path372" /></g><g
         id="g374"
         transform="scale(1.84355)"><path
           d="m 9838.84,15736.6 c -58.42,0 -115.65,27.5 -140.92,100.1 -61.19,175.8 133.6,415.3 275.99,453.2 25.22,6.7 47.69,10.1 66.99,10.1 75.7,0 101.8,-52.2 48.7,-159.8 -41.8,-84.5 -64.3,-204.6 -84.3,-301.4 -11.38,-55 -89.92,-102.2 -166.46,-102.2"
           style="fill:#ffaf79;fill-opacity:1;fill-rule:nonzero;stroke:none"
           id="path376" /></g><g
         id="g378"
         transform="scale(1.67644)"><path
           d="m 7196.22,15527.3 c -34.95,0 -76.29,9.9 -124.43,33.1 -180.44,86.8 -197.8,447.3 -24.93,666.5 36.8,46.6 95.08,73.1 150.73,73.1 81.66,0 157.66,-57.1 151.75,-191.6 -4.71,-107.4 24.4,-300.3 6.03,-420.9 -12.53,-82.6 -61.26,-160.2 -159.15,-160.2"
           style="fill:#ffaf79;fill-opacity:1;fill-rule:nonzero;stroke:none"
           id="path380" /></g><g
         id="g382"
         transform="scale(1.95084)"><path
           d="m 15688,7672.28 c 0,0 612,-225.18 526.6,-489.99 -91.6,-283.83 -338.7,-568.42 -338.7,-568.42 L 15688,7672.28"
           style="fill:#ffffff;fill-opacity:1;fill-rule:nonzero;stroke:none"
           id="path384" /></g><g
         id="g386"
         transform="scale(1.95083)"><path
           d="m 15876,6613.91 -32.7,183.87 -132.5,745.73 -22.8,128.77 c 0,0 612,-225.19 526.7,-489.89 -91.5,-283.94 -338.7,-568.48 -338.7,-568.48"
           style="fill:#ffffff;fill-opacity:1;fill-rule:nonzero;stroke:none"
           id="path388" /></g><g
         id="g390"
         transform="scale(1.9194)"><path
           d="m 16258.3,7196.47 c -11.9,30.43 -27,58.72 -45.5,84.56 21.5,40.53 41.8,81.43 61,122.75 20.2,-42.88 26.2,-87.95 11.3,-134.16 -7.9,-24.44 -16.9,-48.87 -26.8,-73.15"
           style="fill:#b9afbe;fill-opacity:1;fill-rule:nonzero;stroke:none"
           id="path392" /></g><g
         id="g394"
         transform="scale(1.96344)"><path
           d="m 15700.3,7480.41 124.5,-700.86 c 71.9,102.57 158.8,244.16 203.6,383.2 31.8,98.76 -146.4,228.53 -328.1,317.66 m 20.3,-1102.15 -244.6,1377.79 141.1,-51.9 c 70.3,-25.87 682.9,-261.99 575.7,-594.42 -95.3,-295.45 -343.1,-582.8 -353.6,-594.93 l -118.6,-136.54"
           style="fill:#371a45;fill-opacity:1;fill-rule:nonzero;stroke:none"
           id="path396" /></g><g
         id="g398"
         transform="scale(1.99871)"><path
           d="m 15784.6,7793.39 c -29.2,-4.55 -56.5,15.41 -61,44.58 l -237,1521.19 c -4.6,29.17 15.4,56.49 44.6,61.04 306,47.68 592.7,-161.71 640.3,-467.7 l 80.8,-518.74 c 47.7,-306 -161.7,-592.74 -467.7,-640.37"
           style="fill:#ffffff;fill-opacity:1;fill-rule:nonzero;stroke:none"
           id="path400" /></g><g
         id="g402"
         transform="scale(2.00071)"><path
           d="m 15603,9402.38 c -28.2,0 -56.6,-2.2 -85,-6.64 -10.1,-1.55 -19,-6.95 -25,-15.2 -6,-8.24 -8.4,-18.29 -6.9,-28.39 l 236.8,-1519.66 c 1.6,-10.1 7,-18.95 15.2,-24.94 8.2,-6.05 18.3,-8.45 28.4,-6.9 296.9,46.23 500.8,325.43 454.5,622.33 l -80.7,518.22 c -22.4,143.79 -99.5,270.3 -217,356.17 -94.3,68.88 -205.6,105.01 -320.3,105.01 m 157.5,-1632.67 c -14.5,0 -28.5,4.55 -40.3,13.24 -14.8,10.8 -24.6,26.75 -27.4,44.84 L 15456,9347.45 c -2.7,18.15 1.6,36.29 12.4,51.09 10.8,14.79 26.8,24.49 44.9,27.29 151.9,23.69 303.9,-13.2 428,-103.87 124.1,-90.67 205.5,-224.22 229.1,-376.12 l 80.7,-518.16 c 48.9,-313.49 -166.4,-608.29 -479.9,-657.12 -3.6,-0.6 -7.2,-0.85 -10.7,-0.85"
           style="fill:#371a45;fill-opacity:1;fill-rule:nonzero;stroke:none"
           id="path404" /></g><g
         id="g406"
         transform="scale(1.98706)"><path
           d="m 15936.4,7940.47 c 8.6,85.35 12.6,171.26 12.1,257.52 0.7,33.86 0.8,67.94 0.3,101.95 130.7,47.66 236.3,141.27 300.6,258.83 l 13.9,-88.73 c 36.7,-235.87 -106.3,-458.96 -326.9,-529.57"
           style="fill:#b9afbe;fill-opacity:1;fill-rule:nonzero;stroke:none"
           id="path408" /></g><g
         id="g410"
         transform="scale(2.0064)"><path
           d="m 15515.7,9304.38 226.1,-1451.55 c 241.5,53.97 403.3,287.68 364.7,535.58 l -80.5,516.75 c -19.5,125.1 -86.5,235.15 -188.8,309.81 -93.8,68.53 -207,99.88 -321.5,89.41 m 199.9,-1626.09 c -29,0 -57.1,9.17 -81,26.56 -29.7,21.73 -49.2,53.68 -54.8,90.06 l -236.1,1515.35 c -5.7,36.39 3.1,72.77 24.9,102.48 21.7,29.7 53.7,49.19 90,54.87 169.7,26.51 339.6,-14.8 478.3,-116.13 138.8,-101.33 229.7,-250.6 256.1,-420.3 l 80.5,-516.75 c 26.5,-169.76 -14.8,-339.61 -116.1,-478.32 -101.3,-138.71 -250.6,-229.67 -420.3,-256.13 -7.2,-1.1 -14.4,-1.69 -21.5,-1.69"
           style="fill:#371a45;fill-opacity:1;fill-rule:nonzero;stroke:none"
           id="path412" /></g><g
         id="g414"
         transform="scale(1.32584)"><path
           d="m 15843.8,13021.8 c 44,6.8 85.3,-23.3 92.1,-67.2 l 357.2,-2293.3 c 6.9,-44 -23.2,-85.1 -67.2,-92 -461.3,-71.9 -893.4,243.8 -965.3,705.1 l -121.8,782 c -71.9,461.3 243.8,893.5 705,965.4"
           style="fill:#ffffff;fill-opacity:1;fill-rule:nonzero;stroke:none"
           id="path416" /></g><g
         id="g418"
         transform="scale(1.32747)"><path
           d="m 15827.9,12983.1 c -216.7,-33.8 -407.4,-150 -536.8,-327.1 -129.4,-177.2 -182,-394.1 -148.3,-610.9 l 121.7,-781 c 69.8,-447.5 490.5,-754.8 937.9,-685.1 31.4,4.9 52.9,34.3 48,65.7 l -356.8,2290.4 c -2.3,15.2 -10.5,28.6 -22.9,37.6 -12.4,9 -27.6,12.7 -42.8,10.4 m 247.6,-2459.9 c -419.8,0 -789.8,306.4 -856.4,733.8 l -121.6,781.1 c -35.7,228.8 19.9,457.9 156.5,644.9 136.7,187.1 338,309.8 566.9,345.4 27.2,4.3 54.5,-2.3 76.9,-18.6 22.3,-16.3 36.9,-40.3 41.2,-67.6 l 356.8,-2290.5 c 4.2,-27.2 -2.4,-54.6 -18.7,-76.9 -16.3,-22.3 -40.3,-37 -67.6,-41.2 -45,-7 -89.8,-10.4 -134,-10.4"
           style="fill:#371a45;fill-opacity:1;fill-rule:nonzero;stroke:none"
           id="path420" /></g><g
         id="g422"
         transform="scale(1.30995)"><path
           d="m 16290.9,10816.7 c -351.4,0 -661.5,256.4 -717.3,614.4 l -20.6,132.7 c 148.8,-127.4 340.6,-203.4 545,-206 54.7,-185.5 122.3,-366.2 202,-541 -3,-0.1 -6,-0.1 -9.1,-0.1"
           style="fill:#b9afbe;fill-opacity:1;fill-rule:nonzero;stroke:none"
           id="path424" /></g><g
         id="g426"
         transform="scale(1.33626)"><path
           d="m 15693.8,12786.2 c -168.8,-37.6 -316.3,-134 -419.1,-274.8 -112.2,-153.5 -157.9,-341.6 -128.6,-529.4 l 120.9,-775.9 c 58,-372.3 396.4,-632.4 766.3,-599.5 l -339.5,2179.6 m 275.9,-2436.3 c -467.4,0 -879.3,341.2 -953.4,817.1 l -121,775.9 c -39.6,254.8 22.3,509.9 174.4,718.2 152.1,208.3 376.3,344.8 631.2,384.5 54.5,8.5 109.1,-4.7 153.8,-37.3 44.6,-32.6 73.8,-80.6 82.3,-135.2 l 354.5,-2275.4 c 8.5,-54.5 -4.7,-109.2 -37.3,-153.8 -32.6,-44.6 -80.6,-73.9 -135.2,-82.3 -50.2,-7.9 -100,-11.7 -149.3,-11.7"
           style="fill:#371a45;fill-opacity:1;fill-rule:nonzero;stroke:none"
           id="path428" /></g><g
         id="g430"
         transform="scale(1.94756)"><path
           d="m 16175.9,8656.2 c 124.1,-1481.8 -976.5,-2783.63 -2458.3,-2907.74 -1481.8,-124.1 -2783.6,976.5 -2907.7,2458.3 -124.1,1481.8 976.5,2783.64 2458.3,2907.74 1481.8,124.1 2783.6,-976.6 2907.7,-2458.3"
           style="fill:#ffffff;fill-opacity:1;fill-rule:nonzero;stroke:none"
           id="path432" /></g><g
         id="g434"
         transform="scale(1.9456)"><path
           d="m 13508.5,11119.6 c -74.7,0 -149.8,-3.1 -225.6,-9.5 -713.2,-59.7 -1360.5,-393.6 -1822.6,-940.2 -462,-546.52 -683.6,-1240.29 -623.9,-1953.54 59.8,-713.21 393.6,-1360.46 940.2,-1822.53 546.5,-462.12 1240.3,-683.7 1953.5,-623.98 1472.4,123.31 2569.9,1421.47 2446.5,2893.77 -116.9,1396.58 -1291,2455.98 -2668.1,2455.98 m -6.5,-5390.61 c -639.3,0 -1251.9,223.43 -1745.6,640.89 -553,467.51 -890.8,1122.33 -951.2,1843.91 -60.4,721.52 163.7,1423.42 631.2,1976.31 467.5,553 1122.3,890.8 1843.9,951.3 721.6,60.3 1423.5,-163.8 1976.4,-631.3 553,-467.5 890.7,-1122.33 951.2,-1843.86 60.4,-721.58 -163.8,-1423.47 -631.2,-1976.41 -467.5,-552.94 -1122.4,-890.73 -1843.9,-951.17 -77.2,-6.48 -154.2,-9.67 -230.8,-9.67"
           style="fill:#371a45;fill-opacity:1;fill-rule:nonzero;stroke:none"
           id="path436" /></g><g
         id="g438"
         transform="scale(1.72245)"><path
           d="m 15251.4,6587.35 c -516.7,0 -1017.5,134.34 -1461,389.85 385,-136.38 851.7,-235.66 1344.8,-235.66 125,0 251.9,6.39 379.4,20.15 248.7,26.88 484.1,74.49 703.8,136.49 23.4,-42.09 50.8,-82.21 81.6,-119.89 -250.5,-94.98 -518,-157.04 -797.9,-180.44 -83.9,-7.02 -167.4,-10.5 -250.7,-10.5"
           style="fill:#b9afbe;fill-opacity:1;fill-rule:nonzero;stroke:none"
           id="path440" /></g><g
         id="g442"
         transform="scale(1.95051)"><path
           d="m 13474.4,11020.3 c -72.5,0 -145.4,-3.1 -219,-9.2 -692.4,-58 -1320.9,-382.2 -1769.5,-912.8 -448.6,-530.64 -663.7,-1204.21 -605.7,-1896.65 58,-692.48 382.1,-1320.88 912.8,-1769.48 530.6,-448.65 1204.2,-663.73 1896.6,-605.74 1429.4,119.66 2494.9,1380 2375.2,2809.42 -113.5,1355.85 -1253.4,2384.45 -2590.4,2384.45 m -6.5,-5377.06 c -654.5,0 -1281.6,228.71 -1787.2,656.14 -566.1,478.59 -911.9,1149.04 -973.8,1887.71 -61.9,738.73 167.6,1457.37 646.2,2023.41 478.6,566.1 1149.1,912 1887.8,973.9 738.7,61.8 1457.3,-167.7 2023.4,-646.3 566.1,-478.6 911.9,-1149.01 973.8,-1887.74 61.9,-738.73 -167.6,-1457.31 -646.2,-2023.42 -478.6,-566.11 -1149.1,-911.97 -1887.8,-973.8 -79,-6.67 -157.8,-9.9 -236.2,-9.9"
           style="fill:#371a45;fill-opacity:1;fill-rule:nonzero;stroke:none"
           id="path444" /></g><g
         id="g446"
         transform="scale(1.9386)"><path
           d="m 16247.9,8626.22 c 52.1,-526.72 -70.5,-1032.65 -322.9,-1466.21 -189.1,-325.03 -1037.8,-945.11 -2149.7,-1065.25 -1030.9,-111.42 -2024.1,345.81 -2273.4,627.46 -332.5,375.63 -551.8,847.72 -604,1374.44 -138,1393.9 1002.4,2090.24 2479.8,2236.54 1477.4,146.2 2732.2,-313.1 2870.2,-1706.98"
           style="fill:#371a45;fill-opacity:1;fill-rule:nonzero;stroke:none"
           id="path448" /></g><g
         id="g450"
         transform="scale(1.94898)"><path
           d="m 13811.3,10217 c -159.4,0 -325,-8.5 -496.2,-25.4 -774,-76.6 -2556.1,-437.45 -2388.6,-2129.47 48.3,-488.66 248.7,-944.44 579.3,-1318.02 234.5,-264.91 1192.3,-702.68 2186.9,-595.29 1102.8,119.19 1906,731.05 2072.4,1016.84 251,431.2 358.1,917.41 309.7,1406.13 -61.8,624.27 -358.4,1080.1 -881.7,1354.91 -365.5,191.9 -837,290.3 -1381.8,290.3 m -435.2,-4259 c -936.9,0 -1765.8,405.45 -2000.6,670.76 -355,401.19 -570.2,890.88 -622.2,1416.24 -67.9,686.2 155,1242.65 662.6,1653.89 441.2,357.41 1092,587.71 1882.1,665.91 790,78.2 1473.3,-20 1976,-284.1 578.4,-303.67 906,-805.57 974,-1491.78 52,-525.35 -63,-1047.78 -332.5,-1510.79 -187.2,-321.55 -1025.9,-974.97 -2204.1,-1102.32 -112.7,-12.16 -224.8,-17.81 -335.3,-17.81"
           style="fill:#371a45;fill-opacity:1;fill-rule:nonzero;stroke:none"
           id="path452" /></g><g
         id="g454"
         transform="scale(1.86736)"><path
           d="m 15927.1,8566.39 c -7,0 -14.2,0.32 -21.3,0.86 -198.2,16.01 -341.1,250.78 -318.9,524.32 21.3,263.74 188,467.24 377.5,467.24 7.1,0 14.2,-0.32 21.4,-0.86 160.2,-12.96 284.2,-168.79 314.2,-372.5 -9.1,-123.01 -25.3,-244.52 -48.2,-364.1 -67.8,-153.05 -190.5,-254.96 -324.7,-254.96"
           style="fill:#c3bac7;fill-opacity:1;fill-rule:nonzero;stroke:none"
           id="path456" /></g><g
         id="g458"
         transform="scale(1.81262)"><path
           d="m 16061.9,8048.79 c -12.6,0 -25.3,1.33 -38,4.19 -108.8,24.23 -174,146.53 -145.8,273.2 25,111.83 114.4,189.67 209.8,189.67 12.7,0 25.5,-1.32 38.2,-4.19 108.6,-24.22 173.9,-146.53 145.7,-273.2 -24.9,-111.88 -114.4,-189.72 -209.9,-189.67"
           style="fill:#c3bac7;fill-opacity:1;fill-rule:nonzero;stroke:none"
           id="path460" /></g><g
         id="g462"
         transform="scale(1.7098)"><path
           d="m 15250.2,6989.98 c -215,0 -425.5,19.89 -625.7,53.75 649.3,120.13 1222.2,352.21 1675.5,609.61 -67.6,-187.16 -75.1,-362.44 -35.6,-518.31 -205.7,-57.14 -425.2,-101.12 -656.4,-126.1 -120,-12.98 -239.6,-18.95 -357.8,-18.95"
           style="fill:#281a39;fill-opacity:1;fill-rule:nonzero;stroke:none"
           id="path464" /></g><g
         id="g466"
         transform="scale(1.70926)"><path
           d="m 15256.7,6892.93 c -317.2,0 -624.7,42.3 -905.9,109.23 94.2,12.23 187,26.91 278.4,43.82 200.2,-33.87 410.8,-53.76 625.9,-53.76 118.2,0 237.8,5.96 357.9,18.95 231.3,24.98 450.9,68.98 656.6,126.14 8.2,-32.12 18.4,-63.48 30.4,-93.9 -212.9,-59.68 -439.4,-105.37 -676.4,-130.99 -123.1,-13.34 -245.6,-19.49 -366.9,-19.49"
           style="fill:#281a39;fill-opacity:1;fill-rule:nonzero;stroke:none"
           id="path468" /></g><g
         id="g470"
         transform="scale(1.92721)"><path
           d="m 16020.3,7389.7 c -144.9,135.8 -334.4,248.91 -555.9,248.91 -15,0 -30.1,-0.52 -45.3,-1.55 154.7,283.52 266.4,589.76 328,910.33 27.1,61.23 45.2,130.97 51.2,205.68 4.1,50.86 2.4,100.31 -4.5,147.11 12.7,174.03 10.8,351.18 -6.9,530.14 -12.3,124.54 -31.7,243.21 -57.6,356.22 303.9,-275.63 480.7,-650.01 527.1,-1117.94 43.6,-440.9 -37.9,-879.77 -236.1,-1278.9"
           style="fill:#281a39;fill-opacity:1;fill-rule:nonzero;stroke:none"
           id="path472" /></g><g
         id="g474"
         transform="scale(1.93803)"><path
           d="m 15995.8,7282.96 c -20.5,22.19 -42.2,44.12 -65,65.48 197.2,396.9 278.2,833.32 234.8,1271.75 -46.1,465.32 -221.9,837.61 -524.1,1111.7 -11.4,49.79 -24.1,98.5 -38,146.13 358,-279.77 593.6,-689.16 649.1,-1249.16 47.4,-478.78 -49.5,-940.23 -256.8,-1345.9"
           style="fill:#281a39;fill-opacity:1;fill-rule:nonzero;stroke:none"
           id="path476" /></g><g
         id="g478"
         transform="scale(1.86838)"><path
           d="m 16242.9,8816.51 c 22.9,119.52 39.1,240.96 48.2,363.9 7.1,-48.28 8.9,-99.28 4.7,-151.73 -6.3,-77.08 -24.9,-149.01 -52.9,-212.17"
           style="fill:#7c7a87;fill-opacity:1;fill-rule:nonzero;stroke:none"
           id="path480" /></g><g
         id="g482"
         transform="scale(1.89901)"><path
           d="m 11210.7,9458.39 c -12.1,0 -24.4,3.37 -35.5,10.32 -30.4,18.96 -39.3,59.66 -21.1,90.31 411.2,754.48 1305,1252.28 2452.4,1365.88 1140.3,112.8 2113.3,-187.2 2669.9,-823.2 20.3,-22.1 23.6,-56.1 5.9,-81.9 -20.6,-29.92 -61.3,-37.71 -91.4,-17.1 l -6.7,4.7 -5.9,6.5 c -528.2,604.4 -1460.8,888.7 -2558.9,780 -1104.1,-109.3 -1960.9,-583 -2350.6,-1299.39 l -3.6,-5.89 c -12.3,-19.7 -33,-30.23 -54.5,-30.23"
           style="fill:#371a45;fill-opacity:1;fill-rule:nonzero;stroke:none"
           id="path484" /></g><g
         id="g486"
         transform="scale(1.59821)"><path
           d="m 14047.2,8887.42 c 0,0 -688.7,1616.08 144.3,2369.78 688.5,622.7 1691.3,816.5 2006.4,816.5 66.2,0 102.1,-8.6 98.3,-23.5 0,0 -1397.5,-488.3 -1845.6,-1675.7 -345.6,-915.51 -403.4,-1487.08 -403.4,-1487.08"
           style="fill:#c3bac7;fill-opacity:1;fill-rule:nonzero;stroke:none"
           id="path488" /></g><g
         id="g490"
         transform="scale(1.93002)"><path
           d="m 14703.9,5903.21 c 316.9,-227.25 785.4,-64.56 1135.7,300.88 350.3,365.38 460.4,829.26 266.8,1059.11 -268.8,319.01 -783.5,650.15 -1397.7,-49.17 -480.3,-546.89 -371.8,-1047.66 -4.8,-1310.82"
           style="fill:#ffffff;fill-opacity:1;fill-rule:nonzero;stroke:none"
           id="path492" /></g><g
         id="g494"
         transform="scale(1.78733)"><path
           d="m 16241.1,6261.59 c -131.3,0 -255.4,35.53 -363.2,112.85 -5.9,4.2 -11.7,8.45 -17.4,12.76 v 0 c 5.7,-4.31 11.5,-8.56 17.3,-12.7 107.9,-77.38 232,-112.85 363.3,-112.85 19.5,0 39.1,0.78 58.9,2.29 -19.8,-1.56 -39.4,-2.35 -58.9,-2.35"
           style="fill:#7aa567;fill-opacity:1;fill-rule:nonzero;stroke:none"
           id="path496" /></g><g
         id="g498"
         transform="scale(1.91564)"><path
           d="m 16299.6,6840.62 c 0,0.11 0.1,0.16 0.1,0.26 0,-0.1 -0.1,-0.15 -0.1,-0.26 m 0.2,0.63 c 0,0.31 0.1,0.57 0.2,0.83 -0.1,-0.26 -0.2,-0.52 -0.2,-0.83"
           style="fill:#371a45;fill-opacity:1;fill-rule:nonzero;stroke:none"
           id="path500" /></g><g
         id="g502"
         transform="scale(1.91772)"><path
           d="m 16300,7093.9 c -2.8,20.44 -6.6,40.31 -11.6,59.5 5,-19.19 8.8,-39.06 11.6,-59.5 v 0"
           style="fill:#b9afbe;fill-opacity:1;fill-rule:nonzero;stroke:none"
           id="path504" /></g><g
         id="g506"
         transform="scale(1.91896)"><path
           d="m 16271.8,6830.3 c 22,91.93 28.2,179.84 17.6,259 v 0 c 10.6,-79.16 4.5,-167.07 -17.6,-259"
           style="fill:#371a45;fill-opacity:1;fill-rule:nonzero;stroke:none"
           id="path508" /></g><g
         id="g510"
         transform="scale(1.91636)"><path
           d="m 16300,7158.53 c -0.1,0.21 -0.1,0.42 -0.2,0.63 0.1,-0.21 0.1,-0.42 0.2,-0.63 m -0.3,1 c 0,0.1 0,0.15 0,0.26 0,-0.11 0,-0.21 0,-0.26"
           style="fill:#b9afbe;fill-opacity:1;fill-rule:nonzero;stroke:none"
           id="path512" /></g><g
         id="g514"
         transform="scale(1.73914)"><path
           d="m 16300,6564.18 c -10.1,7.54 -20,15.3 -29.7,23.23 9.7,-7.93 19.6,-15.64 29.7,-23.23 v 0 m -29.8,23.35 c -0.3,0.23 -0.7,0.51 -1,0.75 0.3,-0.24 0.7,-0.52 1,-0.75 m -1.3,1.03 c -0.3,0.23 -0.6,0.46 -0.9,0.75 0.3,-0.29 0.6,-0.52 0.9,-0.75 m -1.2,0.98 c -0.5,0.4 -0.9,0.8 -1.4,1.15 0.4,-0.35 0.9,-0.75 1.4,-1.15 m -2.1,1.78 c -0.2,0.12 -0.4,0.29 -0.6,0.4 0.2,-0.11 0.4,-0.28 0.6,-0.4 m -1.5,1.15 c -0.1,0.12 -0.2,0.23 -0.4,0.35 0.2,-0.12 0.3,-0.23 0.4,-0.35 m -3.1,2.59 c 0,0.06 0,0.06 -0.1,0.12 0.1,-0.06 0.1,-0.06 0.1,-0.12 m -1.5,1.26 v 0 c 0.1,0 0,0 0,0"
           style="fill:#371a45;fill-opacity:1;fill-rule:nonzero;stroke:none"
           id="path516" /></g><g
         id="g518"
         transform="scale(1.91896)"><path
           d="m 15127,5832.11 c -122.3,0 -237.9,33.04 -338.4,105.11 -5.4,3.85 -10.8,7.81 -16.1,11.83 -9.2,6.87 -18.1,13.86 -26.9,21.05 0,0 -0.1,0.05 -0.1,0.1 -0.3,0.21 -0.6,0.47 -0.9,0.68 -0.1,0.11 -0.2,0.16 -0.3,0.26 -0.2,0.21 -0.5,0.42 -0.8,0.68 -0.1,0.05 -0.2,0.15 -0.3,0.21 -0.4,0.36 -0.9,0.73 -1.2,1.04 -0.3,0.21 -0.5,0.36 -0.7,0.57 -0.2,0.11 -0.3,0.26 -0.5,0.37 -0.2,0.26 -0.5,0.47 -0.8,0.67 -0.1,0.11 -0.2,0.21 -0.4,0.32 -0.8,0.68 -1.6,1.35 -2.4,2.03 -0.1,0.05 -0.1,0.05 -0.1,0.1 -0.4,0.37 -0.8,0.68 -1.3,1.04 0,0 0.1,0 0,0 -205.5,172.7 -311.6,427.95 -246.3,724.3 53.9,-127.04 145.4,-235.96 263.2,-320.38 100.4,-71.96 216,-105 338.3,-105 265.6,0 562.7,156.07 803.9,407.72 173.2,180.93 288.3,385.73 336.9,574.63 20.2,-33.2 35.3,-69.88 45.7,-109.38 0,-0.11 0,-0.16 0.1,-0.26 0,-0.11 0,-0.21 0.1,-0.37 0,-0.2 0.1,-0.41 0.2,-0.62 v -0.05 c 5,-19.18 8.8,-39.04 11.5,-59.46 10.6,-79.16 4.4,-167.07 -17.6,-259 v -0.05 c -0.1,-0.26 -0.2,-0.52 -0.2,-0.83 -0.1,-0.11 -0.1,-0.26 -0.1,-0.37 0,-0.1 -0.1,-0.16 -0.1,-0.26 -46.5,-192.92 -162.8,-403.55 -340.5,-588.96 -224.8,-234.5 -498,-385.94 -749.1,-405.58 -18.4,-1.41 -36.6,-2.14 -54.8,-2.14"
           style="fill:#b9afbe;fill-opacity:1;fill-rule:nonzero;stroke:none"
           id="path520" /></g><g
         id="g522"
         transform="scale(1.94212)"><path
           d="m 14663.2,5937.39 c 257.6,-184.75 674.9,-66.12 1014.7,288.45 308.1,321.4 425.3,741.2 261.4,935.88 -126,149.48 -330.2,328.25 -587.9,330.93 -220.5,1.75 -444.6,-126 -668.7,-381.18 -218.3,-248.49 -319.8,-500.69 -293.6,-729.36 20.2,-176.87 115,-330.67 274.1,-444.72 z m 286.5,-263.17 c -141.7,0 -274.4,39.6 -388.3,121.26 -197.3,141.5 -320.2,342.82 -345.8,566.76 -32,278.97 84.2,577.92 335.8,864.46 259.2,295.15 528,443.54 801.8,440.55 323.9,-3.29 570.1,-215.59 719.6,-393.02 227.2,-269.71 111.6,-772.35 -268.8,-1169.24 -269.4,-281.03 -578.8,-430.77 -854.3,-430.77"
           style="fill:#371a45;fill-opacity:1;fill-rule:nonzero;stroke:none"
           id="path524" /></g><g
         id="g526"
         transform="scale(2.10472)"><path
           d="m 10454.9,15876.4 c -0.8,0 -1.7,0 -2.6,0.1 -38.7,5.1 -18.8,99.9 -29.5,240.7 -8.4,111.6 -17.7,182.8 -4.5,182.8 6,0 16.6,-14.7 34,-46.8 54.9,-101.7 62.7,-376.8 2.6,-376.8"
           style="fill:#abd59b;fill-opacity:1;fill-rule:nonzero;stroke:none"
           id="path528" /></g><g
         id="g530"
         transform="scale(1.02902)"><path
           d="m 14276.6,6726.17 c 50.8,14.29 92.6,23.04 138.3,30.81 44.9,7.58 89.5,13.41 134.4,17.5 89.5,8.84 179.3,10.49 268.8,8.16 179.2,-3.89 357.1,-34.02 530.4,-76.68 87.2,-18.56 171.6,-49.95 256.1,-76.67 41.7,-15.75 83,-32.75 123.9,-49.86 41.3,-16.03 81.3,-35.37 120.9,-55.58 159.9,-75.61 306.2,-177.74 439.1,-288.72 10.1,-8.46 11.5,-23.52 3,-33.53 -6.5,-7.77 -16.8,-10.39 -25.8,-7.29 l -1.6,0.49 c -162.5,55.49 -318.4,111.95 -481.1,144.31 -79,22.25 -162,30.12 -241.2,46.94 -81.3,9.91 -161.5,21.38 -242.6,26.91 -161.5,13.61 -323,14.87 -483.4,12.15 -40.2,-1.74 -80.3,-2.72 -120.3,-3.3 -40,-2.62 -80.1,-3.5 -119.9,-5.35 l -232.9,-13.21 -12.1,-0.68 c -91,-5.15 -169,64.43 -174.2,155.39 -4.5,78.71 47.2,147.81 120.2,168.21"
           style="fill:#371a45;fill-opacity:1;fill-rule:nonzero;stroke:none"
           id="path532" /></g></g></g></svg>
