<?xml version="1.0" encoding="UTF-8" standalone="no"?>
<svg xmlns:dc="http://purl.org/dc/elements/1.1/" xmlns:cc="http://creativecommons.org/ns#"
  xmlns:rdf="http://www.w3.org/1999/02/22-rdf-syntax-ns#" xmlns:svg="http://www.w3.org/2000/svg"
  xmlns="http://www.w3.org/2000/svg" xmlns:sodipodi="http://sodipodi.sourceforge.net/DTD/sodipodi-0.dtd"
  xmlns:inkscape="http://www.inkscape.org/namespaces/inkscape" version="1.1" id="svg2" xml:space="preserve"
  width="5333.3335" height="5333.3335" viewBox="0 0 5333.3335 5333.3335" sodipodi:docname="success-astronaut.svg"
  inkscape:version="1.0.2 (394de47547, 2021-03-26)">
  <metadata id="metadata8">
    <rdf:RDF>
      <cc:Work rdf:about="">
        <dc:format>image/svg+xml</dc:format>
        <dc:type rdf:resource="http://purl.org/dc/dcmitype/StillImage" />
        <dc:title></dc:title>
      </cc:Work>
    </rdf:RDF>
  </metadata>
  <defs id="defs6" />
  <sodipodi:namedview pagecolor="#ffffff" bordercolor="#666666" borderopacity="1" objecttolerance="10"
    gridtolerance="10" guidetolerance="10" inkscape:pageopacity="0" inkscape:pageshadow="2" inkscape:window-width="2560"
    inkscape:window-height="1043" id="namedview4" showgrid="false" inkscape:snap-page="false" inkscape:zoom="0.16"
    inkscape:cx="1735.6514" inkscape:cy="2305.6668" inkscape:window-x="1920" inkscape:window-y="0"
    inkscape:window-maximized="1" inkscape:current-layer="g12" />
  <g id="g10" inkscape:groupmode="layer" inkscape:label="ink_ext_XXXXXX"
    transform="matrix(1.3333333,0,0,-1.3333333,0,5333.3333)">
    <g id="g12" transform="scale(0.1)">
      <g id="g18" transform="scale(1.7546)">
        <path
          d="m 11227.6,2764.16 c -2801.36,0 -5072.36,350.85 -5072.36,783.65 0,241.09 704.84,456.8 1813.46,600.54 -0.51,-18.24 -0.11,-36.48 1.03,-54.6 5.02,-85.6 27.3,-170.81 68.11,-249.91 41.6,-78.2 101.62,-146.65 170.46,-197.31 68.57,-51.75 143.85,-88.74 219.83,-115.98 152.51,-54.43 307.82,-75.92 460.67,-85.67 59.33,-3.53 118.43,-5.12 177.36,-5.12 93.07,0 185.69,3.98 277.73,10.48 150.57,9.97 299.33,29.53 445.91,47.93 147.61,19.1 296.8,40.7 446.1,75.52 148.7,35.68 300.2,81.27 441.4,171.66 69.7,45.31 137,105.04 185.3,182.84 6.4,9.34 11.5,19.72 17,29.75 5.6,10.26 10.7,20.23 14.3,29.18 l 24.3,55.68 c 13.6,37.56 27.9,75.12 38.1,113.24 12.1,37.91 19.9,76.09 29.1,114.22 3.7,20.12 7.8,40.29 11.5,60.41 76.4,0.51 153.4,0.8 230.7,0.8 73,0 145.6,-0.23 217.9,-0.74 3.8,-20.12 7.8,-40.3 11.5,-60.47 9.3,-38.13 17.1,-76.31 29.1,-114.22 10.2,-38.12 24.6,-75.68 38.2,-113.24 l 24.3,-55.68 c 3.5,-8.95 8.7,-18.92 14.3,-29.18 5.4,-10.03 10.6,-20.41 17,-29.75 48.3,-77.8 115.5,-137.53 185.2,-182.84 141.2,-90.39 292.7,-135.98 441.4,-171.66 149.3,-34.82 298.5,-56.42 446.2,-75.52 146.5,-18.4 295.3,-37.96 445.8,-47.93 92.1,-6.5 184.7,-10.48 277.8,-10.48 58.9,0 118,1.59 177.3,5.12 152.9,9.75 308.2,31.24 460.7,85.67 76,27.24 151.3,64.23 219.8,115.98 68.9,50.66 128.9,119.11 170.5,197.31 40.8,79.1 63.1,164.31 68.1,249.91 1.2,18.64 1.5,37.45 1,56.25 1116.2,-143.73 1826.3,-360.14 1826.3,-602.19 0,-432.8 -2271,-783.65 -5072.4,-783.65"
          style="fill:#7991c5;fill-opacity:1;fill-rule:nonzero;stroke:none" id="path20" />
      </g>
      <g id="g22" transform="scale(1.52218)" style="fill:#349369;fill-opacity:1">
        <path
          d="m 9349.3,13896 c -57.28,504.5 -631.13,1793.8 -1179.76,2404 0,0 1784.62,-852.7 3353.16,-852.7 L 9349.3,13896"
          style="fill:#349369;fill-opacity:1;fill-rule:nonzero;stroke:none" id="path24" />
      </g>
      <g id="g26" transform="scale(1.49701)" style="fill:#41b883;fill-opacity:1">
        <path
          d="m 9438.53,14782.8 c -176.28,475.5 -462.58,1061.9 -778.28,1517.2 205.74,-84 479.42,-188.4 795.45,-290.8 27.79,-46 56.45,-91.4 86.04,-136.5 -337.94,131.6 -564.79,234.8 -622.84,234.8 -5.68,0 -9.69,-1 -12.09,-3 -45.03,-37.8 310.62,-703 531.72,-1321.7"
          style="fill:#41b883;fill-opacity:1;fill-rule:nonzero;stroke:none" id="path28" />
      </g>
      <g id="g30" transform="scale(1.45026)" style="fill:#276e4f;fill-opacity:1">
        <path
          d="m 10094,15154.3 c -224.76,452.7 -497.82,1036.6 -469.34,1130.4 3.18,10.5 9.66,15.3 19.65,15.3 51.72,0 198.31,-130.5 477.39,-286.6 99,-121.3 204.9,-238 317.6,-349.8 79.5,-79 161.5,-154.6 245.7,-226.8 -185.6,-82.4 -386.9,-177.2 -591,-282.5"
          style="fill:#276e4f;fill-opacity:1;fill-rule:nonzero;stroke:none" id="path32" />
      </g>
      <g id="g34" transform="scale(1.53339)">
        <path
          d="m 9280.83,13686.9 c -54,0 -100.43,40.5 -106.69,95.4 -52.89,465.3 -598.02,1719 -1144.33,2326.7 -34.24,38.1 -36.85,95.2 -6.13,136.3 30.71,41.1 86.21,54.7 132.45,32.6 17.48,-8.4 1768.31,-836 3282.37,-836 59.4,0 107.5,-48.1 107.5,-107.5 0,-59.4 -48.1,-107.6 -107.5,-107.6 -1138.7,0 -2370.34,436.1 -2983.68,686.5 476.65,-687.4 884.57,-1680.9 932.96,-2106.7 6.72,-59.1 -35.67,-112.3 -94.69,-119 -4.11,-0.5 -8.22,-0.7 -12.26,-0.7"
          style="fill:#371a45;fill-opacity:1;fill-rule:nonzero;stroke:none" id="path36" />
      </g>
      <g id="g38" transform="scale(1.62667)" style="fill:#349369;fill-opacity:1">
        <path d="m 15196,13003.4 c 53.6,472.1 590.6,1678.5 1104,2249.6 0,0 -1670,-798 -3137.8,-798 L 15196,13003.4"
          style="fill:#349369;fill-opacity:1;fill-rule:nonzero;stroke:none" id="path40" />
      </g>
      <g id="g42" transform="scale(1.59421)" style="fill:#41b883;fill-opacity:1">
        <path
          d="m 15848.1,15055.5 c 20.3,32.9 40,66 59.2,99.4 149,54.2 281.4,105.9 392.7,151.3 -29.4,-42.3 -58.5,-85.9 -87.2,-130.4 -47.3,-25.5 -94.4,-50.7 -141.6,-76.1 1.9,12 1,19.8 -2.7,23 -2.2,1.9 -6,2.8 -11.4,2.8 -28.6,0 -100.9,-26.7 -209,-70"
          style="fill:#41b883;fill-opacity:1;fill-rule:nonzero;stroke:none" id="path44" />
      </g>
      <g id="g46" transform="scale(1.63766)">
        <path
          d="m 15094.1,12815.4 c -3.8,0 -7.6,0.2 -11.4,0.7 -55.3,6.2 -95,56.1 -88.7,111.4 45.3,398.8 427.3,1329 873.6,1972.6 -574.3,-234.4 -1727.5,-642.8 -2793.7,-642.8 -55.7,0 -100.7,45.1 -100.7,100.7 0,55.6 45,100.7 100.7,100.7 1417.6,0 3056.9,775 3073.3,782.8 43.3,20.7 95.3,7.9 124,-30.6 28.8,-38.4 26.4,-91.9 -5.7,-127.6 -511.5,-568.9 -1021.9,-1742.8 -1071.5,-2178.6 -5.8,-51.3 -49.4,-89.3 -99.9,-89.3"
          style="fill:#371a45;fill-opacity:1;fill-rule:nonzero;stroke:none" id="path48" />
      </g>
      <g id="g50" transform="scale(1.66693)">
        <path
          d="m 13963.4,13180.9 c -1193.1,2.2 -2377.5,288.3 -2377.5,288.3 l -47.9,0.2 c 0,0 -1185.7,-273.8 -2378.75,-267.5 0,0 -609.98,-3874.43 -2368.79,-6917.82 0,0 1639.36,-408.3 3389.64,195.51 0,0 617.9,-415.31 1364.6,-417.95 746.7,-2.7 1366.7,408.17 1366.7,408.17 1747.3,-616.34 3388.6,-219.8 3388.6,-219.8 -1744.6,3055.92 -2336.6,6930.89 -2336.6,6930.89"
          style="fill:#ff2261;fill-opacity:1;fill-rule:nonzero;stroke:none" id="path52" />
      </g>
      <g id="g54" transform="scale(1.66691)" style="fill:#349369;fill-opacity:1">
        <path
          d="m 16300,6250.23 c 0,0 -176.1,-42.53 -474.2,-78.11 -612.1,-73.07 -1739.2,-116.62 -2914.5,297.8 0,0 -619.7,-411 -1366.4,-408.3 -746.8,2.64 -1364.7,418.08 -1364.7,418.08 -1175.24,-405.36 -2300.55,-354.61 -2912.88,-277.34 -299.89,37.73 -476.81,81.83 -476.81,81.83 1758.88,3043.28 2368.81,6917.81 2368.81,6917.81 1193.08,-6.4 2378.88,267.6 2378.88,267.6 l 47.8,-0.3 c 0,0 1184.3,-286.1 2377.6,-288.3 0,0 591.9,-3875 2336.4,-6930.77"
          style="fill:#349369;fill-opacity:1;fill-rule:nonzero;stroke:none" id="path56" />
      </g>
      <g id="g58" transform="scale(1.65127)" style="fill:#41b883;fill-opacity:1">
        <path
          d="m 16239,6369.4 c -536.5,878.23 -962.2,1808.97 -1289.2,2649.84 -1.9,40.76 -3.9,81.51 -6.8,122.15 l -16.2,236.85 c -3.9,44.2 -7.7,88.41 -11.7,132.56 10.2,6.3 20.2,12.9 29.9,19.86 341.1,-1023.33 786.3,-2130.48 1355,-3150.66 -18.5,-3.33 -38.9,-6.9 -61,-10.6 m -9139.5,28.04 c -33.54,5.63 -63.58,11.02 -89.87,15.93 315.88,559.87 594.46,1146.51 838.81,1731.33 44.57,-23.19 92.05,-44.03 142.38,-62.38 C 7736.53,7523.24 7440.58,6949.68 7099.5,6397.44 m 1845.92,4242.76 c -30.22,35.1 -61.77,70.2 -94.72,105.3 33.67,33.8 86.54,80.3 165.21,134.2 -21.98,-76.3 -45.48,-156.4 -70.49,-239.5"
          style="fill:#41b883;fill-opacity:1;fill-rule:nonzero;stroke:none" id="path60" />
      </g>
      <g id="g62" transform="scale(1.61222)" style="fill:#276e4f;fill-opacity:1">
        <path
          d="m 11944.3,6369.54 c -3.2,36.78 -6.4,73.44 -9.5,110.16 -23.7,282.52 -47.5,565.12 -44.2,842.37 35.2,-2.66 70.1,-4.83 105.5,-6.69 71.8,-3.79 143.9,-5.71 216.1,-5.77 72.2,0.06 144.2,1.98 216.1,5.77 35.4,1.86 70.3,4.03 105.5,6.69 3.3,-277.25 -20.5,-559.85 -44.2,-842.37 -1.2,-13.77 -2.4,-27.54 -3.5,-41.31 -166.8,-41 -350.5,-68.79 -541.8,-68.85 m 3578.9,66.24 c -122.3,0 -250.7,3.1 -384.1,10.36 32,243.45 62.6,487.09 91.9,731.1 18.3,160.53 38.6,319.38 53.3,481.76 6.8,81.13 16.3,162.14 20.9,243.33 l 14.4,243.64 c 2.4,59.98 4.4,120.02 5.8,180 267.8,-615.42 590.2,-1248.96 974.6,-1848.01 -210.5,-23.2 -474.9,-42.18 -776.8,-42.18 m -7120.5,25.87 c -321.98,0 -603.52,21.58 -825.57,47.45 355.78,548.19 659.27,1126.02 916.06,1692.51 47.64,-6.02 94.96,-9 141.79,-9 164.75,0 323.47,36.79 467.43,106.19 l 3.91,-164.12 c 0,-44.16 4.72,-88.2 7.94,-132.3 l 10.42,-132.3 20.9,-264.55 c 7.51,-88.01 18.86,-174.48 28.29,-261.75 32.19,-276.26 66.37,-552.15 102.28,-827.74 -311.56,-39.57 -606.43,-54.39 -873.45,-54.39"
          style="fill:#276e4f;fill-opacity:1;fill-rule:nonzero;stroke:none" id="path64" />
      </g>
      <g id="g66" transform="scale(1.68238)">
        <path
          d="m 10100.7,6528.67 40.5,-27.23 c 5.8,-3.92 598,-395.03 1297.8,-397.53 2.3,0 4.5,0 6.8,0 696.9,0 1287,384.34 1292.9,388.26 l 40.6,26.81 46,-16.17 c 1408.9,-496.92 2759.6,-315.68 3173.3,-240.79 -1529.6,2744.27 -2150.4,6131.58 -2246.8,6700.48 -1089.9,13.9 -2161.6,256.6 -2283.8,285 l -25.2,0.2 c -121.6,-27.1 -1194.6,-259 -2284.82,-265 -99.21,-569.5 -735.81,-3954.84 -2277.97,-6687.93 413.35,-77.63 1764.94,-268.37 3174.59,217.97 l 46.1,15.93 m 1345.2,-620.73 c -2.5,0 -5,0 -7.6,0 -658.2,2.32 -1210.7,309.98 -1364.6,404.25 C 8349.54,5733.31 6771.3,6114.55 6704.37,6131.25 l -126.31,31.45 65.15,112.63 c 1713.1,2964.38 2329.08,6782.37 2335.08,6820.57 l 13.14,83.2 84.22,-0.5 c 1155.85,-5 2322.65,259.9 2334.35,262.6 l 11,2.5 70.3,-0.2 11.2,-2.7 c 11.6,-2.8 1176.5,-280.8 2332.8,-283 l 84,-0.1 12.7,-83.1 c 5.8,-38.2 604,-3856.77 2303.4,-6833.38 l 64.6,-113.24 -126.7,-30.61 c -67,-16.22 -1646.9,-386.24 -3368.4,205.01 -153.9,-92.84 -704.2,-394.44 -1359,-394.44"
          style="fill:#371a45;fill-opacity:1;fill-rule:nonzero;stroke:none" id="path68" />
      </g>
      <g id="g70" transform="scale(1.99645)">
        <path
          d="m 16042.4,12070.3 c -5.1,-11.2 -10.1,-22.4 -15.6,-33.2 -4.1,-8.8 -8.2,-17.2 -12.8,-25.3 -3.4,-7.1 -7.1,-13.9 -11.1,-20.6 -6.2,-11.3 -12.6,-22.1 -19,-32.7 -5.6,-8.7 -10.9,-17.5 -16.7,-25.8 -9.8,-15.1 -20,-29.5 -30.7,-43.5 -5.7,-7.8 -11.6,-15.5 -17.5,-23 -8.1,-10.5 -16.7,-20.2 -25.2,-30 -8.1,-9.6 -16.5,-18.8 -25.2,-28 -8.6,-9.1 -17.2,-18 -26.1,-26.8 -21.5,-21.1 -43.7,-41.2 -66.5,-60 -6.6,-5.5 -13.3,-11 -20.1,-16.2 -13.4,-10.7 -27,-20.7 -40.9,-30.7 -6.7,-4.9 -13.8,-9.7 -20.9,-14.5 -12.2,-8.3 -24.8,-16.6 -37.3,-24.5 -4.2,-2.6 -8.4,-5.1 -12.5,-7.7 -25.5,-15.5 -51.4,-30 -76.9,-43.1 -6.1,-3.3 -12.5,-6.5 -18.5,-9.5 -3,-1.6 -6.3,-3.2 -9.3,-4.5 l -0.1,-0.3 c -1.9,-0.7 -3.7,-1.8 -5.6,-2.5 -52.4,-25.6 -104.2,-46.4 -153.5,-63.6 -6.8,-2.5 -13.2,-4.8 -19.9,-6.8 -39.4,-13.3 -76.9,-24.2 -111.4,-33.1 -11.3,-2.9 -22.7,-5.8 -33.5,-8.3 -11.6,-2.8 -22.9,-5.4 -33.4,-7.7 -9.1,-2 -17.8,-3.8 -26.1,-5.3 -44.9,-8.8 -79.6,-13.5 -100.6,-16.2 -3,-0.2 -5.5,-0.5 -7.9,-0.8 -9.1,-1.1 -14.1,-1.4 -14.1,-1.4 l -1637.6,-1041.2 -2011.4,-1278.81 -280.4,1925.41 c 0,0 680.3,368.7 1465.2,791.5 309.6,166.7 635.3,341.9 942.2,506 149.8,80.3 295.1,157.9 431.9,231.1 15.2,7.9 30.1,16.1 45,24.1 172.3,91.9 329.5,175.2 463.4,245.5 16.2,8.6 31.7,17 46.9,24.9 90.3,47.3 168.5,88 231.3,120.3 7.7,3.8 15.1,7.9 22.5,11.5 l 0.7,0.4 c 12,6 23.5,11.8 34.2,17.6 18.8,9.4 35.5,17.5 49.9,24.7 5.6,2.8 11,5.6 16,8 15.1,7.3 26.9,12.8 35.5,16.6 263.3,114.5 1411.2,-394.1 1153.6,-982"
          style="fill:#ffffff;fill-opacity:1;fill-rule:nonzero;stroke:none" id="path72" />
      </g>
      <g id="g74" transform="scale(1.99645)">
        <path
          d="m 16042.4,12070.3 c -5.1,-11.2 -10.1,-22.4 -15.6,-33.2 -4.1,-8.8 -8.2,-17.2 -12.8,-25.3 -3.4,-7.1 -7.1,-13.9 -11.1,-20.6 -6.2,-11.3 -12.6,-22.1 -19,-32.7 -5.6,-8.7 -10.9,-17.5 -16.7,-25.8 -9.8,-15.1 -20,-29.5 -30.7,-43.5 -5.7,-7.8 -11.6,-15.5 -17.5,-23 -8.1,-10.5 -16.7,-20.2 -25.2,-30 -8.1,-9.6 -16.5,-18.8 -25.2,-28 -8.6,-9.1 -17.2,-18 -26.1,-26.8 -21.5,-21.1 -43.7,-41.2 -66.5,-60 -6.6,-5.5 -13.3,-11 -20.1,-16.2 -13.4,-10.7 -27,-20.7 -40.9,-30.7 -6.7,-4.9 -13.8,-9.7 -20.9,-14.5 -12.3,-8.6 -24.8,-16.6 -37.3,-24.5 -4.2,-2.6 -8.4,-5.1 -12.5,-7.7 -25.5,-15.5 -51.4,-30 -76.9,-43.1 -6.1,-3.3 -12.5,-6.5 -18.5,-9.5 -3,-1.6 -6.3,-3.2 -9.3,-4.5 -2,-1 -3.8,-2.1 -5.7,-2.8 -52.4,-25.6 -104.2,-46.4 -153.5,-63.6 -6.8,-2.5 -13.2,-4.8 -19.9,-6.8 -39.4,-13.3 -76.9,-24.2 -111.4,-33.1 -11.7,-3.1 -22.9,-5.8 -33.5,-8.3 -11.6,-2.8 -22.9,-5.4 -33.4,-7.7 -9.1,-2 -17.8,-3.8 -26.1,-5.3 -44.9,-8.8 -79.6,-13.5 -100.6,-16.2 -3,-0.2 -5.5,-0.5 -7.9,-0.8 -9.1,-1.1 -14.1,-1.4 -14.1,-1.4 l -1637.6,-1041.2 c -128.6,203.7 -197.3,409.1 -225.2,606.1 -104,726.3 340.8,1338 340.8,1338 149.8,80.3 295.1,157.9 431.9,231.1 15.2,7.9 30.1,16.1 45,24.1 172.3,91.9 329.5,175.2 463.4,245.5 16.2,8.6 31.7,17 46.9,24.9 90.3,47.3 168.5,88 231.3,120.3 7.7,3.8 15.1,7.9 22.5,11.5 l 0.7,0.4 c 12,6 23.5,11.8 34.2,17.6 18.8,9.4 35.5,17.5 49.9,24.7 5.6,2.8 11,5.6 16,8 15.1,7.3 26.9,12.8 35.5,16.6 263.3,114.5 1411.2,-394.1 1153.6,-982"
          style="fill:#ffffff;fill-opacity:1;fill-rule:nonzero;stroke:none" id="path76" />
      </g>
      <g id="g78" transform="scale(1.98598)">
        <path
          d="m 11253.2,11042.9 255.1,-1751.29 3559.9,2263.49 c 11.5,7.3 24.6,11.7 38.2,12.7 7,0.5 709.2,62.3 944.6,599.5 69.6,158.8 20.3,324 -146.3,491.2 -291.4,292.1 -785,438.4 -904.2,386.6 -241.2,-105 -3311.8,-1766.4 -3747.3,-2002.2 m 191.4,-1973.2 c -11.8,0 -23.6,2.52 -34.6,7.55 -25.6,11.73 -43.5,35.65 -47.6,63.5 l -281.9,1935.55 c -5,34.5 12,68.4 42.6,85 144.7,78.4 3546.3,1920.8 3811.2,2036 221.8,96.6 791.3,-124.1 1088,-421.6 213.5,-214.1 277.7,-453.8 180.8,-675 -253.8,-579.2 -930.5,-681.7 -1062.5,-696.4 L 11489.1,9082.69 c -13.5,-8.61 -29,-12.99 -44.5,-12.99"
          style="fill:#371a45;fill-opacity:1;fill-rule:nonzero;stroke:none" id="path80" />
      </g>
      <g id="g82" transform="scale(1.90882)">
        <path
          d="m 15533.6,12964 c 123.8,-10.6 242.8,-42.5 358.2,-88.2 57.7,-23.2 114.2,-50.6 168.9,-84.5 54.7,-33.7 108.4,-72.7 155.7,-127.5 23.5,-27.4 45.9,-58.8 61,-98.4 15.4,-38.8 22.6,-86 14.5,-131.5 -2.6,-10.9 -5.5,-21.8 -8.6,-32.6 -3.1,-11.2 -6.8,-17.9 -10.2,-26.9 -3.3,-8.6 -7.5,-17.1 -11.9,-25.5 -4.1,-8.5 -8.6,-16.9 -14.1,-25.1 -20.1,-32.9 -47.6,-64.4 -81.5,-88.5 -33.8,-24.1 -72.9,-40.1 -111.2,-47.7 -38.4,-7.9 -76.1,-8.6 -111.7,-5.5 -35.8,3 -69.9,9.9 -102.7,19.4 -16.4,4.8 -32.5,9.9 -48.5,15.8 -16.5,6.2 -30.5,11.7 -49.4,20.8 l 112.9,68.8 c 0,-17.8 -0.8,-30 -1.9,-44.5 -1.1,-14 -2.5,-27.8 -4.3,-41.6 -3.3,-27.5 -8.5,-54.7 -14.7,-81.9 -13,-54.1 -31,-108.1 -57.8,-159.4 -27,-51.2 -62,-100.2 -106.4,-141 -43.8,-41.3 -96.7,-73.3 -152.3,-94.6 -55.5,-22.5 -113.9,-30.5 -170,-33.8 -56.7,-3.9 -111.4,3.8 -164.5,14 -26,6.7 -52.2,13 -77.2,21.7 -24.9,9.3 -50,17.6 -73.7,29.4 -47.8,21.6 -92.9,48.5 -135,79.7 -5.8,4.3 -7,12.6 -2.7,18.4 2.8,3.6 7.1,5.5 11.4,5.2 h 0.3 c 103.4,-7.2 200.2,-19.6 293.7,-21.9 92.6,-0.9 182.4,4.5 256.9,38.1 74.3,32.4 133.1,88.2 174.2,162.4 20.6,36.9 36.5,78 48.4,120.7 5.7,21.4 10.7,43.3 14.2,65.3 1.8,11 3.4,22.1 4.5,33 1.2,10.4 2.1,23.2 2.3,30.5 l 0.1,3.2 c 1.4,42.5 37,75.8 79.5,74.4 11.9,-0.5 23.4,-3.7 33.3,-8.8 7.9,-4.2 21.5,-10.4 32.9,-14.9 12,-4.8 24.3,-9.1 36.6,-12.7 24.6,-7.5 49.4,-12.6 73.3,-14.9 48,-4.5 90.8,4 119,26.8 14.5,11.2 26.9,25.9 37,44.5 2.8,4.3 5.1,9.3 7.3,14.4 2.3,5 4.6,9.9 6.4,15.5 1.5,5 4.8,11.8 5,15.2 0.6,3.8 1.4,7.3 2.4,10.9 1.1,13.9 -1.1,27.7 -7.9,44.4 -6.5,16.3 -18.8,34.7 -34.1,52.8 -15,18 -33.9,36 -53.3,53.5 -20.4,17 -41.2,34.3 -63.9,50.7 -44.9,32.6 -93,63.7 -142.5,94 -98.8,61 -202.3,119.4 -305.6,184.4 l -0.4,0.2 c -6,3.8 -7.8,11.8 -4,17.8 2.7,4.2 7.4,6.4 12.1,6"
          style="fill:#371a45;fill-opacity:1;fill-rule:nonzero;stroke:none" id="path84" />
      </g>
      <g id="g86" transform="scale(1.87528)">
        <path
          d="m 16206.3,13401 c 17.3,-69.3 31.8,-134.3 49,-195.7 8.1,-30.7 18.4,-60.1 25.6,-89.2 6.4,-29.4 15.1,-56.9 16.6,-87.5 l 0.4,-8.5 c 2.1,-43.1 -31.2,-79.7 -74.3,-81.8 -29.8,-1.4 -56.6,14.2 -70.9,38.1 -19.8,33.5 -30.8,71 -36,108.1 -5.5,37.4 -4,75.2 0.2,112 4,36.8 11.7,72.9 22.4,107.8 11.4,35 25,68.8 45.4,100.9 3.4,5.5 10.7,7.1 16.2,3.6 2.7,-1.7 4.4,-4.2 5.1,-7 l 0.3,-0.8"
          style="fill:#371a45;fill-opacity:1;fill-rule:nonzero;stroke:none" id="path88" />
      </g>
      <g id="g90" transform="scale(1.6635)">
        <path
          d="m 16077.1,12387.5 c -24.6,0 -48.8,12.2 -62.9,34.6 -307.5,487.3 -380.3,1060.1 -210.6,1656.7 127.2,447.6 342.9,747.5 352,760.1 24.2,33.2 70.6,40.5 103.8,16.4 33.2,-24.1 40.6,-70.5 16.6,-103.8 -8.4,-11.5 -823.6,-1160.6 -136.1,-2250 21.9,-34.7 11.5,-80.7 -23.2,-102.6 -12.3,-7.7 -26.1,-11.4 -39.6,-11.4"
          style="fill:#371a45;fill-opacity:1;fill-rule:nonzero;stroke:none" id="path92" />
      </g>
      <g id="g94" transform="scale(1.62915)">
        <path
          d="m 14782.7,11806.1 c -5.9,24.4 -11.9,48.8 -18,73.2 -41.2,155.2 -87.5,308.3 -138.2,460.6 -47.2,138.9 -97.2,277.4 -159.1,411.7 522.5,274.4 1045.6,187.6 1520.5,361.9 49.8,18.3 97.7,36.3 142.2,53.5 41.5,-136.7 98.1,-269.1 169.9,-396.3 l -1517.3,-964.6"
          style="fill:#b9afbe;fill-opacity:1;fill-rule:nonzero;stroke:none" id="path96" />
      </g>
      <g id="g98" transform="scale(1.63434)">
        <path
          d="m 14760.4,11664.6 c -8.1,34.7 -16.3,69.2 -24.7,103.9 l 1512.5,961.6 c 16.4,-29 33.6,-57.9 51.6,-86.4 0.1,-0.1 0.1,-0.2 0.2,-0.3 l -1539.6,-978.8"
          style="fill:#371a45;fill-opacity:1;fill-rule:nonzero;stroke:none" id="path100" />
      </g>
      <g id="g102" transform="scale(1.90836)">
        <path
          d="m 14024.6,10971.9 c -59.3,106 -103,212.5 -133.8,317.7 485.9,210.5 830.4,436.6 830.4,436.6 -234,128.7 2.9,402.4 2.9,402.4 71.7,-11.7 137.3,-17 197.1,-17 535.7,0 623.2,423 712.7,449.2 8.1,2.3 18.6,3.4 31.1,3.4 103.7,0 345.4,-74.4 469,-114.8 -1,-3.6 -3.2,-8.5 -4.4,-12.3 -1.7,-5.7 -4.1,-10.6 -6.4,-15.6 -2.1,-5.1 -4.5,-10 -7.2,-14.4 -10.1,-18.5 -22.6,-33.2 -37.1,-44.5 -23.4,-18.9 -56.7,-27.9 -94.8,-27.9 -7.8,0 -16,0.4 -24.2,1.2 -23.9,2.3 -48.7,7.4 -73.3,14.8 -12.4,3.7 -24.6,7.9 -36.6,12.7 -11.4,4.6 -25.1,10.7 -33,14.9 -9.9,5.1 -21.4,8.4 -33.3,8.8 -0.8,0 -1.7,0.1 -2.6,0.1 -41.3,0 -75.5,-32.9 -76.8,-74.5 l -0.2,-3.2 c -0.2,-7.3 -1.1,-20.1 -2.3,-30.4 -1.1,-11 -2.6,-22 -4.5,-33 -3.5,-22.1 -8.5,-44 -14.2,-65.4 -11.9,-42.8 -27.8,-83.8 -48.4,-120.7 -41.1,-74.3 -99.9,-130 -174.3,-162.5 -69.7,-31.4 -152.7,-38.2 -239,-38.2 -5.9,0 -11.9,0 -17.9,0.1 -93.5,2.3 -190.4,14.8 -293.8,21.9 h -0.3 c -0.2,0 -0.5,0 -0.8,0 -4,0 -8,-1.8 -10.5,-5.2 -4.3,-5.8 -3.1,-14 2.7,-18.3 42.1,-31.3 87.2,-58.2 135,-79.8 23.7,-11.8 48.8,-20.1 73.7,-29.4 25,-8.7 51.2,-15 77.2,-21.7 6.5,-1.3 13.1,-2.5 19.7,-3.7 l -1181.8,-751.3 m 1785.9,1079.2 c 11.2,29.9 20,60.3 27.3,90.7 4.7,20.3 8.7,40.5 11.9,60.9 31,-8.6 63.2,-14.9 96.8,-17.7 12.4,-1.1 25.1,-1.7 38,-1.7 24,0 48.7,2.1 73.7,7.2 38.3,7.6 77.5,23.6 111.3,47.7 33.8,24.1 61.3,55.6 81.5,88.6 5.5,8.2 10,16.6 14.1,25 1.7,3.3 3.3,6.5 4.9,9.7 24.3,-40.9 30,-88.5 22.7,-139 -183.7,-105.3 -374,-151.9 -482.2,-171.4"
          style="fill:#b9afbe;fill-opacity:1;fill-rule:nonzero;stroke:none" id="path104" />
      </g>
      <g id="g106" transform="scale(1.90751)">
        <path
          d="m 14075.2,10902.4 c -15.7,24.7 -30.4,49.6 -44.3,74.4 l 1182.3,751.6 c 37.2,-6.5 75.2,-11.3 114.2,-11.3 10.1,0 20.4,0.3 30.7,1.1 l -1282.9,-815.8 m 1697.4,1059.3 c 5,8.6 9.9,17.2 14.5,26 11.7,22.5 21.8,45.5 30.5,68.8 108.2,19.5 298.7,66.1 482.4,171.4 -5.5,-38 -18.2,-77.8 -35.9,-117.7 v -0.3 c -2,-0.8 -3.8,-1.9 -5.9,-2.6 -54.8,-26.8 -109.1,-48.5 -160.6,-66.6 -7.1,-2.6 -13.9,-5 -20.8,-7 -41.3,-14 -80.5,-25.4 -116.7,-34.8 -12.2,-3.2 -23.9,-6 -35,-8.6 -12.2,-3 -23.9,-5.7 -35,-8.1 -9.5,-2 -18.6,-3.9 -27.3,-5.5 -37.5,-7.4 -68.2,-12 -90.2,-15"
          style="fill:#371a45;fill-opacity:1;fill-rule:nonzero;stroke:none" id="path108" />
      </g>
      <g id="g110" transform="scale(1.90485)">
        <path
          d="m 15348.7,11733.5 c -39,0 -77,4.8 -114.3,11.3 -6.6,1.2 -13.2,2.4 -19.7,3.7 -26.1,6.7 -52.3,13 -77.4,21.7 -25,9.4 -50.1,17.7 -73.8,29.5 -47.9,21.6 -93.1,48.6 -135.3,79.9 -5.8,4.3 -7,12.6 -2.7,18.4 2.6,3.4 6.6,5.2 10.6,5.2 0.2,0 0.5,0 0.8,0 h 0.3 c 103.6,-7.2 200.7,-19.7 294.3,-22 6,0 12,0 18,0 86.4,0 169.5,6.8 239.4,38.3 74.6,32.4 133.4,88.3 174.6,162.7 20.7,37 36.6,78.1 48.5,120.9 5.7,21.5 10.7,43.4 14.3,65.5 1.8,11 3.3,22.1 4.4,33.1 1.2,10.4 2.1,23.2 2.4,30.5 l 0.1,3.2 c 1.3,41.7 35.6,74.6 77,74.6 0.9,0 1.7,-0.1 2.6,-0.1 11.9,-0.4 23.4,-3.6 33.4,-8.8 7.9,-4.2 21.5,-10.3 33,-14.9 12,-4.8 24.3,-9.1 36.6,-12.8 24.7,-7.4 49.6,-12.5 73.5,-14.8 8.3,-0.8 16.4,-1.2 24.3,-1.2 38.1,0 71.5,9.1 94.9,28 14.6,11.3 27,26 37.2,44.6 2.7,4.3 5,9.3 7.2,14.4 2.3,5 4.7,9.9 6.5,15.6 1.1,3.8 3.3,8.7 4.4,12.4 46.2,-15.2 75.9,-25.5 75.9,-25.5 26.8,-18.3 46.5,-39.4 60.3,-62.6 -1.6,-3.2 -3.3,-6.4 -4.9,-9.7 -4.2,-8.5 -8.7,-16.9 -14.2,-25.1 -20.2,-33.1 -47.7,-64.6 -81.6,-88.7 -33.9,-24.2 -73.1,-40.2 -111.5,-47.9 -25,-5.1 -49.8,-7.2 -73.9,-7.2 -12.9,0 -25.6,0.6 -38,1.7 -33.7,2.9 -66,9.2 -97,17.8 -3.2,-20.4 -7.2,-40.7 -11.9,-61 -7.3,-30.5 -16.2,-60.9 -27.4,-90.9 -8.7,-23.3 -18.7,-46.3 -30.5,-68.9 -4.6,-8.8 -9.5,-17.4 -14.5,-26 -5.7,-0.8 -10.7,-1.5 -15.1,-2 -3.2,-0.2 -5.7,-0.5 -8.3,-0.9 -9.5,-1.1 -14.8,-1.4 -14.8,-1.4 l -376.9,-239.6 c -10.3,-0.7 -20.6,-1 -30.8,-1"
          style="fill:#371a45;fill-opacity:1;fill-rule:nonzero;stroke:none" id="path112" />
      </g>
      <g id="g114" transform="scale(1.64715)">
        <path
          d="m 16173.3,12545.1 c -0.1,0.2 -0.1,0.2 -0.2,0.3 -17.8,28.3 -34.9,56.9 -51.2,85.8 -71,125.8 -127,256.7 -168.1,391.9 51.8,20.1 98.8,39.1 138.6,56.3 0.4,0.2 0.8,0.4 1.2,0.5 35.8,-121.9 86.4,-245.2 155.2,-368 16,-28.8 33.1,-57.5 51.2,-86.2 l -63.3,-40.2 -63.4,-40.4"
          style="fill:#371a45;fill-opacity:1;fill-rule:nonzero;stroke:none" id="path116" />
      </g>
      <g id="g118" transform="scale(1.55358)">
        <path
          d="m 16238.1,4607.5 c -1.7,-16.55 -3.9,-32.77 -7.1,-48.73 -85.8,-484.88 -681.2,-657.9 -1752.9,-524.47 -485.4,60.44 -1156.4,131.96 -1333.4,500.53 -353.2,735.65 7.4,2224.35 -34.5,3178.08 v 1.67 c 0,0 -195,-23.04 -436.9,-23.04 -242,0 -437,23.04 -437,23.04 -0.3,-7.65 -0.6,-15.63 -0.9,-23.36 -35.9,-954.57 316.7,-2426.14 -33.9,-3156.39 -177,-368.57 -847.6,-440.09 -1333.1,-500.53 -1073.13,-133.43 -1668.53,39.91 -1753.5,526.14 -2.83,15.39 -5.08,31.09 -6.82,47.06 -61.86,592.31 804.66,867.35 804.66,867.35 0,0 -188.98,1257.29 -313.53,2391.39 -309.29,2817.56 788.99,6209.66 788.99,6209.66 h 4569.9 c 0,0 1098.5,-3392.1 788.9,-6209.66 -124.5,-1134.1 -313.2,-2391.39 -313.2,-2391.39 0,0 866.2,-275.04 804.3,-867.35"
          style="fill:#ffffff;fill-opacity:1;fill-rule:nonzero;stroke:none" id="path120" />
      </g>
      <g id="g122" transform="scale(1.18434)" style="fill:#ffca28;fill-opacity:1">
        <path
          d="m 12829.6,8405.42 c 96.5,-711.28 173.6,-1223.72 173.6,-1223.72 0,0 -1136.7,-360.79 -1055.6,-1137.76 2.3,-20.94 5.3,-41.54 9,-61.72 111.4,-637.82 892.5,-865.21 2300.2,-690.17 636.8,79.19 1516.5,173.09 1748.7,656.56 294.5,613.34 210.7,1625.55 124.8,2603.05 -1597.7,-566.98 -2745.9,-339.6 -3300.7,-146.24"
          style="fill:#ffca28;fill-opacity:1;fill-rule:nonzero;stroke:none" id="path124" />
      </g>
      <g id="g126" transform="scale(1.55358)" style="fill:#ffca28;fill-opacity:1">
        <path
          d="m 15433.8,5474.85 c 0,0 65,432.87 143.8,1019.65 -389.9,-148.3 -1271.9,-359.37 -2523.9,70.22 -66.9,-759.15 -138,-1552.87 91,-2029.89 177,-368.57 848,-440.15 1333.4,-500.53 1071.7,-133.43 1667.1,39.59 1752.9,524.47 3.2,15.9 5.4,32.18 7.1,48.73 61.9,592.31 -804.3,867.35 -804.3,867.35"
          style="fill:#ffca28;fill-opacity:1;fill-rule:nonzero;stroke:none" id="path128" />
      </g>
      <g id="g130" transform="scale(1.35318)">
        <path
          d="m 15171.6,8908.84 -3.2,83.36 -131,-14.26 c -78,-8.5 -161.4,-14.64 -242.6,-18.85 -81.6,-4.28 -163.4,-6.43 -244.8,-6.58 -81.5,0.15 -163.3,2.3 -244.9,6.58 -81.1,4.21 -164.5,10.35 -242.6,18.85 l -131,14.26 -2.9,-77.67 c -118.7,21.28 -228.2,47.15 -328.5,75.68 -289.7,110.03 -588.9,238.17 -790,362.77 -7,5.17 -10.4,7.98 -10.4,7.98 0,0 926.2,-148.98 1641.5,-148.98 700.5,0 1813.1,142.85 1858.8,148.76 -260.6,-165.39 -658.9,-315.55 -976.7,-420.42 -49,-11.38 -99.6,-21.94 -151.7,-31.48"
          style="fill:#b9afbe;fill-opacity:1;fill-rule:nonzero;stroke:none" id="path132" />
      </g>
      <g id="g134" transform="scale(1.16216)">
        <path
          d="m 15823.3,8527.83 c -62.9,102.83 -136,207.89 -220.2,315.45 -712.5,910.63 -767.8,2099.92 -767.8,2099.92 24.9,-17.6 51.8,-35.2 80.4,-52.9 63.3,-47.6 375.6,-267.8 919.8,-422.4 131,-49.7 260.3,-96.3 380.6,-138.1 l -0.4,-10.7 c -17.6,-460.21 21.2,-908.86 58.2,-1354.41 8.6,-99.3 17.4,-198.33 26.1,-297.29 -163.8,-54.47 -322.8,-100.67 -476.7,-139.57"
          style="fill:#b9afbe;fill-opacity:1;fill-rule:nonzero;stroke:none" id="path136" />
      </g>
      <g id="g138" transform="scale(1.16796)" style="fill:#ffa000;fill-opacity:1">
        <path
          d="m 13619.5,5449.83 c -83.4,0 -166.4,2.23 -249,7.11 -212.5,13.18 -423.3,44.26 -612.7,112.24 -189.6,66.87 -350.6,179.2 -432.8,336.83 -17.2,33.39 -31.7,69.01 -42.9,106.08 383.8,-118.32 842.1,-171.84 1297.9,-171.84 953.8,0 1896.9,234.17 2124.9,597.79 402.2,641.72 507.3,1283.09 39.8,2047.42 153.1,38.7 311.3,84.67 474.3,138.87 30.1,-343.33 58.9,-684.87 72.1,-1024.95 7.9,-218.58 8.9,-436.48 -3.7,-651.47 -7.6,-107.2 -16.4,-214.14 -33,-318.59 -6.8,-52.83 -18.2,-103.86 -27.5,-155.66 -12.4,-50.43 -22.7,-101.97 -38.4,-150.86 -13.3,-50.08 -31.8,-97.26 -48.9,-145.12 l -30,-68.93 c -5,-12.41 -10.1,-22 -15.1,-30.82 -5.1,-9.25 -9.4,-18.83 -15.7,-27.57 -44.6,-72.26 -112.3,-135.19 -193.1,-187.5 -162.6,-105.14 -366,-170.64 -572.9,-219.27 -208,-48.64 -423.7,-80.15 -641.9,-108.31 -220.1,-27.66 -437,-56.08 -653.7,-70.47 -132.9,-9.42 -265.7,-14.98 -397.7,-14.98"
          style="fill:#ffa000;fill-opacity:1;fill-rule:nonzero;stroke:none" id="path140" />
      </g>
      <g id="g142" transform="scale(1.12904)">
        <path d="m 16300,10775 c -560.2,159 -881.6,385.8 -946.8,434.8 241,-149.4 599.6,-303 946.8,-434.8"
          style="fill:#8c7b94;fill-opacity:1;fill-rule:nonzero;stroke:none" id="path144" />
      </g>
      <g id="g146" transform="scale(1.37177)">
        <path
          d="m 15405.5,7259.37 c -161.4,35.42 -329.6,80.4 -504.6,136.46 5.9,66.26 11.7,132.6 17.5,199.01 31.4,377.47 64.3,757.56 49.3,1147.42 l -1.1,29.16 c 46.8,14.58 96.8,30.55 149,47.75 608.3,141.64 965,414.94 965,414.94 0,0 -0.5,-0.08 -1.5,-0.22 19.3,12.32 37.9,24.64 55.6,37.1 0,0 165.3,-724.39 -538.1,-1714.42 -72.2,-101.62 -135.8,-200.61 -191.1,-297.2"
          style="fill:#b9afbe;fill-opacity:1;fill-rule:nonzero;stroke:none" id="path148" />
      </g>
      <g id="g150" transform="scale(1.53607)" style="fill:#ffa000;fill-opacity:1">
        <path
          d="m 15279.5,4143.83 c -100.3,0 -201.3,4.23 -302.4,11.39 -164.7,10.94 -329.6,32.55 -497,53.58 -165.9,21.42 -329.9,45.37 -488.1,82.35 -157.3,36.98 -311.9,86.78 -435.6,166.73 -61.4,39.78 -112.9,87.62 -146.8,142.57 -4.8,6.64 -8,13.93 -11.9,20.96 -3.8,6.71 -7.7,14 -11.4,23.44 l -23,52.4 c -12.9,36.4 -27,72.27 -37.1,110.35 -11.9,37.17 -19.8,76.37 -29.2,114.71 -7.1,39.39 -15.7,78.19 -20.8,118.35 -12.7,79.43 -19.4,160.74 -25.2,242.25 -9.6,163.46 -8.8,329.15 -2.8,495.35 10.6,274.14 34.6,549.59 59,826.53 156.2,-50.07 306.5,-90.23 450.5,-121.87 -339.2,-592.23 -328.8,-1086.09 -26.1,-1568.62 165.3,-263.85 880.8,-423.15 1628.6,-423.22 320.9,0 647.8,29.36 939.8,92.31 -9,-32.55 -21.2,-63.73 -36.1,-92.7 -62.5,-119.85 -185,-205.27 -329.1,-256.11 -144.1,-51.69 -304.4,-75.32 -465.9,-85.35 -62.8,-3.71 -126,-5.4 -189.4,-5.4"
          style="fill:#ffa000;fill-opacity:1;fill-rule:nonzero;stroke:none" id="path152" />
      </g>
      <g id="g154" transform="scale(1.35331)">
        <path
          d="m 15321.9,8939.51 c 317.8,104.86 716,255.01 976.6,420.38 1,0.15 1.5,0.22 1.5,0.22 0,0 -361.6,-277.03 -978.1,-420.6"
          style="fill:#8c7b94;fill-opacity:1;fill-rule:nonzero;stroke:none" id="path156" />
      </g>
      <g id="g158" transform="scale(1.55851)">
        <path
          d="m 10389,14020.4 c -78.9,-352.3 -158.1,-704.6 -232.5,-1057.1 -19.1,-88.1 -38.2,-176.1 -55.6,-264.4 l -55.1,-264.5 c -34.1,-176.7 -70.63,-353 -102.52,-530.1 l -47.22,-265.6 -23.81,-132.8 -20.72,-133.3 c -27.98,-177.6 -59.29,-354.8 -80.78,-533.2 -23.49,-178.2 -49.15,-356.1 -65.9,-534.9 l -28.36,-268 c -10.01,-89.24 -13.54,-178.94 -20.6,-268.45 l -18.16,-268.59 c -3.78,-44.79 -4.29,-89.63 -5.51,-134.42 l -3.53,-134.42 -7.19,-268.85 c -2.05,-44.85 -0.25,-89.57 0.58,-134.36 l 3.14,-134.23 6.29,-268.53 c 0,-44.85 4.75,-89.31 8.08,-133.84 l 10.53,-133.66 21.05,-267.3 c 7.56,-89.19 19.37,-179.15 29.06,-268.66 83.48,-716.9 180.43,-1433.67 285.72,-2147.88 l 12.96,-88.1 -85.59,-28.42 c -32.85,-10.91 -71.61,-26.06 -107.09,-41.13 -36.12,-15.4 -71.86,-31.89 -106.96,-49.54 -70,-35.48 -137.7,-74.94 -200.32,-119.54 -125.12,-88.28 -233.04,-198.84 -283.8,-326.14 -26.43,-63.14 -35.61,-130.19 -31.5,-197.95 3.78,-69.55 22.46,-137.69 52.81,-196.47 61.59,-118.12 182.28,-202.31 324.34,-252.42 142,-50.94 299.97,-74.24 459.2,-84.12 159.8,-9.43 322.2,-5.58 484.7,5.91 162.4,10.78 324.9,32.08 489.8,52.8 163.5,21.11 325.2,44.73 481.1,81.17 155,36.45 307.5,85.53 429.3,164.33 60.6,39.2 111.3,86.36 144.7,140.51 4.7,6.55 7.9,13.74 11.8,20.66 3.7,6.61 7.6,13.8 11.3,23.1 l 22.5,51.66 c 12.8,35.87 26.6,71.22 36.6,108.75 11.8,36.64 19.5,75.27 28.8,113.06 7,38.82 15.5,77.06 20.6,116.65 12.4,78.28 19,158.42 24.8,238.76 9.4,161.11 8.6,324.41 2.7,488.22 -12.7,327.94 -44.8,657.74 -73.4,989.79 -27.6,332.24 -56.6,666.79 -43.5,1009.94 l 4.3,112.74 113.7,-12.39 c 67.8,-7.38 140.3,-12.7 210.7,-16.36 70.9,-3.72 141.8,-5.58 212.6,-5.71 70.7,0.13 141.7,1.99 212.6,5.71 70.4,3.66 142.9,8.98 210.6,16.36 l 113.7,12.39 4.3,-112.74 c 13.2,-343.15 -15.8,-677.7 -43.4,-1009.94 -28.6,-332.05 -60.8,-661.85 -73.5,-989.79 -5.9,-163.81 -6.7,-327.11 2.8,-488.22 5.7,-80.34 12.3,-160.48 24.8,-238.76 5,-39.59 13.5,-77.83 20.5,-116.65 9.3,-37.79 17,-76.42 28.8,-113.06 10,-37.53 23.9,-72.88 36.6,-108.75 l 22.6,-51.66 c 3.7,-9.3 7.5,-16.49 11.2,-23.1 3.9,-6.92 7.1,-14.11 11.8,-20.66 33.5,-54.15 84.2,-101.31 144.7,-140.51 121.9,-78.8 274.3,-127.88 429.3,-164.33 156,-36.44 317.6,-60.06 481.1,-81.17 165,-20.72 327.5,-42.02 489.9,-52.8 162.4,-11.49 324.8,-15.34 484.6,-5.91 159.3,9.88 317.2,33.18 459.2,84.12 142.1,50.11 262.8,134.3 324.4,252.42 30.3,58.78 49,126.92 52.8,196.47 4.1,67.76 -5.1,134.81 -31.5,197.95 -50.8,127.3 -158.7,237.86 -283.8,326.14 -62.6,44.6 -130.3,84.06 -200.3,119.54 -35.1,17.65 -70.9,34.14 -107,49.54 -35.5,15.07 -74.2,30.22 -107.1,41.13 l -85.6,28.42 13,88.1 c 97,657.16 186.6,1316.7 265.6,1976.31 18.8,164.58 39.9,330.64 54.6,494.19 6.9,81.94 16.6,163.55 21.2,245.68 l 14.6,246.52 c 13.4,329.1 11.5,659.28 -2.3,989.15 -25.8,660.14 -108.7,1318.24 -221.1,1970.34 -56.4,325.4 -115.3,653.6 -175.5,976.1 -66.8,324.1 -130.2,650.1 -199.3,974.2 l -0.1,0.4 c -4.1,19.2 8.1,38.1 27.3,42.1 16.3,3.5 32.4,-4.9 39.4,-19.3 73.4,-152.8 130.9,-311 184.9,-469.8 52.9,-159.2 101.4,-319.3 144.4,-481.4 81.8,-328 148.3,-653.9 201.4,-985.1 54.7,-330.4 95.9,-662.9 132.6,-995.9 18.1,-166.5 32.8,-333.4 47.3,-500.38 l 17.2,-250.95 c 5.9,-83.6 8.5,-167.53 12.9,-251.26 14,-335.26 16,-671.35 2.3,-1007.5 l -15,-252.04 c -4.7,-83.99 -14.5,-167.79 -21.6,-251.71 -15.1,-167.98 -36.2,-332.31 -55.1,-498.36 -79.4,-662.56 -169.1,-1322.62 -266.4,-1982.67 l -72.7,116.52 c 46.1,-15.33 84.8,-30.73 125.9,-48.06 40.3,-17.26 80.1,-35.54 119.3,-55.31 78.3,-39.65 154.7,-83.98 227.6,-135.89 73,-51.53 142.5,-110.56 204.7,-179.66 62.4,-68.59 116.3,-149.44 153.1,-240.43 37.8,-90.47 52.6,-192.42 46.2,-290.27 -5.6,-96.38 -30.7,-192.3 -76.6,-281.36 -46.8,-88.03 -114.4,-165.09 -191.9,-222.14 -77.2,-58.26 -162,-99.9 -247.5,-130.57 -171.7,-61.28 -346.6,-85.47 -518.7,-96.44 -172.3,-10.2 -343,-5.96 -512.3,6.03 -169.5,11.23 -337,33.24 -502,53.96 -166.2,21.5 -334.2,45.82 -502.3,85.02 -167.4,40.17 -338,91.5 -496.9,193.26 -78.5,51.01 -154.2,118.26 -208.5,205.84 -7.3,10.52 -13,22.2 -19.1,33.5 -6.4,11.55 -12.2,22.77 -16.2,32.85 l -27.3,62.68 c -15.4,42.29 -31.5,84.57 -43,127.5 -13.6,42.67 -22.3,85.66 -32.8,128.58 -7.8,42.99 -17.2,85.98 -22.7,128.97 -13.7,85.98 -20.8,171.77 -26.8,257.3 -10,170.93 -9.1,340.65 -3.1,509.14 13.2,336.86 45.7,669.42 74.1,1000.06 27.8,330.12 55.5,660.18 43,982.35 L 13081,7585 c -76.9,-8.34 -149.5,-13.53 -224.4,-17.51 -74.3,-3.92 -148.8,-5.91 -223.5,-5.97 -74.8,0.06 -149.2,2.05 -223.5,5.97 -74.9,3.98 -147.6,9.17 -224.4,17.51 l 118,100.36 c -12.5,-322.17 15.2,-652.23 42.9,-982.35 28.4,-330.64 61,-663.2 74.1,-1000.06 6,-168.49 6.9,-338.21 -3.1,-509.14 -6,-85.53 -13.1,-171.32 -26.7,-257.3 -5.6,-42.99 -14.9,-85.98 -22.8,-128.97 -10.4,-42.92 -19.1,-85.91 -32.7,-128.58 -11.5,-42.93 -27.7,-85.21 -43,-127.5 l -27.4,-62.68 c -4,-10.08 -9.7,-21.3 -16.1,-32.85 -6.1,-11.3 -11.9,-22.98 -19.1,-33.5 -54.3,-87.58 -130.1,-154.83 -208.6,-205.84 -158.9,-101.76 -329.5,-153.09 -496.9,-193.26 -168.1,-39.2 -336.1,-63.52 -502.2,-85.02 -165.1,-20.72 -332.5,-42.73 -502.1,-53.96 -169.2,-11.99 -340,-16.23 -512.3,-6.03 -172.1,10.97 -346.94,35.16 -518.65,96.44 -85.53,30.67 -170.29,72.31 -247.48,130.57 -77.51,57.05 -145.07,134.11 -191.91,222.14 -45.94,89.06 -71.03,184.98 -76.68,281.36 -6.35,97.85 8.47,199.8 46.27,290.27 36.76,90.99 90.66,171.84 153.09,240.43 62.18,69.1 131.73,128.13 204.68,179.66 72.89,51.91 149.38,96.24 227.66,135.89 39.2,19.77 78.98,38.05 119.34,55.31 41.07,17.33 79.69,32.73 125.76,48.06 l -72.57,-116.52 c -105.74,717.29 -202.75,1434.58 -286.68,2154.95 -9.75,90.27 -21.49,179.72 -29.26,270.77 l -21.62,273.66 -10.78,136.86 c -3.34,45.62 -8.21,91.18 -8.21,136.86 l -6.48,273.91 -3.28,136.99 c -1.15,45.62 -3.14,91.31 -1.28,136.93 l 5.65,273.6 2.88,136.79 c 1.03,45.56 1.29,91.24 4.88,136.61 l 16.88,272.89 c 6.15,90.85 8.85,182.16 18.02,272.75 l 25.8,271.9 12.9,136.1 c 3.91,45.3 8.72,90.6 14.88,135.7 l 35.36,270.7 c 46.71,361.1 108.63,719.8 179.53,1076.5 16.68,89.3 38.04,177.8 56.85,266.7 19.82,88.7 37.79,177.8 59.6,266.1 43.64,176.4 85.6,353.2 136.16,527.8 98.09,350.1 206.69,696.9 343.29,1035.2 7.4,18.1 28,26.8 46.1,19.5 16.3,-6.5 24.9,-23.9 21.2,-40.5 l -0.1,-0.8"
          style="fill:#371a45;fill-opacity:1;fill-rule:nonzero;stroke:none" id="path160" />
      </g>
      <g id="g162" transform="scale(1.49279)">
        <path
          d="m 13090.5,8981.56 c -910.6,286.51 -1422.6,764.41 -1708.9,1240.24 -203.7,-57.1 -444.1,-77.4 -682.2,-77.4 -50.4,0 -100.8,1 -150.6,2.6 3.6,82.8 1.4,168.7 -7.6,257.1 90.2,-5.1 182.6,-8.1 275.2,-8.1 244.6,0 490.7,20.8 702.5,78.5 274.4,-428.9 750.6,-852.86 1571.7,-1111.37 863.1,271.71 1345,726.17 1612.3,1176.97 9.5,-5 19.4,-9.6 29.6,-13.7 241.1,-97.6 550.6,-130.4 857.9,-130.4 237.7,0 474.1,19.7 676.4,44.1 5.7,0.7 11.5,1.5 17.3,2.4 5.8,-67.6 11.1,-135.2 15.9,-202.7 -49.6,-26.8 -105,-44.9 -164.5,-52.1 -193.5,-23.4 -427.3,-43.2 -663.4,-43.2 -234.7,0 -471.8,19.6 -673.8,74.9 -286.6,-475.24 -798.6,-951.59 -1707.8,-1237.84 m -2059.8,2598.74 c 2.9,77.3 9.2,121.4 9.2,121.4 34.5,34.5 73.3,66.9 115.8,97.3 -1,-29.2 -1.5,-63.2 -0.9,-101.4 0.5,-33.8 1.9,-70.9 4.4,-110.9 -41.4,-2.6 -84.2,-4.8 -128.5,-6.4 m 4119.3,13.4 c -44.3,3.6 -86.5,7.9 -126.7,12.5 1.6,29.7 2.6,57.7 3,83.8 0.9,41.3 0.4,77.8 -0.7,108.9 42.5,-30.3 81.3,-62.7 115.8,-97.2 0,0 5.6,-39 8.6,-108"
          style="fill:#b9afbe;fill-opacity:1;fill-rule:nonzero;stroke:none" id="path164" />
      </g>
      <g id="g166" transform="scale(1.50568)">
        <path
          d="m 16160.5,10152.2 c -4.8,66.9 -10.1,133.9 -15.8,200.9 53,8 103.8,23.1 151.2,44.7 1.6,-43.2 3,-86.5 4.1,-129.7 -38.1,-47 -85.3,-86.7 -139.5,-115.9"
          style="fill:#371a45;fill-opacity:1;fill-rule:nonzero;stroke:none" id="path168" />
      </g>
      <g id="g170" transform="scale(1.06537)" style="fill:#349369;fill-opacity:1">
        <path
          d="m 16300,14893.1 c -575.5,-233 -1466,-184.3 -2073.1,-110.8 -364.1,44 -619.7,380.1 -566.1,742.9 48.9,331.1 340.4,571.9 674.7,556.2 567.9,-26.6 1419.7,-39.1 1959.1,80.6 l 5.4,-1268.9"
          style="fill:#349369;fill-opacity:1;fill-rule:nonzero;stroke:none" id="path172" />
      </g>
      <g id="g174" transform="scale(1.04101)" style="fill:#41b883;fill-opacity:1">
        <path
          d="m 15404.2,16142.6 c -251.2,0 -494.5,7.3 -702.8,16.7 -26.5,46.7 -54.3,93.3 -83.6,140.3 7.1,0.3 14.2,0.4 21.3,0.4 8.2,0 16.3,-0.2 24.4,-0.6 224.7,-10.4 480,-18.3 741,-18.3 211.6,0 426.9,5.2 632.5,18.3 6.9,-44.4 15,-90 24.3,-136.7 -213.4,-14.6 -438.2,-20.1 -657.1,-20.1"
          style="fill:#41b883;fill-opacity:1;fill-rule:nonzero;stroke:none" id="path176" />
      </g>
      <g id="g178" transform="scale(1.04452)" style="fill:#276e4f;fill-opacity:1">
        <path
          d="m 15453.6,15173.8 c -139.7,0 -286.7,5 -440.3,15 -33.9,152.5 -81.9,309.2 -145.5,469.1 188.6,-15.5 390.1,-25.8 592.8,-25.8 224.7,0 450.8,12.7 662.4,44.7 46.5,-137.1 104.7,-278.8 177,-422 -233.8,-53.8 -519.7,-81 -846.4,-81"
          style="fill:#276e4f;fill-opacity:1;fill-rule:nonzero;stroke:none" id="path180" />
      </g>
      <g id="g182" transform="scale(1.09687)">
        <path
          d="m 13893.7,15470 c -238.4,0 -441.1,-173.7 -476.5,-412.6 -19.2,-130.2 14.2,-259.6 93.9,-364.2 79.6,-104.3 195.1,-170.4 325.3,-186.1 842.8,-102 1531.5,-67.4 1939.1,97.6 119.3,48.3 154.2,241.7 163.7,322.6 33.5,286.2 -53.2,552.3 -108,617.8 -531.7,-111.5 -1331.9,-102.9 -1914.4,-75.6 -7.7,0.3 -15.4,0.5 -23.1,0.5 m 827,-1321.5 c -323.5,0 -645,26.7 -920.4,60.1 -211.4,25.6 -398.9,132.9 -528.2,302.3 -129.4,169.6 -183.4,379.4 -152.3,590.5 59.2,400 409.3,687.9 811.1,668.4 812.4,-38.1 1474,-11.4 1863.3,74.9 78.4,17.4 274,18.2 389.1,-351.9 116.7,-375.2 103.6,-1005.4 -295,-1166.8 -328,-132.7 -749.3,-177.5 -1167.6,-177.5"
          style="fill:#371a45;fill-opacity:1;fill-rule:nonzero;stroke:none" id="path184" />
      </g>
      <g id="g186" transform="scale(1.52904)" style="fill:#349369;fill-opacity:1">
        <path
          d="m 14423.8,10376.9 c 400.9,-162.4 1021.3,-128.4 1444.4,-77.2 253.7,30.7 431.8,264.8 394.4,517.6 -34.1,230.7 -237.2,398.5 -470.1,387.5 -395.7,-18.5 -989.2,-27.2 -1365,56.2 l -3.7,-884.1"
          style="fill:#349369;fill-opacity:1;fill-rule:nonzero;stroke:none" id="path188" />
      </g>
      <g id="g190" transform="scale(1.51414)" style="fill:#41b883;fill-opacity:1">
        <path
          d="m 16300,10969.9 c -84,87.8 -202,141.5 -330.5,141.5 -7.2,0 -14.4,-0.2 -21.6,-0.5 -147.9,-6.9 -323,-12.5 -504.2,-12.5 -227.8,0 -465.2,8.8 -670,34.7 5.9,31.7 11.1,62.6 15.6,92.6 201.8,-23.7 430.8,-32 653.9,-32 179.5,0 355.2,5.4 509.7,12.6 5.5,0.3 11,0.4 16.4,0.4 151.9,0 283.2,-96.5 330.7,-236.8"
          style="fill:#41b883;fill-opacity:1;fill-rule:nonzero;stroke:none" id="path192" />
      </g>
      <g id="g194" transform="scale(1.51682)" style="fill:#276e4f;fill-opacity:1">
        <path
          d="m 15346.8,10449 c -319.5,0 -582.3,37.8 -766.1,112.2 -3.1,1.3 -6.2,2.7 -9.2,4.2 44.1,94.4 79.5,187.2 107.9,276.9 198.5,-54.4 431.7,-73.7 662.6,-73.7 232.8,0 463.3,19.7 653.9,42.8 109.7,13.1 205.2,64 275.7,138 6.5,-19.5 11.4,-39.8 14.5,-60.8 13.9,-94.2 -10.2,-187.8 -67.9,-263.4 -57.6,-75.4 -141.1,-123.3 -235.2,-134.6 -229.5,-27.8 -443.2,-41.6 -636.2,-41.6"
          style="fill:#276e4f;fill-opacity:1;fill-rule:nonzero;stroke:none" id="path196" />
      </g>
      <g id="g198" transform="scale(1.53764)">
        <path
          d="m 14343.6,11089 c -39.1,-46.7 -101,-236.5 -77,-440.7 6.7,-57.8 31.6,-195.6 116.7,-230.1 290.7,-117.7 782,-142.5 1383.2,-69.7 92.9,11.2 175.3,58.4 232.1,132.8 56.9,74.6 80.7,166.9 66.9,259.8 -26,175.8 -178.7,302.1 -356.3,293.9 -415.5,-19.4 -986.4,-25.5 -1365.6,54 m 792.1,-996.2 c -298.3,0 -598.9,31.8 -832.9,126.6 -284.3,115.1 -293.7,564.7 -210.5,832.3 82.2,264 221.8,263.4 277.7,251 277.7,-61.6 749.5,-80.5 1329.1,-53.4 288,13.9 536.4,-191.5 578.6,-476.8 22.3,-150.7 -16.3,-300.3 -108.6,-421.3 -92.2,-120.8 -226,-197.3 -376.8,-215.6 -196.4,-23.7 -425.9,-42.8 -656.6,-42.8"
          style="fill:#371a45;fill-opacity:1;fill-rule:nonzero;stroke:none" id="path200" />
      </g>
      <g id="g202" transform="scale(1.49763)">
        <path
          d="m 15084.5,6412.95 c -390.7,0 -897.2,73.52 -1546.3,285.25 -57.8,18.83 -89.4,81 -70.6,138.82 18.9,57.76 81,89.34 138.9,70.51 1917.3,-625.39 2478.7,17.43 2484.2,24.04 38.4,46.34 107.5,53.69 154.3,15.83 46.9,-37.93 55,-105.9 17.7,-153.25 -17.4,-22.03 -314.9,-381.2 -1178.2,-381.2"
          style="fill:#371a45;fill-opacity:1;fill-rule:nonzero;stroke:none" id="path204" />
      </g>
      <g id="g206" transform="scale(1.18163)">
        <path
          d="m 14096.3,8068.25 c -522,0 -1024,93.68 -1346.5,378.04 -57.8,51.03 -63.3,139.12 -12.3,197.01 50.9,57.8 139.1,63.3 196.9,12.36 809,-713.17 3143.4,20.73 3166.8,28.26 73.6,23.44 152,-17.09 175.4,-90.47 23.4,-73.45 -17.1,-151.9 -90.5,-175.43 -66.5,-21.16 -1112.9,-349.77 -2089.8,-349.77"
          style="fill:#371a45;fill-opacity:1;fill-rule:nonzero;stroke:none" id="path208" />
      </g>
      <g id="g210" transform="scale(1.39941)">
        <path
          d="m 13964.2,9987.91 c 2335.8,735.39 2054.7,2725.19 2054.7,2725.19 -524.5,524.5 -2054.7,562.3 -2054.7,562.3 0,0 -1530.2,-37.8 -2054.7,-562.3 0,0 -281.2,-1989.8 2054.7,-2725.19"
          style="fill:#ffca28;fill-opacity:1;fill-rule:nonzero;stroke:none" id="path212" />
      </g>
      <g id="g214" transform="scale(1.37608)">
        <path
          d="m 16300,12799.6 -0.1,0.1 c -2.8,82.1 -9.4,128.9 -9.4,128.9 -0.3,0.3 -0.7,0.7 -1,1 -0.1,0.1 -0.3,0.2 -0.5,0.4 -0.1,0.2 -0.2,0.3 -0.4,0.4 -0.2,0.2 -0.3,0.4 -0.5,0.5 -0.3,0.3 -0.6,0.7 -0.9,1 -0.1,0 -0.1,0.1 -0.1,0.1 -536.6,530.2 -2086.2,568.5 -2086.2,568.5 0,0 -1549.6,-38.3 -2086.1,-568.5 l -0.1,-0.1 c -0.3,-0.3 -0.6,-0.7 -0.9,-1 -0.2,-0.1 -0.3,-0.3 -0.5,-0.4 -0.2,-0.1 -0.3,-0.3 -0.5,-0.5 -0.1,-0.2 -0.3,-0.3 -0.5,-0.4 -0.3,-0.3 -0.6,-0.7 -0.9,-1 0,0 -6.6,-46.8 -9.4,-128.9 h -0.2 c 2.9,82.1 9.6,129.1 9.6,129.1 533.5,533.2 2089.4,571.8 2089.4,571.8 0,0 1556.2,-38.6 2089.8,-571.8 0,0 6.6,-47 9.4,-129.2"
          style="fill:#ffffff;fill-opacity:1;fill-rule:nonzero;stroke:none" id="path216" />
      </g>
      <g id="g218" transform="scale(1.37622)">
        <path
          d="m 16299.1,12680.2 c 0.3,14.9 0.5,29.3 0.5,43 0,27.6 -0.5,52.7 -1.3,75.2 v -0.1 c 1.2,-33.7 1.7,-73.3 0.8,-118.1 m -4199.4,8.2 c -0.7,41.5 -0.2,78.3 0.9,110 h 0.1 c -0.8,-22.5 -1.3,-47.6 -1.3,-75.2 0,-11.1 0.1,-22.8 0.3,-34.8"
          style="fill:#eae7eb;fill-opacity:1;fill-rule:nonzero;stroke:none" id="path220" />
      </g>
      <g id="g222" transform="scale(1.37618)" style="fill:#ffa000;fill-opacity:1">
        <path
          d="m 16300,12723.6 c -0.1,128 -10.8,204 -10.8,204 -0.3,0.3 -0.6,0.7 -0.9,1 0.3,-0.3 0.7,-0.7 0.9,-1 0,0 6.7,-46.8 9.5,-128.9 0.8,-22.4 1.3,-47.6 1.3,-75.1 m -4200.2,0 c 0,27.5 0.5,52.7 1.3,75.1 2.8,82.1 9.4,128.9 9.4,128.9 0.3,0.3 0.6,0.7 0.9,1 -0.3,-0.3 -0.6,-0.6 -0.9,-1 0,0 -10.7,-76 -10.7,-204 m 110.1,23.3 c -13.3,91.6 -20.4,175.1 -23.7,247.9 -25.7,-20.4 -50,-41.7 -72.3,-63.8 536.4,530.2 2085.9,568.5 2085.9,568.5 0,0 1549.5,-38.4 2086,-568.5 -22.4,22.1 -46.6,43.4 -72.3,63.8 -3.2,-72.8 -10.3,-156.3 -23.7,-247.9 -604.5,451.8 -1990.1,486.2 -1990.1,486.2 0,0 -1385.4,-34.3 -1989.8,-486.2 m -98,182.1 c 0.1,0.2 0.3,0.4 0.5,0.5 -0.2,-0.1 -0.4,-0.3 -0.5,-0.5 m 4175.9,0 c -0.2,0.2 -0.3,0.3 -0.4,0.4 0.2,-0.1 0.2,-0.2 0.4,-0.4 m -4175,1 c 0.3,0.2 0.7,0.6 1,0.9 -0.4,-0.3 -0.7,-0.7 -1,-0.9 m 4174,0 c -0.2,0.2 -0.5,0.6 -0.8,0.9 0.3,-0.3 0.6,-0.7 0.8,-0.9"
          style="fill:#ffa000;fill-opacity:1;fill-rule:nonzero;stroke:none" id="path224" />
      </g>
      <g id="g226" transform="scale(1.37615)" style="fill:#ffa000;fill-opacity:1">
        <path
          d="m 14200.2,10156.8 c -890.7,280.4 -1407.3,740.3 -1705,1205.6 -46.2,72.2 -87,144.4 -123.3,216.2 -135.8,269.2 -205.8,531.1 -240.4,751.4 -13.7,86.7 -21.8,167 -26.4,238.8 -2.8,43.4 -4.2,83.6 -4.8,120.3 0.5,-30.9 1.7,-64.4 3.7,-100.1 3.2,46.9 6.8,72.7 6.8,72.7 30.1,30 63.4,58.5 99.4,85.6 90,-615.3 465.4,-1591.8 1886.3,-2079 33.5,-11.4 68.6,-17.2 103.7,-17.2 35.1,0 70.2,5.8 103.9,17.2 1420.8,487.2 1796.1,1463.7 1886.1,2079 36.2,-27.1 69.5,-55.6 99.6,-85.6 0,0 3.4,-25.8 6.7,-72.7 1.8,32.5 3,63.3 3.5,91.8 -0.5,-28.2 -1.5,-58.6 -3.3,-90.8 -4,-71.2 -11.5,-151.4 -24.4,-238.6 -4.9,-33 -10.7,-67 -17.2,-101.9 -34.7,-183.3 -94.3,-390.4 -194.1,-604.1 -32.8,-70.2 -69.9,-141 -111.9,-212 -289.9,-488.9 -812.7,-981.9 -1748.9,-1276.6"
          style="fill:#ffa000;fill-opacity:1;fill-rule:nonzero;stroke:none" id="path228" />
      </g>
      <g id="g230" transform="scale(1.3752)">
        <path
          d="m 16300,12937.9 c -0.1,0.1 -0.3,0.3 -0.5,0.4 0.2,-0.1 0.4,-0.3 0.5,-0.4 m -4179.9,0 c 0.2,0.1 0.4,0.3 0.5,0.4 -0.1,-0.1 -0.3,-0.3 -0.5,-0.4 m 4179,0.8 c -0.2,0.3 -0.3,0.4 -0.6,0.5 0.3,-0.1 0.4,-0.2 0.6,-0.5 m -4178,0.1 c 0.2,0.2 0.3,0.3 0.4,0.4 -0.2,-0.1 -0.2,-0.2 -0.4,-0.4 m 4176.6,1.4 c -0.1,0.1 -0.1,0.1 -0.2,0.1 0.1,0 0.1,-0.1 0.2,-0.1 m -4175.2,0 0.1,0.1 -0.1,-0.1"
          style="fill:#b9afbe;fill-opacity:1;fill-rule:nonzero;stroke:none" id="path232" />
      </g>
      <g id="g234" transform="scale(1.37618)">
        <path
          d="m 16296.1,12588.7 c -3.3,46.9 -6.8,72.7 -6.8,72.7 -30.1,30 -63.3,58.5 -99.5,85.5 13.4,91.6 20.5,175.1 23.7,247.9 25.7,-20.4 49.9,-41.7 72.3,-63.8 0.1,0 0.1,0 0.2,-0.1 0.3,-0.3 0.6,-0.7 0.8,-0.9 0.3,-0.2 0.4,-0.3 0.6,-0.6 0.1,-0.1 0.2,-0.2 0.4,-0.4 0.2,-0.1 0.4,-0.3 0.5,-0.4 0.3,-0.3 0.6,-0.7 0.9,-1 0,0 10.7,-76 10.8,-204 0,-13.7 -0.1,-28.1 -0.4,-43.1 -0.5,-28.6 -1.7,-59.3 -3.5,-91.8 m -4192.4,0 c -2,35.7 -3.2,69.1 -3.7,100.1 -0.2,12 -0.2,23.6 -0.2,34.8 0,128 10.7,204 10.7,204 0.3,0.4 0.6,0.7 0.9,1 0.2,0.1 0.4,0.3 0.5,0.4 0.1,0.2 0.3,0.4 0.5,0.5 0.2,0.2 0.2,0.3 0.4,0.5 0.3,0.2 0.6,0.6 1,0.9 l 0.1,0.1 c 22.3,22.1 46.6,43.4 72.3,63.8 3.3,-72.8 10.4,-156.3 23.7,-247.9 -36,-27 -69.4,-55.5 -99.5,-85.5 0,0 -3.5,-25.8 -6.7,-72.7"
          style="fill:#919fbb;fill-opacity:1;fill-rule:nonzero;stroke:none" id="path236" />
      </g>
      <g id="g238" transform="scale(1.26921)">
        <path
          d="m 15760.5,13467.2 453.6,-64 c 61.2,-8.6 85.9,-83.6 41.8,-127 l -326.6,-321 c -17.5,-17.2 -25.5,-41.9 -21.2,-66.1 l 79.3,-451 c 10.7,-60.9 -53,-107.6 -107.8,-79.1 l -406.3,211.4 c -21.8,11.4 -47.7,11.3 -69.4,-0.2 l -404.5,-214.9 c -54.6,-28.9 -118.6,17.3 -108.5,78.2 l 75.6,451.7 c 4,24.2 -4.1,48.8 -21.7,65.9 l -329.3,318.3 c -44.5,43 -20.3,118.2 40.8,127.4 l 453,67.7 c 24.2,3.6 45.1,18.9 55.9,41 l 201,411.5 c 27.1,55.6 106.1,55.9 133.7,0.6 l 204.4,-409.9 c 10.9,-21.9 32,-37.1 56.2,-40.5"
          style="fill:#ffffff;fill-opacity:1;fill-rule:nonzero;stroke:none" id="path240" />
      </g>
      <g id="g242" transform="scale(1.39146)">
        <path
          d="m 12091,12730 c -9.9,-125.8 -24.6,-538.6 153.5,-1005.7 280.8,-736 886,-1259 1799.5,-1554.9 913.4,295.9 1518.6,818.9 1799.4,1554.9 178,466.9 163.5,879.7 153.5,1005.7 -504.2,451.3 -1879.4,500.5 -1952.9,502.7 -73.6,-2.2 -1448.8,-51.4 -1953,-502.7 z m 1953,-2809.2 -35.6,11.21 c -1259.1,396.39 -1776.8,1153.59 -1989.5,1718.99 -230.9,614 -161.7,1129.7 -158.7,1151.3 l 5.5,39.2 28.1,28 c 554.6,554.6 2082.5,598.7 2147.2,600.2 l 3,0.1 2.9,-0.1 c 64.8,-1.5 1592.7,-45.6 2147.2,-600.2 l 28.1,-28 5.5,-39.2 c 3.1,-21.6 72.3,-537.3 -158.7,-1151.3 -212.7,-565.4 -730.4,-1322.6 -1989.5,-1718.99 l -35.5,-11.21"
          style="fill:#371a45;fill-opacity:1;fill-rule:nonzero;stroke:none" id="path244" />
      </g>
      <g id="g246" transform="scale(1.04387)">
        <path
          d="m 13016.6,12843.7 c -1642.3,334.8 -1167.8,1878.8 -1156.8,1915.4 l 0.5,0.6 c -67.3,42.6 -131.6,85.8 -193.8,128.4 0,0 2220.7,270.7 2651.5,1298.5 16,36.6 29.2,74.8 39.7,113.4 h 0.5 c 1310.4,-1949.6 145.6,-3759.6 -1341.6,-3456.3"
          style="fill:#ffffff;fill-opacity:1;fill-rule:nonzero;stroke:none" id="path248" />
      </g>
      <g id="g250" transform="scale(1.39579)">
        <path
          d="m 10311.9,12707.1 c 2.8,-2.8 5.7,-5.6 8.2,-8.5 1596.7,-1631.3 655.8,-3346.34 -585.34,-3093.22 -1242.95,253.47 -864.81,1432.72 -864.81,1432.72 -3154.11,2007.9 1441.95,4479.6 1441.95,4479.6 868.3,479.4 1762,782.3 1762,782.3 l -561.2,-1715.7 -445.8,-1363.2 c -602.4,-261.4 -755,-514 -755,-514"
          style="fill:#ffffff;fill-opacity:1;fill-rule:nonzero;stroke:none" id="path252" />
      </g>
      <g id="g254" transform="scale(1.2586)">
        <path
          d="m 11331.6,14172.5 c -161.5,122.1 -356,245.7 -558.2,321.6 0,0 465.1,255.4 620.3,438 631.7,743.6 513.2,1367.9 1027.2,1367.9 30.5,0 63,-2.1 98.3,-6.7 98.9,-12.6 -33.2,-265.8 -98.5,-401 l -147.5,-1230.1 c -2.3,-1 -4.7,-2 -7,-3 -0.2,0.6 -0.5,1.3 -0.8,1.8 -22.5,47.2 -69.5,74.8 -118.4,74.8 -18.9,0 -38.1,-4.1 -56.3,-12.8 -532.4,-253.5 -718.1,-490.2 -759.1,-550.5"
          style="fill:#b9afbe;fill-opacity:1;fill-rule:nonzero;stroke:none" id="path256" />
      </g>
      <g id="g258" transform="scale(1.40717)">
        <path
          d="m 9893.29,9386.46 c -85.7,0 -172.83,8.67 -260.52,26.58 -402.8,82.08 -690.25,265.85 -854.27,545.99 -208.08,355.47 -153.43,761.57 -114.7,937.47 -738.65,490.1 -1101.44,1053.4 -1078.55,1675.3 56.78,1545.2 2484.35,2868.2 2587.65,2923.8 859.6,474.4 1756.8,780.5 1765.7,783.6 61.3,20.8 127.9,-12.1 148.6,-73.4 20.8,-61.3 -12.1,-127.8 -73.3,-148.6 -8.8,-2.9 -887.1,-302.8 -1728.9,-767.4 -25.2,-13.6 -2414,-1315.4 -2465.59,-2726.9 -20.19,-552.4 330.31,-1062.3 1041.74,-1515.2 l 76.25,-48.5 -27.65,-86.1 c -1.34,-4.4 -144.47,-469.5 71.78,-837.1 129.2,-219.45 363.99,-365.27 698.14,-433.35 459.73,-93.74 887.83,110.57 1117.13,533.15 284.9,524.9 263.2,1417 -651.9,2346.6 l -63.9,65 47.2,77.9 c 15.4,25.4 165.3,255.4 686,503.3 58.5,27.9 128.4,3.1 156.2,-55.4 27.9,-58.4 3.1,-128.4 -55.4,-156.2 -295,-140.5 -453.4,-271.6 -528.9,-347.4 931,-994 933.4,-1962 616.7,-2545.6 -232.6,-428.67 -651,-677.54 -1109.51,-677.54"
          style="fill:#371a45;fill-opacity:1;fill-rule:nonzero;stroke:none" id="path260" />
      </g>
      <g id="g262" transform="scale(1.12042)">
        <path
          d="m 12765.7,15727.2 c -50.2,52.2 -106.3,105.8 -161.7,157.1 -55.9,51.5 -113.2,101.6 -171.8,150.6 -117.6,97.1 -240.1,189.1 -375.3,265.1 151.2,-35.3 299.3,-90.9 443.7,-153.4 72.1,-31.7 143.6,-65.1 214.4,-100.3 71.1,-35.7 140,-71.4 211.6,-112.5 l -160.9,-206.6"
          style="fill:#371a45;fill-opacity:1;fill-rule:nonzero;stroke:none" id="path264" />
      </g>
      <path
        d="m 12449.6,15536.4 c 68.4,-41.2 139.4,-85.8 209.1,-129.6 l 211.1,-132.2 213.1,-131.5 c 71.6,-44 144.2,-86.2 218.6,-129.8 -86.1,3.1 -171.4,16 -256.2,31.2 -84.5,16.1 -167.9,36.6 -250.4,59.7 -82.3,23.5 -164.2,48.6 -244.4,77.9 -80.8,28.7 -159.4,58.6 -239,95.3 l 138.1,259"
        style="fill:#371a45;fill-opacity:1;fill-rule:nonzero;stroke:none" id="path266" />
      <g id="g268" transform="scale(1.02628)">
        <path
          d="m 13571.6,13190.5 c -98,0 -198.3,10.2 -299.5,30.8 -458.2,93.4 -780.1,293.3 -957.3,594.2 -176.2,299.6 -178.4,646.5 -150.7,879.9 147.8,-356.2 488,-885 1204.8,-885 148.3,0 312.6,22.6 494.8,74.1 911.2,257.7 889.9,1483.8 729.8,2415.5 562.5,-943.2 510.6,-1794.3 210.3,-2347.7 -263.8,-486.3 -719.8,-761.8 -1232.2,-761.8"
          style="fill:#c6b9cf;fill-opacity:1;fill-rule:nonzero;stroke:none" id="path270" />
      </g>
      <g id="g272" transform="scale(1.04387)">
        <path
          d="m 13342,12810.3 c -106.1,0 -214.8,10.8 -325.4,33.4 -1360.6,277.5 -1268.3,1384.6 -1190.3,1777.2 27,-11.9 54,-23.1 81,-33.8 13.7,-41.4 30.8,-88.7 51.8,-139.3 -27.2,-229.5 -25.1,-570.5 148.2,-865.1 174.2,-295.8 490.7,-492.4 941.1,-584.2 99.6,-20.3 198.2,-30.2 294.5,-30.2 503.8,0 952.1,270.8 1211.5,748.9 295.2,544 346.2,1380.8 -206.7,2308.1 -9.5,54.9 -19.4,108.8 -29.7,161.3 16,36.6 29.2,74.8 39.7,113.4 h 0.5 c 1213,-1804.6 305.1,-3489.7 -1016.2,-3489.7 m -1482.6,1947.6 c 0.2,0.5 0.3,0.9 0.4,1.2 l 0.5,0.6 v -0.1 l -0.9,-1.7"
          style="fill:#3a194d;fill-opacity:1;fill-rule:nonzero;stroke:none" id="path274" />
      </g>
      <path
        d="m 12429.7,15227.1 c -28.2,11.1 -56.4,22.8 -84.6,35.2 16,80.7 31.4,132.5 34.6,143 l 0.9,1.8 c 0.5,-2.7 14.1,-73.5 49.1,-180"
        style="fill:#3a194d;fill-opacity:1;fill-rule:nonzero;stroke:none" id="path276" />
      <g id="g278" transform="scale(1.40297)" style="fill:#349369;fill-opacity:1">
        <path
          d="m 13910.9,14483.5 v -369.6 c 0,0 -1637.1,-235.1 -2513.3,1386.6 -123.4,227.9 -231.4,492.4 -317.9,799.5 l 896.4,-140.8 c 0,0 358.9,-596.2 870.2,-1079.1 313.4,-296.4 684.3,-549.8 1064.6,-596.6"
          style="fill:#349369;fill-opacity:1;fill-rule:nonzero;stroke:none" id="path280" />
      </g>
      <g id="g282" transform="scale(1.30845)" style="fill:#276e4f;fill-opacity:1">
        <path
          d="m 14438.4,15226.4 c -203.1,18.4 -456.4,63.7 -725,165.5 -479.3,181.7 -874.3,485.5 -1182.3,908.1 294.4,-288.1 682.7,-621.3 903.7,-621.3 3.9,0 7.7,0 11.5,0.3 286,15.6 -334.8,455.9 -305.3,565.9 1.8,6.6 5.9,9.7 12.2,9.7 42.5,0 182.4,-140.5 339,-281.1 156.6,-140.5 329.8,-281 439,-281 34.7,0 62.9,14.2 82,47.1 32.3,55.7 -177.9,139 -233.5,294.5 143.7,-129.3 297.7,-249.1 458.8,-347.6 -27.1,-21.1 -47.6,-50.5 -58.3,-85 -19.2,-62.9 -1.5,-130 46.4,-175.2 l 211.8,-199.9"
          style="fill:#276e4f;fill-opacity:1;fill-rule:nonzero;stroke:none" id="path284" />
      </g>
      <g id="g286" transform="scale(1.41229)">
        <path
          d="m 11130.1,16084.3 c 290.7,-924.6 820.2,-1538 1575,-1824.1 455.7,-172.7 863.5,-169.9 1026.5,-159.5 v 212.2 c -920.2,175.4 -1742.2,1426.7 -1888,1659.4 l -713.5,112 m 2467.7,-2163.2 c -219,0 -569.3,29.2 -954.8,175.3 -580.9,220.2 -1351,758.4 -1720.7,2072.2 l -37,131.4 1065.6,-167.2 21.1,-35.1 c 9,-15 918.2,-1507.3 1857.8,-1623 l 76.9,-9.4 v -520.4 l -75.2,-10.8 c -8.7,-1.2 -94.8,-13 -233.7,-13"
          style="fill:#371a45;fill-opacity:1;fill-rule:nonzero;stroke:none" id="path288" />
      </g>
      <g id="g290" transform="scale(1.44102)" style="fill:#349369;fill-opacity:1">
        <path
          d="m 15427.4,15732.6 c 0,0 -910,-1511.7 -1883.8,-1631.7 v -359.6 c 0,0 2073.7,-297.7 2756.4,2128.2 l -872.6,-136.9"
          style="fill:#349369;fill-opacity:1;fill-rule:nonzero;stroke:none" id="path292" />
      </g>
      <g id="g294" transform="scale(1.45153)">
        <path
          d="m 13530.7,13719.6 c 159.6,-10 561.2,-12.4 1005.9,157.9 730.6,279.5 1243.3,875.4 1525.2,1772 l -694.1,-109 c -141.9,-226.4 -941.6,-1443.9 -1837,-1614.5 v -206.4 m 130.2,-174.8 c -135.2,0 -219,11.4 -227.5,12.7 l -73,10.4 v 506.3 l 74.8,9.2 c 914.1,112.6 1798.8,1564.5 1807.6,1579.1 l 20.4,34.1 1036.8,162.8 -36,-127.9 c -359.8,-1278.2 -1109.1,-1801.9 -1674.3,-2016.1 -374.9,-142.2 -715.8,-170.6 -928.8,-170.6"
          style="fill:#371a45;fill-opacity:1;fill-rule:nonzero;stroke:none" id="path296" />
      </g>
      <g id="g298" transform="scale(1.25955)">
        <path
          d="m 12527.8,16276.4 c -36.1,-331.8 -79.6,-659.5 -126.1,-987.2 -23.9,-163.6 -46.3,-327.5 -76.2,-489.8 -29.6,-162.3 -61.5,-324.6 -105.6,-483.6 l -0.1,-0.5 c -19.4,-69.9 -91.7,-110.9 -161.6,-91.5 -62.8,17.4 -102.2,77.5 -95.6,140.2 17.4,166.2 49.1,328.8 84.4,491.1 35.2,162.3 79,322.8 123.8,483 45.1,160.1 93.5,319.5 145.8,477.9 53.3,158.2 109,315.7 175,469.9 4.1,9.7 15.2,14.1 24.8,10 7.8,-3.4 12.2,-11.4 11.4,-19.5"
          style="fill:#371a45;fill-opacity:1;fill-rule:nonzero;stroke:none" id="path300" />
      </g>
      <g id="g302" transform="scale(1.11453)">
        <path
          d="m 10069.4,14650.8 c -61.2,0 -110.83,49.5 -111.01,110.7 -1.08,437.3 363.51,891.2 928.71,1156.5 643.2,301.8 1620.7,382 2435,-298.1 47.1,-39.3 53.3,-109.3 14,-156.3 -39.3,-47 -109.2,-53.3 -156.2,-14 -734.3,613.3 -1617.1,540.4 -2198.6,267.5 -487.4,-228.7 -801.9,-603.6 -801,-955.1 0.2,-61.2 -49.4,-111 -110.7,-111.2 h -0.2"
          style="fill:#371a45;fill-opacity:1;fill-rule:nonzero;stroke:none" id="path304" />
      </g>
      <g id="g306" transform="scale(1.38876)" style="fill:#276e4f;fill-opacity:1">
        <path
          d="m 14502,14346.2 -0.5,2.9 204.9,206.5 c 43.7,44 58.3,107.8 38.3,166.4 -8.7,25.2 -22.9,47.2 -41.3,64.7 144.3,89.5 282.5,196.9 411.9,312.7 2,0.5 4.1,0.8 6,1.3 -55.7,-142.5 -247.7,-219.6 -217.7,-271.3 18.1,-31 44.7,-44.3 77.3,-44.3 102.9,0 266.1,132.4 413.6,264.7 67.7,60.7 132,121.4 185.7,169.4 45.6,14.3 90.8,29.3 135.8,45 -74.7,-143.9 -519.8,-478.7 -278.3,-491.9 3.6,-0.2 7.2,-0.3 10.9,-0.3 208.2,0 574,314 851.4,585.4 -288.5,-395.9 -658.2,-681.1 -1106.4,-852.7 -255.7,-97.9 -497.8,-141.1 -691.6,-158.5"
          style="fill:#276e4f;fill-opacity:1;fill-rule:nonzero;stroke:none" id="path308" />
      </g>
      <g id="g310" transform="scale(1.41367)">
        <path
          d="m 14262.9,14006.5 -16.4,86.9 c 190.4,17.1 428.2,59.6 679.4,155.8 440.3,168.5 803.5,448.7 1086.9,837.6 119,116.5 221.4,225 287.2,296.4 -578.4,-1070.6 -1490.9,-1325.7 -2037.1,-1376.7 m 181.4,519.7 c -23.9,22.9 -54.9,38 -89.5,42.5 l -8.3,1.1 c 113.7,66.2 224.3,145.4 329.9,232 57.9,9.4 115.3,20 172.6,31.6 -127.2,-113.8 -262.9,-219.3 -404.7,-307.2"
          style="fill:#371a45;fill-opacity:1;fill-rule:nonzero;stroke:none" id="path312" />
      </g>
      <g id="g314" transform="scale(1.28982)" style="fill-opacity:1;fill:#ffca28">
        <path
          d="m 14915.7,15948.5 138,291.6 c 27.8,58.6 110.6,59.9 140.3,2.2 l 147.5,-286.8 c 11.8,-22.9 34,-38.6 59.6,-41.8 l 319.9,-41.2 c 64.4,-8.3 91.3,-86.7 45.6,-132.7 l -227.2,-229 c -18.2,-18.2 -26.2,-44.3 -21.4,-69.5 l 59.7,-317 c 12,-63.8 -54.2,-113.6 -112.2,-84.4 l -287.9,145.4 c -23,11.6 -50.2,11.1 -72.8,-1.2 l -283,-154.7 c -56.9,-31.1 -124.8,16.5 -114.9,80.6 l 49.3,318.7 c 4,25.4 -4.9,51.3 -23.6,68.9 l -234.6,221.3 c -47.3,44.5 -22.9,123.8 41.1,134.2 l 318.4,51.7 c 25.4,4.1 47.2,20.4 58.2,43.7"
          style="fill:#ffca28;fill-opacity:1;fill-rule:nonzero;stroke:none" id="path316" />
      </g>
      <g id="g322" transform="scale(1.24967)" style="fill:#ffa000;fill-opacity:1">
        <path
          d="m 15282.8,15616.7 45.3,292.7 c 8.9,58.4 -11.3,117.5 -54.3,158.1 l -215.4,203.1 181.4,29.4 194.4,-183.6 c 19.5,-18.1 28.7,-44.6 24.5,-70.9 l -50.7,-329.2 c -1.6,-10.7 -1.2,-21 1,-30.5 l -126.2,-69.1"
          style="fill:#ffa000;fill-opacity:1;fill-rule:nonzero;stroke:none" id="path324" />
      </g>
      <g id="g326" transform="scale(1.29631)">
        <path
          d="m 14516.6,15685.2 207.6,-195.9 c 41.4,-39.1 61,-96 52.3,-152.3 l -43.6,-282.2 250.4,136.9 c 49.9,27.3 110.2,28.4 161.2,2.7 l 254.8,-128.7 -52.9,280.5 c -10.5,56 7.1,113.6 47.3,154.1 l 201.1,202.5 -283.1,36.5 c -56.6,7.3 -105.9,41.8 -132,92.6 l -130.5,253.8 -122,-258 v 0 0 c -24.4,-51.5 -72.6,-87.8 -128.9,-96.9 l -281.7,-45.6 m 193.4,-836.3 c -34.8,0 -69.5,10.6 -99.4,31.6 -54.4,38.2 -81.9,102.7 -71.7,168.3 l 47.7,308.1 -226.8,213.9 c -48.3,45.6 -66.2,113.3 -46.7,176.9 19.5,63.4 72.3,109.5 137.9,120.1 l 307.7,49.9 133.3,281.8 c 28.4,60 87.3,98 153.7,99 65.9,1.5 126.6,-34.8 157,-94 l 142.5,-277.2 309.2,-39.7 c 65.9,-8.5 120.2,-52.8 141.8,-115.6 21.5,-62.9 5.8,-131.2 -41,-178.3 l -219.5,-221.3 57.7,-306.3 c 12.2,-65.2 -13.1,-130.7 -66.2,-170.5 -53.1,-39.9 -122.9,-46.1 -182.2,-16.2 l -278.2,140.5 -273.5,-149.6 c -26.3,-14.3 -54.8,-21.4 -83.3,-21.4"
          style="fill:#371a45;fill-opacity:1;fill-rule:nonzero;stroke:none" id="path328" />
      </g>
      <g id="g330" transform="scale(1.82715)">
        <path
          d="m 14187,14112.7 c -38.7,-2.9 -72.4,26.1 -75.3,64.7 l -150.6,2017 c -2.9,38.7 26.1,72.4 64.8,75.3 405.7,30.3 759.1,-274.1 789.4,-679.8 l 51.4,-687.8 c 30.4,-405.7 -274,-759.2 -679.7,-789.4"
          style="fill:#ffffff;fill-opacity:1;fill-rule:nonzero;stroke:none" id="path332" />
      </g>
      <g id="g334" transform="scale(1.82726)">
        <path
          d="m 14081,16254.6 c -18.2,0 -36.4,-0.7 -54.8,-2 -14.4,-1.1 -27.5,-7.8 -36.9,-18.7 -9.4,-10.9 -14,-24.9 -12.9,-39.3 l 150.6,-2016.8 c 1.1,-14.4 7.7,-27.5 18.6,-36.9 11,-9.4 25,-14.1 39.3,-12.9 396.1,29.6 694.3,375.9 664.7,772 l -51.3,687.8 c -14.3,191.9 -102.6,366.7 -248.3,492.3 -131.9,113.5 -296.7,174.5 -469,174.5 m 99.8,-2159.2 c -20.7,0 -40.5,7.3 -56.3,20.9 -17.5,15 -28.1,36.1 -29.8,59 l -150.7,2016.9 c -1.7,23.1 5.7,45.4 20.7,62.9 15.1,17.5 36.1,28 59.1,29.8 200.4,15.1 394.9,-49 547.3,-180.3 152.4,-131.2 244.5,-313.9 259.5,-514.4 l 51.4,-687.8 c 30.9,-413.9 -280.7,-775.9 -694.7,-806.8 -2.2,-0.2 -4.4,-0.2 -6.5,-0.2"
          style="fill:#371a45;fill-opacity:1;fill-rule:nonzero;stroke:none" id="path336" />
      </g>
      <g id="g338" transform="scale(1.68607)">
        <path
          d="m 15440.4,15400.4 c 24.9,129.8 42.3,261.3 52,393.8 4.7,45 8.5,90.1 11.5,135.4 213.2,52 390.5,188.8 497.5,370.4 l 11.8,-158.2 c 26.9,-360.2 -225,-678.2 -572.8,-741.4"
          style="fill:#b9afbe;fill-opacity:1;fill-rule:nonzero;stroke:none" id="path340" />
      </g>
      <g id="g342" transform="scale(1.83569)">
        <path
          d="m 13987.2,16105.7 147,-1967.3 c 343.8,36.3 599.7,340.6 573.9,687.8 l -51.2,684.6 c -12.8,171.4 -91.6,327.5 -221.8,439.6 -125.2,107.8 -283.5,162.7 -447.9,155.3 m 128.3,-2148.7 c -38.2,0 -74.7,13.5 -103.9,38.7 -32.3,27.8 -51.9,66.6 -55,109.2 l -150,2007.5 c -3.2,42.6 10.4,83.8 38.2,116.2 27.9,32.3 66.6,51.8 109.2,55.1 219.2,16.3 431.7,-53.6 598.3,-197.1 166.6,-143.5 267.4,-343.2 283.7,-562.4 l 51.2,-684.6 c 33.8,-452.6 -306.9,-848.3 -759.5,-882.2 -4,-0.2 -8.1,-0.4 -12.2,-0.4"
          style="fill:#371a45;fill-opacity:1;fill-rule:nonzero;stroke:none" id="path344" />
      </g>
      <g id="g346" transform="scale(1.76833)">
        <path
          d="m 7613.28,16297.1 c 39.98,2.9 74.76,-27.1 77.76,-67 L 7846.72,14146 c 3,-40 -26.97,-74.8 -66.96,-77.8 v 0 c -419.21,-31.3 -784.46,283.2 -815.74,702.4 l -53.1,710.7 c -31.33,419.2 283.15,784.4 702.36,815.8"
          style="fill:#ffffff;fill-opacity:1;fill-rule:nonzero;stroke:none" id="path348" />
      </g>
      <g id="g350" transform="scale(1.77002)">
        <path
          d="m 7611.53,16264.9 c -1.47,0 -2.88,0 -4.29,-0.2 -408.92,-30.5 -716.77,-388 -686.26,-797 l 53.05,-710 c 14.8,-198.1 105.81,-378.6 256.38,-508.2 150.5,-129.6 342.31,-192.9 540.67,-178.1 30.62,2.4 53.73,29.1 51.41,59.8 l -155.48,2082.1 c -1.13,14.9 -7.96,28.4 -19.26,38.1 -10.17,8.8 -22.94,13.5 -36.22,13.5 m 102.94,-2229 c -185.87,0 -363.61,65.7 -505.87,188.3 -157.34,135.4 -252.48,324 -267.96,531 l -53,710 c -31.92,427.4 289.77,801 717.11,832.9 23.84,1.9 46.84,-5.8 64.86,-21.3 18.08,-15.6 28.98,-37.2 30.74,-61 l 155.53,-2082.1 c 3.67,-49 -33.28,-92 -82.32,-95.6 -19.77,-1.5 -39.49,-2.2 -59.09,-2.2"
          style="fill:#371a45;fill-opacity:1;fill-rule:nonzero;stroke:none" id="path352" />
      </g>
      <g id="g354" transform="scale(1.61899)">
        <path
          d="m 8422.73,15465.5 c -170.35,2.7 -332.68,64.2 -463.25,176.7 -147.69,127.1 -237,304.2 -251.51,498.5 l -11.93,159.3 c 141.95,-156.2 342.13,-257.3 563.01,-271.2 40.7,-192.2 95.43,-380.4 163.68,-563.3"
          style="fill:#b9afbe;fill-opacity:1;fill-rule:nonzero;stroke:none" id="path356" />
      </g>
      <g id="g358" transform="scale(1.77844)">
        <path
          d="m 7556.39,16110.1 c -354.92,-37.4 -619.03,-351.6 -592.32,-709.9 l 52.8,-706.7 c 13.22,-176.9 94.52,-338.1 228.97,-453.8 129.21,-111.3 292.5,-167.8 462.26,-160.2 l -151.71,2030.6 m 121.4,-2216.7 c -203.1,0 -397.37,71.9 -552.96,205.8 -171.95,148 -275.97,354.2 -292.89,580.5 l -52.75,706.6 c -34.91,467.2 316.74,875.6 783.89,910.6 43.92,3.1 86.48,-10.8 119.83,-39.5 33.4,-28.8 53.58,-68.7 56.84,-112.7 l 154.8,-2072.2 c 6.75,-90.7 -61.46,-169.9 -152.16,-176.7 -21.53,-1.6 -43.12,-2.4 -64.6,-2.4"
          style="fill:#371a45;fill-opacity:1;fill-rule:nonzero;stroke:none" id="path360" />
      </g>
      <g id="g362" transform="scale(2.06211)">
        <path
          d="M 12603.9,13250.9 C 12610,11564.2 11247.5,10192 9560.84,10186 c -1686.67,-6 -3058.86,1356.4 -3064.87,3043.1 -6.01,1686.7 1356.43,3058.9 3043.1,3064.9 1686.63,6 3058.83,-1356.4 3064.83,-3043.1"
          style="fill:#ffffff;fill-opacity:1;fill-rule:nonzero;stroke:none" id="path364" />
      </g>
      <g id="g366" transform="scale(2.06365)">
        <path
          d="m 9543.14,16267.5 c -3.78,0 -7.41,0 -11.14,0 -1674.8,-6 -3032.49,-1373.4 -3026.53,-3048.2 2.9,-811.3 321.56,-1572.9 897.29,-2144.6 573.06,-568.9 1332.69,-881.9 2139.75,-881.9 3.78,0 7.42,0 11.15,0 811.34,2.9 1572.94,321.5 2144.54,897.3 571.7,575.7 884.8,1339.5 881.9,2150.9 -2.8,811.3 -321.5,1572.9 -897.2,2144.5 -573.1,569 -1332.6,882 -2139.76,882 m -0.63,-6103.5 c -814.77,0 -1581.47,316 -2159.96,890.4 -581.2,577 -902.86,1345.8 -905.77,2164.8 -6.01,1690.6 1364.48,3070.9 3055.12,3077 819.8,3.8 1590,-313.3 2171.2,-890.3 581.2,-577.1 902.9,-1345.9 905.8,-2164.8 2.9,-819 -313.3,-1590.1 -890.3,-2171.3 -577,-581.1 -1345.9,-902.8 -2164.84,-905.8 -3.73,0 -7.51,0 -11.25,0"
          style="fill:#371a45;fill-opacity:1;fill-rule:nonzero;stroke:none" id="path368" />
      </g>
      <g id="g370" transform="scale(1.44907)">
        <path
          d="m 13594.7,14609.1 c -961.3,0 -1875.8,317.3 -2620.4,904.6 660.6,-336 1563.6,-621.2 2531.5,-621.2 44.8,0 89.9,0.7 135,1.9 1075.4,29.8 1998.3,341.5 2659.2,695.4 -755.1,-631.6 -1698,-977.2 -2694.8,-980.7 -3.5,0 -6.9,0 -10.5,0"
          style="fill:#b9afbe;fill-opacity:1;fill-rule:nonzero;stroke:none" id="path372" />
      </g>
      <g id="g374" transform="scale(2.07146)">
        <path
          d="m 9507.14,16140.8 c -3.67,0 -7.19,0 -10.91,0 -1632.42,-5.8 -2955.83,-1338.7 -2949.99,-2971.2 2.8,-790.8 313.45,-1533.1 874.6,-2090.3 561.19,-557.2 1306.51,-861.6 2096.53,-859.7 790.83,2.8 1533.23,313.4 2090.43,874.6 557.2,561.2 862.4,1305.8 859.6,2096.6 -2.8,790.8 -313.4,1533.1 -874.6,2090.3 -558.6,554.6 -1299,859.7 -2085.66,859.7 m -0.63,-6080.4 c -829.07,0 -1609.2,321.4 -2197.82,905.9 -591.37,587.2 -918.67,1369.5 -921.66,2202.7 -6.13,1720.3 1388.39,3124.8 3108.67,3131 3.81,0 7.63,0 11.44,0 829.06,0 1609.16,-321.4 2197.86,-905.9 591.3,-587.2 918.6,-1369.4 921.6,-2202.8 3,-833.3 -318.7,-1617.9 -905.9,-2209.3 -587.1,-591.3 -1369.4,-918.6 -2202.75,-921.6 -3.81,0 -7.63,0 -11.44,0"
          style="fill:#371a45;fill-opacity:1;fill-rule:nonzero;stroke:none" id="path376" />
      </g>
      <g id="g378" transform="scale(1.9462)">
        <path
          d="m 13344.6,13957 c 11.8,-633.2 -182.8,-1224.8 -525.1,-1717.6 -256.7,-369.6 -1328.1,-1027.9 -2665.4,-1064.9 -1239.99,-34.3 -2380.78,605.9 -2651.1,965.5 -360.55,479.8 -577.02,1063.8 -588.89,1696.8 -31.3,1675.4 1395.18,2396.9 3170.99,2430 1775.8,33.2 3228.2,-634.5 3259.5,-2309.8"
          style="fill:#371a45;fill-opacity:1;fill-rule:nonzero;stroke:none" id="path380" />
      </g>
      <g id="g382" transform="scale(1.95448)">
        <path
          d="m 10166.6,16114.7 c -40.6,0 -81.5,-0.4 -122.7,-1.2 -937.25,-17.5 -3113.12,-279.9 -3074.74,-2333.7 11.05,-592.3 207.98,-1159.5 569.46,-1640.5 256.69,-341.6 1365.37,-961.5 2570.08,-927.8 1335,36.9 2359.2,696 2587.1,1024.1 343.3,494.2 518.9,1068.4 507.8,1660.6 -14.1,758.3 -327.7,1336.4 -932.1,1718.3 -519.1,328 -1244.9,500.2 -2104.9,500.2 m -153.3,-5073.3 c -1238.91,0 -2334.19,630.1 -2609.55,996.5 -382.97,509.6 -591.57,1110.8 -603.28,1738.7 -15.3,818.6 301.2,1455.9 940.6,1894.2 557.7,382.3 1352.89,593.7 2299.73,611.4 946.8,17.8 1749.3,-163.9 2320.8,-525.1 655.4,-414.1 995.4,-1039.1 1010.7,-1857.8 11.7,-627.9 -174.3,-1236.5 -537.9,-1760 -252.2,-363 -1309.3,-1057.4 -2721,-1096.5 -33.4,-0.9 -66.9,-1.4 -100.1,-1.4"
          style="fill:#371a45;fill-opacity:1;fill-rule:nonzero;stroke:none" id="path384" />
      </g>
      <g id="g386" transform="scale(1.75925)">
        <path
          d="m 13554.7,15040.6 c -17.9,0 -36,1.4 -54,4.4 -250.3,40.5 -407.9,353.4 -351.9,698.7 51.9,320.5 269.3,556.3 500.3,556.3 18,0 36.1,-1.4 54.2,-4.3 202.2,-32.8 343.9,-243.4 361.3,-505.3 -24.1,-155.4 -57,-308.2 -98.4,-457.9 -96.4,-177.5 -250.6,-291.9 -411.5,-291.9"
          style="fill:#c3bac7;fill-opacity:1;fill-rule:nonzero;stroke:none" id="path388" />
      </g>
      <g id="g390" transform="scale(1.58576)">
        <path
          d="m 14468.2,15662.1 c -23.7,0 -47.6,3.5 -71,10.7 -146.1,45.1 -222,219.6 -169.5,389.8 44.1,142.9 164.6,237.4 288.6,237.4 23.7,0 47.6,-3.5 71,-10.7 146.1,-45 222,-219.6 169.5,-389.8 -44.1,-143 -164.6,-237.4 -288.6,-237.4"
          style="fill:#c3bac7;fill-opacity:1;fill-rule:nonzero;stroke:none" id="path392" />
      </g>
      <g id="g394" transform="scale(1.83455)">
        <path
          d="m 10668.9,11943.1 c -368.3,0 -726.39,55.7 -1054.86,143.3 1622.26,150.7 2890.06,948.4 3211.16,1410.7 254.2,365.9 447.8,772.3 567.8,1206.1 40.3,74.3 70.1,160.2 85.2,253.5 10.3,63.6 13,125.9 9.1,185.6 33.6,217.5 49,440.5 44.8,667.3 -3.1,171.2 -17.5,334.6 -42.1,490.4 371.8,-383.9 565.5,-884.8 576.9,-1495.3 11.7,-630.9 -175.3,-1242.7 -541,-1769.2 -242.9,-349.5 -1334.1,-1051.7 -2756.3,-1091.1 -33.7,-0.9 -67.1,-1.3 -100.7,-1.3"
          style="fill:#2a1a3b;fill-opacity:1;fill-rule:nonzero;stroke:none" id="path396" />
      </g>
      <g id="g398" transform="scale(1.85166)">
        <path
          d="m 10570.6,11743.5 c -460.2,0 -904.37,86 -1296.88,213.3 84.73,4.2 168.49,10.1 251.45,17.8 325.43,-86.7 680.23,-141.9 1045.13,-141.9 33.3,0 66.4,0.4 99.7,1.3 1409.1,39 2490.2,734.7 2730.8,1081 362.3,521.6 547.7,1127.7 536,1752.8 -11.3,604.9 -203.1,1101.2 -571.5,1481.5 -8,51.1 -17.2,101.3 -27.4,150.7 420.5,-386.5 674.6,-923.2 687.9,-1630.4 12.4,-665.5 -192.2,-1287.4 -551.8,-1805.4 -269.9,-388.4 -1395.9,-1080.3 -2801.5,-1119.3 -34.1,-1 -68.1,-1.4 -101.9,-1.4"
          style="fill:#2a1a3b;fill-opacity:1;fill-rule:nonzero;stroke:none" id="path400" />
      </g>
      <g id="g402" transform="scale(1.70425)">
        <path
          d="m 14416.9,15827.4 c 42.8,154.5 76.7,312.2 101.5,472.6 4.3,-64.2 1.3,-131.3 -9.7,-199.7 -16.3,-100.5 -48.3,-193 -91.8,-272.9"
          style="fill:#858290;fill-opacity:1;fill-rule:nonzero;stroke:none" id="path404" />
      </g>
      <g id="g406" transform="scale(1.99552)">
        <path
          d="m 6948,14896.7 5.41,-4.2 -5.41,4.2 m 5.36,-86.8 c -17.74,0 -35.58,5.7 -50.66,17.4 -34.93,27.1 -42.1,76.8 -16.99,112.6 538.8,824 1604.69,1310.8 2924.79,1335.5 1309.6,24.6 2393,-406.5 2971,-1182.3 25.3,-30.1 26.3,-74.9 0.3,-106.2 -29.3,-35 -81.3,-39.8 -116.5,-10.6 l -8.9,6.9 -4.9,7.7 c -545.1,734.8 -1579.9,1142.6 -2837.89,1119.2 C 8548.13,16086.5 7531,15626.4 7022.97,14847.8 l -4.32,-6 c -16.28,-20.9 -40.64,-31.9 -65.29,-31.9"
          style="fill:#371a45;fill-opacity:1;fill-rule:nonzero;stroke:none" id="path408" />
      </g>
      <g id="g410" transform="scale(1.88886)">
        <path
          d="m 7887.19,13243.8 c 0,0 -566.48,1693 338.61,2388.7 685.71,527.1 1609.75,667.5 2004.8,667.5 126.4,0 198.6,-14.4 191.4,-35 0,0 -1455.12,-381.2 -2005.5,-1547.6 -424.38,-899.3 -529.31,-1473.6 -529.31,-1473.6"
          style="fill:#c3bac7;fill-opacity:1;fill-rule:nonzero;stroke:none" id="path412" />
      </g>
      <g id="g414" transform="scale(1.17612)">
        <path
          d="m 16142.2,10060.6 c -76.6,6.1 -144,18.6 -213.8,34.4 -69.2,15.7 -137.1,35.2 -204.1,57.3 -134.3,43.2 -263.6,100.9 -389.3,164.1 -63.6,30.1 -124.1,67 -185.5,100.8 -60.1,36.7 -119.9,73.4 -177.3,114 -115.8,78.8 -223.8,169.5 -323.6,266.4 -7.5,7.4 -7.7,19.4 -0.4,27 5.6,5.7 14.1,7.2 21.2,4.1 l 0.7,-0.2 c 127,-55 249.3,-112.4 375.9,-159.2 61.7,-26.6 126.7,-46.1 188.5,-70.7 63.6,-21.3 126.6,-43.1 190.3,-62.8 126.8,-40.8 255.1,-75.1 382.3,-110.7 l 95.4,-26.4 c 31.9,-8.2 63.7,-16.9 95.3,-26.1 62.7,-16.9 128.6,-35 186.5,-52.6 l 6.9,-2 c 69.5,-21.2 108.8,-94.8 87.6,-164.5 -18.3,-60.3 -76.2,-97.8 -136.6,-92.9"
          style="fill:#371a45;fill-opacity:1;fill-rule:nonzero;stroke:none" id="path416" />
      </g>
      <g id="g418" transform="scale(1.35917)">
        <path
          d="m 14964.7,8930.19 c 50.1,15.23 107.1,30.9 161.3,45.54 27.4,7.94 54.9,15.45 82.4,22.58 l 82.7,22.82 c 110,30.82 221.1,60.47 330.8,95.79 55.1,17.07 109.6,35.9 164.6,54.37 53.6,21.26 109.8,38.11 163.1,61.14 109.7,40.54 215.5,90.13 325.4,137.73 l 0.6,0.22 c 8.3,3.61 18,-0.22 21.6,-8.53 2.8,-6.48 1.1,-13.76 -3.6,-18.4 -86.4,-83.87 -179.8,-162.3 -280.1,-230.51 -49.7,-35.16 -101.4,-66.87 -153.5,-98.66 -53,-29.28 -105.3,-61.21 -160.4,-87.18 -108.8,-54.74 -220.6,-104.7 -336.9,-142.08 -57.9,-19.13 -116.8,-35.98 -176.5,-49.58 -60.5,-13.62 -118.8,-24.43 -185.1,-29.73 -62.7,-5.08 -117.8,41.72 -122.8,104.48 -4.4,54.37 30.2,103 80.4,118.23 l 6,1.77"
          style="fill:#371a45;fill-opacity:1;fill-rule:nonzero;stroke:none" id="path420" />
      </g>
      <g id="g422" transform="scale(1.09226)">
        <path
          d="m 14075.2,7926.7 c 99.3,23.71 191.9,37.44 288.5,47.06 47.8,5.58 95.8,8.97 143.9,11.26 47.8,3.39 96,4.49 144.1,4.76 192.3,2.75 385,-14.46 575.7,-43.12 190.6,-31.4 378.8,-79.38 560.2,-145.2 180.2,-70.87 352.4,-162.33 502.1,-280.07 8.8,-6.96 10.3,-19.77 3.3,-28.65 -5.6,-7.23 -15.2,-9.52 -23.4,-6.32 l -0.8,0.37 c -173.6,69.03 -348.4,119.02 -526.5,152.34 -179.2,30.03 -359,46.7 -539.6,53.56 -180.8,4.67 -361.4,-1.83 -541.9,-9.8 -179.2,-8.6 -363.4,-22.97 -537.2,-35.06 l -5.8,-0.37 c -78.1,-5.4 -145.7,53.47 -151.1,131.56 -4.9,70.23 42.2,131.93 108.5,147.68"
          style="fill:#371a45;fill-opacity:1;fill-rule:nonzero;stroke:none" id="path424" />
      </g>
      <g id="g426" transform="scale(1.48091)">
        <path
          d="m 16173.5,5640.73 c -128.2,8.91 -264.1,19.51 -396.3,25.86 -133.1,5.88 -266.3,10.67 -399.7,7.23 -133.1,-5.07 -265.8,-17.36 -397.9,-39.51 -131.4,-24.58 -260.3,-61.44 -388.3,-112.36 l -0.7,-0.27 c -7.7,-3.04 -16.4,0.68 -19.5,8.44 -2.5,6.28 -0.4,13.3 4.7,17.36 110.5,86.83 237.5,154.29 370.3,206.56 133.8,48.55 272.7,83.93 413.3,107.09 140.5,21.14 282.7,33.84 424.6,31.81 35.4,-0.2 70.9,-1.01 106.3,-3.51 35.3,-1.69 70.7,-4.19 106,-8.31 71.3,-7.09 139.6,-17.22 212.9,-34.71 56.1,-13.37 90.8,-69.75 77.4,-125.93 -12.1,-50.44 -58.9,-83.53 -108.9,-80.02 l -4.2,0.27"
          style="fill:#371a45;fill-opacity:1;fill-rule:nonzero;stroke:none" id="path428" />
      </g>
    </g>
  </g>
</svg>